<svg viewBox="0 0 1828.6363525390625 400" xmlns="http://www.w3.org/2000/svg"><g><g><g><g><g><line x1="61.953125" y1="375.16185899783284" x2="56.953125" y2="375.16185899783284" style="visibility: inherit;" fill="rgb(0, 0, 0)" stroke="rgb(204, 204, 204)" stroke-width="1px"></line><line x1="61.953125" y1="347.6599813899379" x2="56.953125" y2="347.6599813899379" style="visibility: inherit;" fill="rgb(0, 0, 0)" stroke="rgb(204, 204, 204)" stroke-width="1px"></line><line x1="61.953125" y1="320.15810378204304" x2="56.953125" y2="320.15810378204304" style="visibility: inherit;" fill="rgb(0, 0, 0)" stroke="rgb(204, 204, 204)" stroke-width="1px"></line><line x1="61.953125" y1="292.6562261741482" x2="56.953125" y2="292.6562261741482" style="visibility: inherit;" fill="rgb(0, 0, 0)" stroke="rgb(204, 204, 204)" stroke-width="1px"></line><line x1="61.953125" y1="265.15434856625325" x2="56.953125" y2="265.15434856625325" style="visibility: inherit;" fill="rgb(0, 0, 0)" stroke="rgb(204, 204, 204)" stroke-width="1px"></line><line x1="61.953125" y1="237.65247095835835" x2="56.953125" y2="237.65247095835835" style="visibility: inherit;" fill="rgb(0, 0, 0)" stroke="rgb(204, 204, 204)" stroke-width="1px"></line><line x1="61.953125" y1="210.15059335046345" x2="56.953125" y2="210.15059335046345" style="visibility: inherit;" fill="rgb(0, 0, 0)" stroke="rgb(204, 204, 204)" stroke-width="1px"></line><line x1="61.953125" y1="182.64871574256856" x2="56.953125" y2="182.64871574256856" style="visibility: inherit;" fill="rgb(0, 0, 0)" stroke="rgb(204, 204, 204)" stroke-width="1px"></line><line x1="61.953125" y1="155.14683813467366" x2="56.953125" y2="155.14683813467366" style="visibility: inherit;" fill="rgb(0, 0, 0)" stroke="rgb(204, 204, 204)" stroke-width="1px"></line><line x1="61.953125" y1="127.64496052677879" x2="56.953125" y2="127.64496052677879" style="visibility: inherit;" fill="rgb(0, 0, 0)" stroke="rgb(204, 204, 204)" stroke-width="1px"></line><line x1="61.953125" y1="100.14308291888385" x2="56.953125" y2="100.14308291888385" style="visibility: inherit;" fill="rgb(0, 0, 0)" stroke="rgb(204, 204, 204)" stroke-width="1px"></line><line x1="61.953125" y1="72.64120531098898" x2="56.953125" y2="72.64120531098898" style="visibility: inherit;" fill="rgb(0, 0, 0)" stroke="rgb(204, 204, 204)" stroke-width="1px"></line><line x1="61.953125" y1="45.13932770309404" x2="56.953125" y2="45.13932770309404" style="visibility: inherit;" fill="rgb(0, 0, 0)" stroke="rgb(204, 204, 204)" stroke-width="1px"></line><line x1="61.953125" y1="17.637450095199178" x2="56.953125" y2="17.637450095199178" style="visibility: inherit;" fill="rgb(0, 0, 0)" stroke="rgb(204, 204, 204)" stroke-width="1px"></line></g><g transform="translate(51.953125, 0)"><text x="0" y="375.16185899783284" dx="0em" dy="0.3em" style="text-anchor: end; visibility: hidden; font-family: Roboto, sans-serif; font-size: 12px; font-weight: 200;" fill="rgb(255, 255, 255)" stroke="none" stroke-width="1px">0</text><text x="0" y="347.6599813899379" dx="0em" dy="0.3em" style="text-anchor: end; visibility: inherit; font-family: Roboto, sans-serif; font-size: 12px; font-weight: 200;" fill="rgb(255, 255, 255)" stroke="none" stroke-width="1px">2e-3</text><text x="0" y="320.15810378204304" dx="0em" dy="0.3em" style="text-anchor: end; visibility: inherit; font-family: Roboto, sans-serif; font-size: 12px; font-weight: 200;" fill="rgb(255, 255, 255)" stroke="none" stroke-width="1px">4e-3</text><text x="0" y="292.6562261741482" dx="0em" dy="0.3em" style="text-anchor: end; visibility: inherit; font-family: Roboto, sans-serif; font-size: 12px; font-weight: 200;" fill="rgb(255, 255, 255)" stroke="none" stroke-width="1px">6e-3</text><text x="0" y="265.15434856625325" dx="0em" dy="0.3em" style="text-anchor: end; visibility: inherit; font-family: Roboto, sans-serif; font-size: 12px; font-weight: 200;" fill="rgb(255, 255, 255)" stroke="none" stroke-width="1px">8e-3</text><text x="0" y="237.65247095835835" dx="0em" dy="0.3em" style="text-anchor: end; visibility: inherit; font-family: Roboto, sans-serif; font-size: 12px; font-weight: 200;" fill="rgb(255, 255, 255)" stroke="none" stroke-width="1px">0.01</text><text x="0" y="210.15059335046345" dx="0em" dy="0.3em" style="text-anchor: end; visibility: inherit; font-family: Roboto, sans-serif; font-size: 12px; font-weight: 200;" fill="rgb(255, 255, 255)" stroke="none" stroke-width="1px">0.012</text><text x="0" y="182.64871574256856" dx="0em" dy="0.3em" style="text-anchor: end; visibility: inherit; font-family: Roboto, sans-serif; font-size: 12px; font-weight: 200;" fill="rgb(255, 255, 255)" stroke="none" stroke-width="1px">0.014</text><text x="0" y="155.14683813467366" dx="0em" dy="0.3em" style="text-anchor: end; visibility: inherit; font-family: Roboto, sans-serif; font-size: 12px; font-weight: 200;" fill="rgb(255, 255, 255)" stroke="none" stroke-width="1px">0.016</text><text x="0" y="127.64496052677879" dx="0em" dy="0.3em" style="text-anchor: end; visibility: inherit; font-family: Roboto, sans-serif; font-size: 12px; font-weight: 200;" fill="rgb(255, 255, 255)" stroke="none" stroke-width="1px">0.018</text><text x="0" y="100.14308291888385" dx="0em" dy="0.3em" style="text-anchor: end; visibility: inherit; font-family: Roboto, sans-serif; font-size: 12px; font-weight: 200;" fill="rgb(255, 255, 255)" stroke="none" stroke-width="1px">0.02</text><text x="0" y="72.64120531098898" dx="0em" dy="0.3em" style="text-anchor: end; visibility: inherit; font-family: Roboto, sans-serif; font-size: 12px; font-weight: 200;" fill="rgb(255, 255, 255)" stroke="none" stroke-width="1px">0.022</text><text x="0" y="45.13932770309404" dx="0em" dy="0.3em" style="text-anchor: end; visibility: inherit; font-family: Roboto, sans-serif; font-size: 12px; font-weight: 200;" fill="rgb(255, 255, 255)" stroke="none" stroke-width="1px">0.024</text><text x="0" y="17.637450095199178" dx="0em" dy="0.3em" style="text-anchor: end; visibility: inherit; font-family: Roboto, sans-serif; font-size: 12px; font-weight: 200;" fill="rgb(255, 255, 255)" stroke="none" stroke-width="1px">0.026</text></g><line x1="61.953125" y1="0" x2="61.953125" y2="377" fill="rgb(0, 0, 0)" stroke="rgb(204, 204, 204)" stroke-width="1px"></line></g></g><g transform="translate(61, 0)" clip-path="url(#clip_0)"><clipPath id="clip_0"><rect width="1766" height="376"></rect></clipPath><g><g><g><line x1="2.013495509420705" y1="0" x2="2.013495509420705" y2="377" fill="rgb(0, 0, 0)" stroke="rgb(189, 189, 189)" stroke-width="1px" opacity="0.25"></line><line x1="222.94812017508613" y1="0" x2="222.94812017508613" y2="377" fill="rgb(0, 0, 0)" stroke="rgb(189, 189, 189)" stroke-width="1px" opacity="0.25"></line><line x1="443.8827448407515" y1="0" x2="443.8827448407515" y2="377" fill="rgb(0, 0, 0)" stroke="rgb(189, 189, 189)" stroke-width="1px" opacity="0.25"></line><line x1="664.8173695064169" y1="0" x2="664.8173695064169" y2="377" fill="rgb(0, 0, 0)" stroke="rgb(189, 189, 189)" stroke-width="1px" opacity="0.25"></line><line x1="885.7519941720822" y1="0" x2="885.7519941720822" y2="377" fill="rgb(0, 0, 0)" stroke="rgb(189, 189, 189)" stroke-width="1px" opacity="0.25"></line><line x1="1106.6866188377478" y1="0" x2="1106.6866188377478" y2="377" fill="rgb(0, 0, 0)" stroke="rgb(189, 189, 189)" stroke-width="1px" opacity="0.25"></line><line x1="1327.621243503413" y1="0" x2="1327.621243503413" y2="377" fill="rgb(0, 0, 0)" stroke="rgb(189, 189, 189)" stroke-width="1px" opacity="0.25"></line><line x1="1548.5558681690786" y1="0" x2="1548.5558681690786" y2="377" fill="rgb(0, 0, 0)" stroke="rgb(189, 189, 189)" stroke-width="1px" opacity="0.25"></line></g><g><line x1="0" y1="375.16185899783284" x2="1766.686875" y2="375.16185899783284" fill="rgb(0, 0, 0)" stroke="rgb(189, 189, 189)" stroke-width="1px" opacity="0.25"></line><line x1="0" y1="347.6599813899379" x2="1766.686875" y2="347.6599813899379" fill="rgb(0, 0, 0)" stroke="rgb(189, 189, 189)" stroke-width="1px" opacity="0.25"></line><line x1="0" y1="320.15810378204304" x2="1766.686875" y2="320.15810378204304" fill="rgb(0, 0, 0)" stroke="rgb(189, 189, 189)" stroke-width="1px" opacity="0.25"></line><line x1="0" y1="292.6562261741482" x2="1766.686875" y2="292.6562261741482" fill="rgb(0, 0, 0)" stroke="rgb(189, 189, 189)" stroke-width="1px" opacity="0.25"></line><line x1="0" y1="265.15434856625325" x2="1766.686875" y2="265.15434856625325" fill="rgb(0, 0, 0)" stroke="rgb(189, 189, 189)" stroke-width="1px" opacity="0.25"></line><line x1="0" y1="237.65247095835835" x2="1766.686875" y2="237.65247095835835" fill="rgb(0, 0, 0)" stroke="rgb(189, 189, 189)" stroke-width="1px" opacity="0.25"></line><line x1="0" y1="210.15059335046345" x2="1766.686875" y2="210.15059335046345" fill="rgb(0, 0, 0)" stroke="rgb(189, 189, 189)" stroke-width="1px" opacity="0.25"></line><line x1="0" y1="182.64871574256856" x2="1766.686875" y2="182.64871574256856" fill="rgb(0, 0, 0)" stroke="rgb(189, 189, 189)" stroke-width="1px" opacity="0.25"></line><line x1="0" y1="155.14683813467366" x2="1766.686875" y2="155.14683813467366" fill="rgb(0, 0, 0)" stroke="rgb(189, 189, 189)" stroke-width="1px" opacity="0.25"></line><line x1="0" y1="127.64496052677879" x2="1766.686875" y2="127.64496052677879" fill="rgb(0, 0, 0)" stroke="rgb(189, 189, 189)" stroke-width="1px" opacity="0.25"></line><line x1="0" y1="100.14308291888385" x2="1766.686875" y2="100.14308291888385" fill="rgb(0, 0, 0)" stroke="rgb(189, 189, 189)" stroke-width="1px" opacity="0.25"></line><line x1="0" y1="72.64120531098898" x2="1766.686875" y2="72.64120531098898" fill="rgb(0, 0, 0)" stroke="rgb(189, 189, 189)" stroke-width="1px" opacity="0.25"></line><line x1="0" y1="45.13932770309404" x2="1766.686875" y2="45.13932770309404" fill="rgb(0, 0, 0)" stroke="rgb(189, 189, 189)" stroke-width="1px" opacity="0.25"></line><line x1="0" y1="17.637450095199178" x2="1766.686875" y2="17.637450095199178" fill="rgb(0, 0, 0)" stroke="rgb(189, 189, 189)" stroke-width="1px" opacity="0.25"></line></g></g></g><g><g><line x1="0" y1="375.16185899783284" x2="1766.686875" y2="375.16185899783284" fill="rgb(0, 0, 0)" stroke="rgb(153, 153, 153)" stroke-width="1.5px"></line></g></g><g><g><line x1="2.013495509420705" y1="0" x2="2.013495509420705" y2="377" fill="rgb(0, 0, 0)" stroke="rgb(153, 153, 153)" stroke-width="1.5px"></line></g></g><g><g><g><g><g><path stroke="rgb(255, 112, 67)" stroke-width="2px" d="M10.311247675301434,-55.33689593641646L12.151633098766426,57.26479342792145L13.414826815292368,164.5878187825085L16.743980207066947,210.96474558030715L18.553655717703414,240.99376688463724L20.922627230681012,245.41755450396084L22.469501005277667,262.0122773586871L24.776500356036546,248.28773890816538L26.148062505960993,235.01449426475352L27.127907566353223,247.20262894686113L29.255949871132913,239.99872968206174L29.51510618586574,249.6873308258335L30.49550358281963,251.2228790702467L30.51406209129154,258.99350616189827L32.111198492999634,255.6079693889597L36.63030577322349,262.36672383506095L37.53160857454707,269.75128994414007L37.94133183598955,270.6974758916631L38.618717395214475,269.67714950067125L39.985308516083954,274.7381796007967L42.095234181641054,278.57725131262976L45.705526883302696,282.33059986432676L47.37082161672014,283.0319574794284L47.65803662878551,281.10002569060725L48.290241057266314,284.78841098827496L53.95511530100631,287.3759673199337L55.18793050664072,289.98176804307724L56.091994990772626,292.8207723858894L56.14148434669774,295.59311159731317L60.116650580994715,281.4784672628641L60.33007342842175,284.55055445375115L64.64945580794785,286.9958941223301L64.65829319293448,290.1895617610074L67.24853073251474,288.976809915001L69.53387849005637,291.57076207668655L74.82117546024274,292.83738748795986L75.79991584751164,294.54105543846737L75.9881521477268,296.3885163112642L77.91315553243872,287.56968319769646L82.80177597241591,290.14187696418566L86.1582147903367,291.70944926395026L87.06846544395924,293.46480735157144L89.4833913588673,294.4301134977009L93.76565672144956,296.03998661300903L96.00560241362241,296.5051072515735L99.65190745910455,298.60150186397897L101.41584950243522,299.56539408364023L101.4494315653844,300.80529273406995L101.87185856774515,302.4966253805026L102.18834741757871,297.77356238050766L104.71572905644159,299.28628366671524L110.92454434610846,300.5527270272631L112.80801202138325,301.90345665195787L116.61294812737533,303.0340865316883L116.93628595057353,304.2225862983325L117.45603465509951,305.66560035306816L117.65575955579729,304.41008995810944L120.06317369346672,305.8863000013145L121.66815327435044,307.4218744319785L123.47495663486625,308.9887573430942L126.02321659576003,309.58448377769315L129.77634353226802,310.50779700836364L129.83864709642373,311.753070227308L131.0258393020647,312.50478257730856L137.43946098879664,312.42364330074025L142.40364107040946,313.8048876755401L142.728414968668,314.01960392679865L143.59028093948876,314.2737910092037L144.75902510397012,313.703637581593L148.52540811795808,314.68354110880546L151.48261806910799,315.24875558666605L153.46517492354533,315.9410679990121L155.09313170539428,316.9996634764904L156.89971413128544,317.58836296551436L157.50231332006103,318.1166700097641L158.67547617703573,319.05325248925277L160.00097345771738,319.3073982739741L160.2877466005334,320.0047220585584L166.15599116627814,320.6405076996291L172.03428825744518,321.35916563563813L175.41690782838884,318.5666417575622L177.95489432923569,317.5358222962512L181.43218438684858,315.3502536085673L181.89912971607947,316.04900097975775L189.56489838810407,317.2869594236801L201.95181905460925,318.0329358563539L209.8004111285447,316.5961548356386L218.09065151718679,317.13453460135656L218.3769827907535,317.6487937617135L223.96508225242218,314.53012693884466L225.2996378527151,314.34509111718876L229.80990774795234,315.2896174550058L236.62452577845244,315.6844829479645L239.0851851606663,316.8251044779455L240.6107387439827,317.3981273575467L241.34368936131102,317.8177315768441L241.74623224745187,317.65609924659486L242.27260899071786,318.0718696626028L244.44384401461966,318.48968486334314L246.10405725166981,318.522726727L251.06569658509898,318.5958434429084L252.680065887531,317.9304108622698L257.020326589088,318.7243671843794L262.6565897989338,318.54797824450685L264.7839692998395,318.90489221048847L269.004925304077,319.2689652619225L270.45105288982614,320.19627851398894L270.9562199091242,321.0314604989198L273.6633318651526,321.17397681977263L276.12200283574447,321.82075180539834L277.87754936333783,313.15035631070043L281.727998002011,314.0803869437425L284.04107305494824,312.84188240769964L289.70550542943886,313.1718943978949L292.51104376075585,313.97164358738377L295.2301966538285,314.1100531413423L300.55273269664906,314.2532356595805L302.66376303532945,314.0009439254242L303.35937570108933,315.0341763729037L304.392134604089,314.36784118000213L308.78917550418504,315.2624661123854L313.1571635011376,316.06441800880407L313.7924610143637,316.82907538358234L321.31219189948433,315.7490053239453L321.7726196572875,316.5385313806214L322.12246963544567,317.21880449933684L324.1921851993136,317.8614621268354L326.0660422184154,318.32286704655667L329.6774395932004,318.79513192578884L330.79260711120037,319.1772281821257L335.9977164010111,319.96364819548745L338.9197977468392,320.40271677724303L342.24420104418346,321.1912898072226L343.39725885031356,321.6172362798078L344.52015908017677,321.9694341564151L348.0445082128435,322.3172360994213L349.17536208919466,323.1456673156035L349.623859377266,323.78823221487073L353.7948841563291,323.56662637089437L355.0109083304889,323.92382317996805L355.31911213189755,322.1156793162857L356.46112320679435,320.7318147285157L360.4685458962925,320.0419574580569L364.10778103378533,319.6767455902577L364.2323881620968,319.6123279527568L364.52601027827745,319.1701488276977L365.25984463410447,319.7401688897422L365.98671954925453,319.82165930068106L366.27128334582386,320.1095737000408L369.53084233082876,320.68217800206946L369.68107787560143,321.4746705831109L371.317209238563,321.4945577947332L380.883568019274,320.4736467251838L390.37282061597665,320.04532031480966L390.48571820918085,320.6724107195461L394.5228566056965,321.3746940136286L395.0844724215966,320.3731213950616L395.21614945789736,320.89648327129964L395.8335512665256,321.1933692297185L397.4443856149629,321.49889161899034L397.6441105156607,321.4511760509263L399.26046822971466,322.0169951476366L404.4862349069317,321.79874873237435L407.58959311229796,322.3856995113965L407.82643502993955,321.85450626826366L409.4471009691746,318.8561146352196L409.9596692983989,319.357242938991L412.6594904118133,320.0403906180322L415.2744726293561,320.16587062528106L416.66348861462916,319.1769645814347L417.658467696811,319.2043749872371L426.3358960151797,317.77807064813595L428.10856497618465,316.94742605821756L429.8606870170957,316.58324949933194L431.1543697118255,317.24618241906035L432.12891234122577,317.6132275275564L436.3606941420719,317.28261559066266L436.4203464907316,316.0507100517291L441.558623056581,314.2448120343783L443.8254123056508,314.4899594401874L447.080110728913,314.3477191688584L449.8167174573343,312.92214394294297L451.7482384134738,312.8210369672842L453.0931779411261,313.12139311919736L453.6676079652568,313.85877348851164L455.47474272770955,313.3266932447419L456.41327301328937,313.9825134605742L460.5274071265011,311.927401728728L465.7446678206684,311.27745381952457L469.3795947329803,311.3325033605602L472.2221396139288,312.19148024103674L475.8448046545717,312.1343260683801L478.7652289907148,312.72089853236537L479.27746591800206,313.5928814909462L480.9204462543283,303.0512618190929L483.2387132709451,303.81155133143795L484.4910811908625,304.907568229516L485.65894161684514,305.7019005118597L489.47161043470055,305.9716917504834L490.4599614781424,305.82707379081677L492.5453634003616,304.57993283150233L496.31903725696344,304.35581164806774L496.6416018089754,303.7758588927461L505.0999734469881,304.31104571495365L508.09927144413683,302.95380091077567L511.4026859521378,302.4877363559371L513.8986948742981,302.75176197168594L518.3511903651854,297.277836390748L520.8784615367358,297.13789546311597L523.8753292530132,298.19941923530985L529.5467210681809,298.94224026487973L531.349989474702,293.02834907256107L544.1667384534944,293.4194123887259L544.5772349861231,294.0961434666467L544.8958227148911,294.36241209552946L549.1520177917628,295.67619932969876L551.2742053289887,295.99964412863045L553.2076042294381,296.36814675796336L554.3552491372639,296.841849850988L557.2629697324886,297.34359365999774L559.7584263180873,297.4072759275223L560.3505311121913,296.71723553732915L560.7757197973604,296.9526468531248L562.5627495089686,296.25282252833046L562.5998665259125,296.3328162971606L563.796558920414,297.57687947174554L568.2856190916833,297.22117720444936L569.5692492609909,297.7580082373882L571.8132822437201,297.6732613964811L573.1555705558762,293.49457885526755L573.4335063137057,294.0781628723495L575.4496452310923,295.2048239068699L575.586624698385,295.68161370466066L575.6719054635058,291.7192463476447L583.1691010169105,290.1849948353787L585.4738910214228,290.4917070912298L586.7906613844301,291.4257951749824L590.0227140086641,291.25850386040213L590.3804071659979,291.6719608904078L592.9666678823343,292.44461639067634L597.2574392279661,293.573312445047L599.3786325593811,292.9248935633909L599.3923305061104,293.6246263495044L602.7004951085418,294.29813281375857L605.0241750234628,294.92067966504754L605.0369892316935,295.48314224093133L605.2119694544286,295.8140693057101L613.3546255137941,296.78735994717647L622.1156775875987,296.37416343827505L626.604737758868,297.05414223799875L626.8641150082256,295.93170713770144L627.6551714318409,296.81600134610767L630.3222942208049,295.8330165220271L631.173997198891,296.95742870785426L634.860733280687,296.38254116920285L639.8256866334862,296.43534038888913L642.8882824006016,296.9255593635965L644.4884014197427,297.9784532249635L646.0214667802978,299.05314848504366L647.1609371070109,299.74492090182696L647.2537296493705,300.1466248798425L648.5291852375655,301.1881631933694L648.6319198380348,302.2988867274386L650.4789333002399,303.2568036812635L650.5801213583368,303.46886677637207L654.0396261786641,304.47206003396474L654.212838924402,304.59934803382134L655.2736565247342,304.6731201852958L655.4411249702307,304.8791098800359L662.0921409111659,305.68631722407684L662.5366613759933,305.73179473981423L667.2282081307686,305.28659216121406L667.8720116270445,305.7646102135194L674.3046336914975,304.7871067110544L675.993457962442,304.322804815969L677.5724777249274,303.9103634933867L679.0861008385118,304.1925340970982L679.1841958118634,304.75885788025585L683.5393696005854,305.79986664935694L687.1262432320325,305.4455595944837L689.940950350273,306.08300261300803L691.4898125364916,306.07306989865225L693.406309938154,305.5726248714903L696.438858596315,305.92507757302786L702.233200530109,305.3186653884363L705.5381615804827,306.256819517641L705.83067902354,304.6979720604167L706.2310125634342,304.7474521606546L719.9626518229669,305.276145448822L720.8874841618174,305.8207113524811L726.8933709987289,304.73347256422494L728.2796253011936,301.94452095715536L738.2242241593323,302.78347279472706L741.5021207181844,300.05915855296354L745.6819828822341,300.5044823542371L753.7057761135294,301.4711492201819L754.0888767526997,301.2248892171147L759.0892901127577,301.99762627760947L763.705829562459,302.6737296675493L765.194045194207,302.9525968363632L769.2466490144493,303.91147687685486L770.1520391063292,304.8125916806991L770.7353065154466,304.4141751164425L771.6824532513883,304.6803784735418L772.0181634135677,305.0443041974297L776.6887213789998,305.2482626026138L784.5859190703618,305.7519592190892L784.8815295981644,304.53230458308593L786.0249767481216,305.2457686972826L787.7083881207617,305.5680539169223L792.1400052896179,305.335410376694L794.6547936548748,305.701549035168L798.7808582378184,306.59991135530566L802.6288765956203,306.9150026831653L811.169546381321,306.227081351147L811.5682229115301,306.45181438348476L812.5925862987925,307.0826492753484L817.0439771165563,306.8979902044297L817.8446441963447,306.84806673246175L821.1434190772278,307.38564156992004L821.7126571376789,307.33475639860404L823.4849946967469,306.28532608891834L826.6445807640905,305.1754250678225L827.205312841492,305.3532004598595L827.3095939843341,306.2453864724235L829.4778463908029,306.74409214397514L829.8883429234318,305.7651716493262L830.2411755190228,304.9651292235315L830.9119330395077,305.1952600218505L832.7957321167197,305.86409263371274L837.6611544211069,306.1925947550404L843.8791384976975,306.12146699249587L845.0043585411196,306.2704375934065L846.0054133254797,305.3458688287391L850.7999156153494,305.263584359883L853.4558812057677,305.92893385223005L861.8861941464478,305.9075016554641L862.22676487037,306.06702041496754L865.0029188966063,303.8137028413741L867.561452317547,302.26209844157097L868.7679763028464,301.8445417565397L869.4226055957306,303.0435902365039L871.8101356171801,303.39510741539056L871.837973379888,303.7579925903362L875.3734797111003,303.29922923374886L877.9452692095209,304.5597431552224L878.1326217712375,303.31781062184115L879.8823135312772,304.2426934591194L882.2688493469158,303.0851914569884L884.7562418187142,296.1107435001623L886.8750048692579,297.056128494749L887.5878504357415,296.67039441970536L887.6227581064388,296.8380945610285L888.0668367020168,297.22049678510797L888.6775000045926,297.6989204378291L888.6925235590701,298.2970951356375L891.0365294594603,298.4007199581628L891.0382969364576,299.5874143163868L895.3417720230078,298.94719442045783L900.1695249738896,294.41237438033727L905.6208659028903,295.2975797531609L908.621820909724,296.4885326910476L909.0716438055433,297.3738384371216L910.8350335123123,297.2590533397835L911.7744475363908,297.8880883750992L917.4058501844938,297.66491546929933L919.5878005376919,298.6138041093837L925.1707080356811,299.1538716801113L929.7693517807846,300.03038987111637L929.8727491851281,300.95740209435706L930.1643828896867,297.39714490045367L931.9329645601355,298.114388510118L932.4287418578853,297.99800003531993L934.6253843636237,296.3461413853013L936.2295906733209,296.7663625105164L937.4362251259324,297.88423282657624L940.6522599898782,298.7484297033349L941.4390081883128,299.24780548425326L950.8892658237618,299.3756567233537L953.4902186926383,300.2837978381452L957.778559757399,301.39804390958835L959.3526084908295,299.8095070576416L961.1943195220425,300.96831147365907L961.9291480836804,299.37300857115844L964.3741211075431,300.1687264304143L964.6471963036298,300.25354950544147L965.9975487295864,299.33358396195445L967.6783088867304,299.9723427378154L969.7957463295262,299.4440507095747L970.8870529080623,300.1799726347506L975.7535798855729,300.4911195396243L978.7851343379228,301.3112871552099L980.3586307347916,301.7638369066901L980.4014920519767,302.6090518936742L982.0860080977402,302.8882680072319L990.7825472611424,303.06009992575065L992.5813969751703,295.3897980061025L992.7621214981468,296.4970468656277L1000.1175874898283,296.527029961207L1001.4006653225744,297.09589012715526L1006.8476980263939,297.0093742505017L1007.84809000688,297.5453410995191L1008.2155042876991,297.1805784827589L1015.8462548217142,296.79025712413807L1023.3134032661644,297.5117793098651L1024.8648062005666,297.7506123450798L1028.4176558998151,297.60877115964894L1034.791730288732,298.8410570666231L1035.185988126448,298.9220731836724L1035.4029459278695,299.7542309635087L1035.8978394871206,300.7212722306245L1040.791541423465,301.41820251019686L1045.6819293404396,299.2176755287518L1046.1317522362588,299.6993576988015L1047.5240822409019,300.11916738261704L1057.143244396908,300.27829590726304L1059.5993746193162,301.21686838432413L1062.0222541807123,301.8765632640912L1062.93559791908,302.9608394883626L1066.3059556183548,302.5838795424677L1066.4818195795885,303.23112184795013L1071.9288522834083,303.3758970606728L1075.8568489753393,301.01516584200505L1076.9094919945587,300.33467295050406L1081.1642509963701,301.3929592734057L1082.6118146571796,300.54607285202036L1083.262135724883,301.58047861226373L1085.3541656858422,300.86967388913007L1085.9393110392691,301.62150754883805L1088.5821310195197,301.0024210982286L1089.788986406756,301.89058076215673L1091.9615470384058,301.729405225006L1092.644235028623,302.82652585915866L1093.6008819534252,303.62180797263863L1101.208655286475,304.00859220289595L1101.6695249135275,302.42545367313L1102.3791669279537,301.91100206825104L1102.6515793201665,302.2924602346717L1105.4228727846603,299.9025085216487L1107.3241256972206,300.19240655628965L1109.950927917183,300.59733986692504L1113.4109850740722,301.81309570973133L1114.2036985073723,302.12708233480913L1116.2177385458247,302.8373850980317L1117.6552496812117,303.37662948686847L1119.7495994557298,303.86047518213866L1128.5183842413978,304.24175624601696L1129.13313483453,304.8377211435154L1129.974453885257,303.57431409726445L1132.083385345003,304.0112619821219L1134.7447638337255,303.6615709135086L1141.3171270482799,303.9515079053931L1146.4531942678827,304.73286211288035L1151.1233103640654,305.24619392043695L1151.896139681146,305.90840704825183L1154.7963484991321,306.4204418949845L1156.5764187700634,306.21625267985627L1157.0770566295557,306.99905701483704L1161.5524188540958,307.3173356140335L1166.8747339622917,306.87805642586414L1174.9943023533795,307.79321308544627L1175.0676526487687,308.3464552538394L1177.7694621738049,308.6817742317803L1177.8750689243952,309.2116312776883L1180.5040804906043,309.7632593934217L1180.7488760547337,310.2060378071902L1183.920171657185,310.66847204080983L1184.004568683807,310.7474150470738L1184.4664325166705,311.70054154917335L1187.6769440149997,310.24536408696235L1188.6536959906468,309.3965470134145L1190.6280782639715,307.33216470654577L1192.1030378182395,307.3606618394993L1193.5661773700876,307.9917847938547L1195.779721374613,308.5717510562192L1204.0864213927928,309.4283177398494L1205.0253935476217,307.9206783419325L1205.642463954313,308.6312672038673L1206.1086360123577,307.8940687762789L1209.350520227389,308.74511498454825L1211.0387921617719,309.2904589078981L1212.7881525198745,308.6949710295512L1215.9848556041622,309.3583791577138L1219.0196136085697,309.0324300526222L1219.4018305092413,308.3110698157749L1219.632044388143,307.3478582442694L1219.9666498771992,308.1106827621981L1221.0484562668746,308.0971588308004L1224.8721718159634,309.05310882184546L1227.26478333378,306.71067621140213L1228.9156068492819,307.4041654244735L1235.7205037562967,308.05755926958756L1242.258401169403,308.85147762973247L1243.35070195375,309.2504709028657L1243.4461457116058,307.4912335113619L1243.7239710021227,307.85013112866767L1244.730991021349,308.3510395741758L1245.8510191010914,308.14657557553295L1246.6787506724015,308.9915547553468L1247.179830401143,309.91145072215403L1247.989997669792,310.5203427926252L1248.536589931215,311.10715010818075L1252.5298728047346,311.90715216009835L1253.9604244994448,312.56945493739875L1255.1336978237316,311.6529427637713L1255.9577839737346,311.2635384149334L1259.324717186327,311.03518606500893L1266.3907588196967,310.52107623134594L1266.8732800399666,310.91176968916636L1268.8825699839883,311.4175123416096L1271.8164713322362,311.601758743983L1271.9375435065529,312.13859911819344L1272.2988820851936,312.34737162857255L1276.937625464674,312.4422935014881L1287.9993802524343,309.80243557677267L1288.589717569541,309.4154348162862L1291.307323920241,310.3329437962257L1292.172503910432,310.66408547416194L1294.6690651691538,310.49862843680125L1302.1377601559768,311.12087607145475L1304.851168748808,312.0431387962497L1305.232501910981,306.29923138086343L1306.797050455551,306.9005702144073L1309.0388740920334,306.58645094281314L1311.41016541857,307.1972556127465L1314.247960205088,307.622616003853L1316.5012724420533,308.16639844227643L1323.495620789719,308.94868831412464L1324.1685876564507,309.8126216086449L1325.7957711671131,310.7899171988868L1327.2968010070917,311.6251979086878L1327.5136483412011,311.2220262204413L1331.224245362461,309.91473420688936L1334.3905699358568,308.45228829445904L1335.4970105361826,308.88504368743116L1337.088623572274,308.99530804807193L1337.7174035140724,308.30974319805057L1337.9006687852325,309.1308253027706L1338.2060004365205,309.45473463701194L1338.7640812984262,309.84628588945736L1339.4020300271482,309.35427733092143L1340.3423277897252,310.13746446908124L1341.1728210438434,309.5432897423424L1341.9557028863462,306.92653962610683L1343.5042336706279,307.5842118432368L1345.8634840601203,308.5605576209272L1346.3994714595592,308.8130026103703L1348.738064461645,308.70029988617773L1351.1199606501657,309.33807057655633L1352.076938976905,309.8627857472646L1353.2428109912657,310.70548886910865L1354.5614592985828,310.87407621832597L1360.0133525641452,311.21026343010703L1361.8671045324022,309.61618522027965L1362.8933458639742,310.66623268886707L1364.7887440089812,311.43916282405473L1376.8023956271136,310.59592538843856L1376.952189302637,311.4775867397138L1377.7661124599053,312.22110114298215L1378.731154900445,312.076449800655L1379.7913096969032,312.5695258861009L1380.0506869462606,310.25051997421895L1383.1935924494421,308.12806542121996L1385.2271852021772,308.32079930692305L1391.5254790148335,306.0910586588323L1392.9614436078482,307.01708533600566L1394.6359071281893,306.7801777345914L1397.2855760818045,307.16580887682215L1398.6659756167155,306.95563737016175L1398.8278102292832,307.4327481199325L1399.159654035531,307.6891011908895L1402.7622140253293,308.43899376468534L1407.5493150052728,308.6300184086458L1409.2247727314248,308.219286910358L1409.7669463003542,307.85973940439834L1412.4486507745462,308.56779803118366L1412.8321932829656,307.2193107157438L1414.7366497475837,307.9778867562237L1418.017528923869,308.22805610248275L1420.1116577637624,309.142343540615L1426.227459576445,309.7119579328283L1426.7033527579747,310.36503468926816L1427.6459703341109,311.254356406385L1428.3105416851051,311.67571517725736L1428.7363931741484,312.017170853965L1431.0285899050546,309.9000273422781L1432.0641104908625,309.26118219545924L1432.9582329168843,308.82021989148075L1436.4186214757103,307.9899405909062L1437.454031594206,308.34512882094396L1442.8537842883472,309.1793369798669L1443.9280789007842,307.5310448799634L1444.1388505327152,308.1029184672092L1445.3318975059099,307.77196899469334L1447.593826193237,308.5925318166713L1448.2009545418182,309.25302962200834L1449.2544812995363,310.3996295256818L1452.0237863524083,311.0411466734677L1456.4055827634022,311.692131215452L1460.7585472058777,311.8737724096867L1462.257588634234,311.83995655225374L1467.8112222944549,312.72927065249024L1468.3533958633843,313.2120844236407L1472.69454030344,313.6625659007505L1473.2911742573497,314.5146702339453L1476.2214301842905,315.0495082246314L1478.1996788135468,315.54680667745276L1483.8560470742373,315.80198428636317L1485.7661373717842,315.61155239281857L1488.2113313302714,316.02873348458826L1489.8822598966178,314.60963372641555L1490.3404783081744,305.77527341711925L1490.9113733783104,304.60768381656936L1491.372243005363,305.6443200584479L1492.435601353879,306.0523745117446L1493.3044267653768,306.77326120452L1500.7973140936003,306.6435790475873L1504.5987152455978,305.1556806045338L1505.4222490590391,305.6438641821852L1509.8196213610722,306.15749859795994L1510.5543394553977,305.65107017993796L1512.1841741815565,306.03565962286046L1514.646048704206,302.5739414898849L1515.0450566363522,303.1706580476898L1520.865910725106,303.9686035204294L1523.065093979028,303.9483628541845L1524.1237022331138,304.73963660777565L1525.2014213322327,304.9527440665253L1525.4974737292848,305.24223096406513L1527.2636251188621,306.20662206667225L1532.5773237766962,307.04315730801676L1536.3634804395915,307.8444792685062L1539.6829127078809,308.6084061263503L1544.2456545764762,309.3806704917201L1550.230110754795,308.88613796809256L1553.4276975775813,309.16887849370136L1556.0296446522689,308.966826515371L1556.6668201098046,308.449406640659L1558.3639294291738,308.0737966690074L1559.0192215259322,307.7118460971695L1561.6347560800366,305.63812543989496L1563.399913263803,306.0104323514024L1567.6464976845016,306.8365474925937L1571.4715388413383,306.60631085008004L1572.5428508363423,307.5186405924598L1577.0831678405339,308.1338973627656L1580.375314682677,308.83193240869844L1592.199625327471,309.48713251815855L1593.7288243320945,309.86111296890726L1594.3302083804344,310.16558149990533L1598.0373809150121,309.65612563429124L1600.117701340864,309.33004364259216L1601.727099614241,309.1475674195289L1602.4508814446458,310.1814140205857L1603.1149004590784,309.7332934942649L1608.4672626762288,310.15266556554826L1609.92012876803,309.6049910132304L1610.4499299979784,308.86698946296315L1612.2153081163694,309.61577712486616L1615.2710549101203,309.70871107139203L1617.0808408880691,309.61213074719564L1620.7173143427535,308.93891278380266L1630.5445969151947,308.86695969333397L1630.7450950870789,309.0082890228217L1638.1961153039283,309.46879498766066L1639.0415216452116,309.6883688385866L1641.8426412840352,310.2974118631653L1645.64249589366,310.67514109623744L1649.2049562490815,310.71098395880034L1652.1502357304994,309.5880586182712L1655.9116477154325,309.631852779136L1657.5104411268255,310.373215327979L1657.895309242993,310.8492977028285L1660.485436315261,305.07607643898217L1660.536251278934,305.98125826309507L1660.806675259525,306.17489624431676L1662.5797860897792,306.3802647310904L1663.5838234915723,307.02379421736106L1664.805812900598,307.59086921443975L1666.8862437937623,308.1438487612309L1667.6033975854273,306.89822514394166L1668.043499357761,307.68084319566464L1668.778327919399,308.2893474945677L1670.9528769626709,308.65228958317283L1671.363815364549,309.39353817306426L1680.0919481792787,307.24140686889615L1681.7232189804974,307.7530179754295L1683.627454510491,305.47845669557876L1684.502355624167,306.307714788424L1689.5778867566112,305.4932062886084L1694.3042307147714,306.1938987464831L1694.854026528252,307.11365589142656L1696.1997393270904,308.00876518266193L1697.5114281937306,308.68560271091866L1698.9502649368656,304.5623915980375L1699.9784946800596,302.2944324187307L1703.2977060137243,302.9467016832672L1705.5544427373718,301.85678382951943L1709.6503497440485,303.03214655662913L1712.2719600003313,303.7102345017742L1712.416893114112,304.2947311396427L1713.437169210818,304.60111202418705L1713.5843116708454,305.4521501775485L1718.1497047549367,306.40340604242465L1718.1810774716391,306.7727542883562L1718.5080607161444,306.39739226770143L1721.7166942701638,307.36465496992054L1726.5849887246718,307.35263306845474L1726.978694225826,307.9843723981579L1729.003560060887,308.47187868989636L1729.6332237411839,309.13112054917764L1730.3338074359988,309.4780271651554L1733.768015241802,310.2985830003031L1733.7711083265472,311.1999354969799L1738.6571880183408,311.61888073381135L1740.5443011149225,311.97646040077177L1741.8965314851887,310.99861318312077L1742.7296759548028,309.562587810375L1747.6758498645054,310.3417600292368L1750.0877931619807,310.94598926126366L1751.1140344935525,311.2855120928936L1752.5000678613926,310.6799351862587L1754.4904678950056,310.1573172861857L1756.338254628397,309.0811597050501L1760.2048314946708,307.9325097372437L1765.5276989394283,307.8900622745225L1766.599342336369,307.24921077208387L1767.1079338423497,307.6995812247341" style="fill: none;" fill="none"></path></g></g></g></g><g opacity="0.2"><g><g><g><path stroke="rgb(255, 112, 67)" stroke-width="2px" d="M10.311247675301434,-55.33689593641646L12.151633098766426,167.61444900497176L13.414826815292368,372.8374171805495L16.743980207066947,344.6041268254303L18.553655717703414,355.22296757009957L20.922627230681012,266.2442199939022L22.469501005277667,354.8385658732357L24.776500356036546,159.6018456178907L26.148062505960993,137.95240762010445L27.127907566353223,346.4915575984778L29.255949871132913,175.4270651553049L29.51510618586574,344.28841951495957L30.49550358281963,267.4211940593532L30.51406209129154,346.94070926133793L32.111198492999634,214.7393103330826L36.63030577322349,348.94713858739914L37.53160857454707,369.6933555405288L37.94133183598955,284.17422323610606L38.618717395214475,254.43513758790144L39.985308516083954,353.7894525001318L42.095234181641054,341.10501612344746L45.705526883302696,345.9178237225616L47.37082161672014,295.36367305611736L47.65803662878551,245.91764839001416L48.290241057266314,354.22876872511904L53.95511530100631,337.65277743007744L55.18793050664072,342.1541294965514L56.091994990772626,351.3076436768829L56.14148434669774,354.28122439377427L60.116650580994715,-25.17324722003382L60.33007342842175,352.9698326773944L64.64945580794785,342.763926644668L64.65829319293448,364.69695310112144L67.24853073251474,260.0610080511711L69.53387849005637,354.7238190980525L74.82117546024274,324.29953127803935L75.79991584751164,337.68228374369596L75.9881521477268,344.0458120474293L77.91315553243872,55.98550762742578L82.80177597241591,358.85798148394L86.1582147903367,334.2857791982721L87.06846544395924,341.9082435497301L89.4833913588673,321.4833175671136L93.76565672144956,341.8328385260383L96.00560241362241,309.9266780665159L99.65190745910455,359.9398796499534L101.41584950243522,328.14846596561426L101.4494315653844,338.05275190357327L101.87185856774515,353.9468195060974L102.18834741757871,152.3432924677281L104.71572905644159,346.416152574786L110.92454434610846,340.4616145625986L112.80801202138325,344.9408368938586L116.61294812737533,339.4461056022269L116.93628595057353,342.8975246757742L117.45603465509951,353.0976933697414L117.65575955579729,262.73624715258603L120.06317369346672,355.35246750209205L121.66815327435044,359.35303185687343L123.47495663486625,362.45447326611185L126.02321659576003,330.08932570585654L129.77634353226802,342.55738244933815L129.83864709642373,355.33423096103616L131.0258393020647,339.0231817736944L137.43946098879664,309.53899789036114L142.40364107040946,363.28208438212096L142.728414968668,321.7674951275283L143.59028093948876,323.5116204971941L144.75902510397012,292.8384243822634L148.52540811795808,350.7869801844889L151.48261806910799,336.21086125692665L153.46517492354533,341.78180438551317L155.09313170539428,356.7591848458242L156.89971413128544,339.83388823085954L157.50231332006103,338.1985834008618L158.67547617703573,354.86028579853826L160.00097345771738,329.0785295594656L160.2877466005334,346.9618753029321L166.15599116627814,345.3502241887562L172.03428825744518,349.435375870556L175.41690782838884,208.91482293495613L177.95489432923569,276.85877694434174L181.43218438684858,228.68881709960243L181.89912971607947,343.8861398607123L189.56489838810407,366.83235729022624L201.95181905460925,348.0222488436789L209.8004111285447,258.58268282870716L218.09065151718679,338.965750756584L218.3769827907535,338.5888344938825L223.96508225242218,187.02508265039106L225.2996378527151,306.7499661024628L229.80990774795234,354.20962451914227L236.62452577845244,332.0168025911806L239.0851851606663,364.17743099336343L240.6107387439827,341.2726699985164L241.34368936131102,335.3617703386099L241.74623224745187,310.8748629423855L242.27260899071786,335.5739782349805L244.44384401461966,336.1355650889925L246.10405725166981,319.92267818198326L251.06569658509898,321.70342390919774L252.680065887531,289.56194931791146L257.020326589088,352.67312709992353L262.6565897989338,310.9837507164922L264.7839692998395,334.2543775138135L269.004925304077,334.9699792567817L270.45105288982614,360.2965295318818L270.9562199091242,357.2437898684776L273.6633318651526,327.3693660978634L276.12200283574447,350.00850463652495L277.87754936333783,-65.66241523702365L281.727998002011,354.81253013730407L284.04107305494824,258.47075349666454L289.70550542943886,327.6932856147612L292.51104376075585,349.24263394497547L295.2301966538285,320.22782648395633L300.55273269664906,320.59572052532786L302.66376303532945,302.80156926874275L303.35937570108933,360.9952090069864L304.392134604089,284.6672117529229L308.78917550418504,355.2178865675266L313.1571635011376,351.9504913540234L313.7924610143637,351.11129830555825L321.31219189948433,267.2357422678991L321.7726196572875,352.06597130475126L322.12246963544567,347.8844758741006L324.1921851993136,346.8818887324968L326.0660422184154,339.19394764277774L329.6774395932004,340.1930225853756L330.79260711120037,336.51786651006057L335.9977164010111,355.71056452526994L338.9197977468392,340.39181561042864L342.24420104418346,357.14676577114113L343.39725885031356,341.06753132311695L344.52015908017677,338.07559560449215L348.0445082128435,338.2451128340018L349.17536208919466,361.13744666345065L349.623859377266,353.2965536292331L353.7948841563291,313.37624659218216L355.0109083304889,340.37079684427135L355.31911213189755,238.75359484410123L356.46112320679435,256.85040352679187L360.4685458962925,288.1578765287636L364.10778103378533,302.77692944782166L364.2323881620968,316.6279537700157L364.52601027827745,298.66101640954975L365.25984463410447,346.2086606940361L365.98671954925453,323.6097923824464L366.27128334582386,333.50793437337484L369.53084233082876,347.35706332472876L369.68107787560143,358.43136936620516L371.317209238563,322.42290924140417L380.883568019274,272.7693222584726L390.37282061597665,300.0113528740694L390.48571820918085,350.03103457673046L394.5228566056965,354.2842979681095L395.0844724215966,273.3957103047198L395.21614945789736,345.46600829527756L395.8335512665256,335.1430503066165L397.4443856149629,335.8666721576158L397.6441105156607,319.20537636821086L399.26046822971466,348.66994060203734L404.4862349069317,311.50996585252915L407.58959311229796,350.07809868373914L407.82643502993955,296.77341915122577L409.4471009691746,177.17559598151783L409.9596692983989,343.05416170783514L412.6594904118133,352.3678859503924L415.2744726293561,326.1079711906705L416.66348861462916,272.31482385692505L417.658467696811,320.5041792363759L426.3358960151797,250.0975045810193L428.10856497618465,277.5062061682258L429.8606870170957,299.2801239265903L431.1543697118255,348.7638382979797L432.12891234122577,335.07425987102533L436.3606941420719,301.54533540512114L436.4203464907316,257.37695803666173L441.558623056581,228.18315008865264L443.8254123056508,326.17926530868897L447.080110728913,307.5615626155292L449.8167174573343,244.87241540450853L451.7482384134738,307.9921447667804L453.0931779411261,327.47391885150137L453.6676079652568,349.1124296521978L455.47474272770955,287.8756263555883L456.41327301328937,345.36775636902695L460.5274071265011,213.52999970431273L465.7446678206684,280.1438067905935L469.3795947329803,313.9706822719024L472.2221396139288,353.37533958469373L475.8448046545717,309.39284943071925L478.7652289907148,340.8687607095434L479.27746591800206,355.45440771754505L480.9204462543283,-203.2324776829258L483.2387132709451,340.3408679141817L484.4910811908625,357.58833915228087L485.65894161684514,343.8968461446468L489.47161043470055,318.94936683592283L490.4599614781424,298.867970414791L492.5453634003616,244.5448236066082L496.31903725696344,293.5631604039592L496.6416018089754,275.838190183037L505.0999734469881,330.10109493424864L508.09927144413683,237.52768691392092L511.4026859521378,280.01364091749497L513.8986948742981,315.48745278667656L518.3511903651854,33.15084813972226L520.8784615367358,290.3833940754105L523.8753292530132,349.4513456505397L529.5467210681809,334.81740510579516L531.349989474702,7.328725624379761L544.1667384534944,312.31704805329065L544.5772349861231,326.8074622814981L544.8958227148911,307.2366345820528L549.1520177917628,359.2155406316092L551.2742053289887,311.6466822809297L553.2076042294381,314.19950988116284L554.3552491372639,319.7695181308891L557.2629697324886,321.63447018997005L559.7584263180873,300.4910673917258L560.3505311121913,263.29433141251184L560.7757197973604,308.3577208208408L562.5627495089686,262.34039639132334L562.5998665259125,300.2100594548443L563.796558920414,357.888973141949L568.2856190916833,279.97305692970974L569.5692492609909,323.7945942409942L571.8132822437201,293.5621486857405L573.1555705558762,90.74363771264085L573.4335063137057,322.3994348174186L575.4496452310923,349.8921602430153L575.586624698385,318.82904920725696L575.6719054635058,99.31642563544347L583.1691010169105,215.67193523887994L585.4738910214228,305.39027444606023L586.7906613844301,336.80712187140836L590.0227140086641,283.1295025129897L590.3804071659979,311.7659945946568L592.9666678823343,330.0018953225779L597.2574392279661,348.4458770329965L599.3786325593811,261.39645048672446L599.3923305061104,327.65340278612115L602.7004951085418,327.0564634239737L605.0241750234628,325.20491342965045L605.0369892316935,322.84851924584007L605.2119694544286,311.9168942879586L613.3546255137941,344.1540530902696L622.1156775875987,276.26256115281905L626.604737758868,330.1553403196261L626.8641150082256,241.28465769607277L627.6551714318409,339.87443700060555L630.3222942208049,247.9630480773346L631.173997198891,351.7214876545666L634.860733280687,268.3794705042903L639.8256866334862,299.00752349617176L642.8882824006016,320.80999988273476L644.4884014197427,349.2833844180372L646.0214667802978,351.42626443638454L647.1609371070109,333.4607550073285L647.2537296493705,319.72710920834226L648.5291852375655,351.9617963446253L648.6319198380348,356.45079168177955L650.4789333002399,349.963537603672L650.5801213583368,313.8097998652908L654.0396261786641,353.3959933638987L654.212838924402,310.80754526116334L655.2736565247342,308.27153267385603L655.4411249702307,314.9276652543067L662.0921409111659,345.06689506292355L662.5366613759933,307.9506643198141L667.2282081307686,283.56308139921777L667.8720116270445,329.0913041027965L674.3046336914975,257.0822022579098L675.993457962442,281.6617427023032L677.5724777249274,283.7788527208333L679.0861008385118,317.96652100614324L679.1841958118634,332.4057121970695L683.5393696005854,356.6237298635571L687.1262432320325,288.14640825452517L689.940950350273,337.20858190583294L691.4898125364916,305.5880333414151L693.406309938154,281.13310072319723L696.438858596315,323.1384693630533L702.233200530109,275.70022511506284L705.5381615804827,352.0811935018106L705.83067902354,228.5508520316282L706.2310125634342,307.16462329668946L719.9626518229669,331.1051132089023L720.8874841618174,332.4267117533872L726.8933709987289,251.6108557443456L728.2796253011936,165.66821050964285L738.2242241593323,343.7794067902803L741.5021207181844,166.9264293900226L745.6819828822341,322.2678922391491L753.7057761135294,348.7155991891157L754.0888767526997,289.1886637148935L759.0892901127577,339.7679056334893L763.705829562459,335.7223358261758L765.194045194207,316.58456514564955L769.2466490144493,350.7870057976084L770.1520391063292,348.86628597336204L770.7353065154466,284.9354963727124L771.6824532513883,317.695707090807L772.0181634135677,322.83829961117533L776.6887213789998,315.22115318364536L784.5859190703618,330.38209646785026L784.8815295981644,244.89024213565307L786.0249767481216,340.1361358470537L787.7083881207617,321.32931868635706L792.1400052896179,293.95760244365164L794.6547936548748,323.6088350921066L798.7808582378184,350.5390932127099L802.6288765956203,322.32678320406876L811.169546381321,272.5781907577781L811.5682229115301,317.4447625528923L812.5925862987925,337.9413732535991L817.0439771165563,297.8646661058422L817.8446441963447,304.40578297335526L821.1434190772278,333.6849530452465L821.7126571376789,304.84526568361906L823.4849946967469,254.94171386459212L826.6445807640905,250.87160989047536L827.205312841492,314.05142763100173L827.3095939843341,349.8997097099763L829.4778463908029,331.1462734918754L829.8883429234318,257.86423482783886L830.2411755190228,265.8160454758803L830.9119330395077,316.456730066422L832.7957321167197,338.5943413145665L837.6611544211069,322.2687182622517L843.8791384976975,302.64055239325404L845.0043585411196,313.5610772654893L846.0054133254797,260.09625170354883L850.7999156153494,301.23637715162835L853.4558812057677,338.49356329440906L861.8861941464478,304.8585076663801L862.22676487037,313.8748059624817L865.0029188966063,193.5206593915032L867.561452317547,226.31413514849723L868.7679763028464,281.4055346683394L869.4226055957306,361.7371074195408L871.8101356171801,320.6022518707903L871.837973379888,321.5219677643795L875.3734797111003,280.8413800991014L877.9452692095209,366.26688364533607L878.1326217712375,242.5191588278321L879.8823135312772,349.5210517551516L882.2688493469158,246.417757354041L884.7562418187142,-45.3409918701471L886.8750048692579,343.34064444900133L887.5878504357415,277.7851586522706L887.6227581064388,305.0486978849344L888.0668367020168,315.9432254409173L888.6775000045926,321.12331236653586L888.6925235590701,327.58515022603865L891.0365294594603,303.47451556288934L891.0382969364576,357.6925589353658L895.3417720230078,267.59908998056636L900.1695249738896,72.3635607352763L905.6208659028903,338.6425388021114L908.621820909724,354.8055345540514L909.0716438055433,340.72490462409326L910.8350335123123,291.6382576371409L911.7744475363908,328.69107349810605L917.4058501844938,286.7363035757444L919.5878005376919,345.0807613654716L925.1707080356811,325.6012380336232L929.7693517807846,342.95442101901585L929.8727491851281,346.3547163061199L930.1643828896867,123.04347181827183L931.9329645601355,333.2397938273823L932.4287418578853,292.2980708042841L934.6253843636237,215.44826867319074L936.2295906733209,317.34642738400345L937.4362251259324,352.6318003316739L940.6522599898782,341.0728044240859L941.4390081883128,323.70517243767756L950.8892658237618,305.6373449996565L953.4902186926383,344.7616731232321L957.778559757399,355.9708034239089L959.3526084908295,222.00654633074234L961.1943195220425,357.7244600756539L961.9291480836804,221.2372562877449L964.3741211075431,339.1422379562269L964.6471963036298,304.4081393803457L965.9975487295864,254.27377493530003L967.6783088867304,331.2589327978226L969.7957463295262,273.5679457265322L970.8870529080623,336.22621632204323L975.7535798855729,315.7315458151356L978.7851343379228,341.484589747293L980.3586307347916,323.93071196272734L980.4014920519767,344.0098288162272L982.0860080977402,316.56507996501995L990.7825472611424,311.47698255794387L992.5813969751703,-80.3289484762817L992.7621214981468,350.73440925679614L1000.1175874898283,297.99572843812183L1001.4006653225744,324.96123981602267L1006.8476980263939,292.7714076551949L1007.84809000688,323.79975528456544L1008.2155042876991,279.31252019194176L1015.8462548217142,277.6700789065344L1023.3134032661644,332.8562789847798L1024.8648062005666,309.45015878551226L1028.4176558998151,290.660457591895L1034.791730288732,359.20685138083223L1035.185988126448,302.89081818350303L1035.4029459278695,340.51944578470057L1035.8978394871206,348.094317758561L1040.791541423465,335.559327530649L1045.6819293404396,191.4180271887482L1046.1317522362588,323.2961693395718L1047.5240822409019,320.6850462794465L1057.143244396908,308.07381219818035L1059.5993746193162,347.19662274442794L1062.0222541807123,334.1945196536342L1062.93559791908,356.07895001837113L1066.3059556183548,284.1167345894769L1066.4818195795885,334.9394452167448L1071.9288522834083,310.46844676934535L1075.8568489753393,185.36227893501248L1076.9094919945587,266.99700238140736L1081.1642509963701,353.2391114063829L1082.6118146571796,259.0563846665702L1083.262135724883,352.257088398066L1085.3541656858422,266.04648671166683L1085.9393110392691,338.4548842823837L1088.5821310195197,270.6724081846371L1089.788986406756,345.4030608525634L1091.9615470384058,293.8331098765136L1092.644235028623,356.57672498688714L1093.6008819534252,342.5844427100482L1101.208655286475,322.9580697594128L1101.6695249135275,224.86349770817014L1102.3791669279537,276.706641418026L1102.6515793201665,320.9811723600896L1105.4228727846603,182.8116860794523L1107.3241256972206,314.3954118253568L1109.950927917183,320.43633648620477L1113.4109850740722,361.3770830091235L1114.2036985073723,317.51038976823014L1116.2177385458247,337.63770410927486L1117.6552496812117,329.7962443847893L1119.7495994557298,327.5659595962828L1128.5183842413978,322.92224661020725L1129.13313483453,334.03650591640223L1129.974453885257,241.67463024641927L1132.083385345003,325.4192472149362L1134.7447638337255,286.5286388064381L1141.3171270482799,318.15685209685455L1146.4531942678827,343.0150760875383L1151.1233103640654,330.39678559186086L1151.896139681146,338.35347874079946L1154.7963484991321,331.50759456646534L1156.5764187700634,296.21197957265065L1157.0770566295557,345.3527182662637L1161.5524188540958,322.9114923016738L1166.8747339622917,285.35539785314853L1174.9943023533795,352.6317619119947L1175.0676526487687,335.45287620453104L1177.7694621738049,325.1109517009094L1177.8750689243952,335.17237732839885L1180.5040804906043,336.79074228151336L1180.7488760547337,331.90037495503276L1183.920171657185,333.32590193336875L1184.004568683807,314.61531326248536L1184.4664325166705,358.40008294078416L1187.6769440149997,238.94714038130482L1188.6536959906468,267.807638402494L1190.6280782639715,206.18488701693317L1192.1030378182395,308.756920497473L1193.5661773700876,338.9146205668609L1195.779721374613,336.9881265849961L1204.0864213927928,351.397231965476L1205.0253935476217,234.05126943578014L1205.642463954313,343.4478481605035L1206.1086360123577,271.77365706240295L1209.350520227389,350.4437643837176L1211.0387921617719,336.01066911522304L1212.7881525198745,279.51782215097774L1215.9848556041622,341.8634590103534L1219.0196136085697,293.06184762331776L1219.4018305092413,272.9664216160013L1219.632044388143,260.15311282875126L1219.9666498771992,345.4870494729144L1221.0484562668746,307.4345215430049L1224.8721718159634,355.8922095668442L1227.26478333378,191.9373587989302L1228.9156068492819,341.3834307319836L1235.7205037562967,340.0722823402386L1242.258401169403,347.75160141361914L1243.35070195375,328.8002174034073L1243.4461457116058,221.2925934323394L1243.7239710021227,325.4353162457578L1244.730991021349,332.8944617426156L1245.8510191010914,298.12827633133014L1246.6787506724015,350.3937659737107L1247.179830401143,354.9844662057828L1247.989997669792,340.35483026592766L1248.536589931215,339.85955257655905L1252.5298728047346,351.105708242236L1253.9604244994448,345.0210379741694L1255.1336978237316,266.74554558110344L1255.9577839737346,292.1834328848586L1259.324717186327,299.8463275453851L1266.3907588196967,285.330591546951L1266.8732800399666,330.0550809651378L1268.8825699839883,336.1980546971963L1271.8164713322362,320.62952984301575L1271.9375435065529,338.44291335067584L1272.2988820851936,322.57689531560095L1276.937625464674,317.0933185374943L1287.9993802524343,180.45339652480186L1288.589717569541,290.45297211442505L1291.307323920241,355.28954887413727L1292.172503910432,326.8895555310091L1294.6690651691538,302.3914648065002L1302.1377601559768,341.6101580654483L1304.851168748808,357.23277462628965L1305.232501910981,24.855322235080035L1306.797050455551,336.36539801319185L1309.0388740920334,291.1950033950366L1311.41016541857,337.12592836933374L1314.247960205088,328.4647591761926L1316.5012724420533,334.81109147184816L1323.495620789719,347.27998064171226L1324.1685876564507,352.14436666014007L1325.7957711671131,358.6763076276064L1327.2968010070917,352.5530367876928L1327.5136483412011,291.4670467401069L1331.224245362461,245.85880224805356L1334.3905699358568,236.79394788073472L1335.4970105361826,330.0896202567303L1337.088623572274,314.3981524291391L1337.7174035140724,274.7177314656758L1337.9006687852325,349.36306683267895L1338.2060004365205,325.3259898469804L1338.7640812984262,329.0319392951668L1339.4020300271482,285.2462987708064L1340.3423277897252,348.5129465871239L1341.1728210438434,280.4292393938618L1341.9557028863462,178.70799049916303L1343.5042336706279,339.809606993611L1345.8634840601203,356.40071002913436L1346.3994714595592,321.18260673808703L1348.738064461645,303.17795405921544L1351.1199606501657,340.58834827768936L1352.076938976905,335.57343715783185L1353.2428109912657,351.99732494295705L1354.5614592985828,319.13473538473863L1360.0133525641452,327.6832004489736L1361.8671045324022,231.50745125031722L1362.8933458639742,362.1178496419617L1364.7887440089812,349.3122279921897L1376.8023956271136,269.2778378628091L1376.952189302637,354.6784326503684L1377.7661124599053,348.6528438447974L1378.731154900445,304.9886223132397L1379.7913096969032,336.7299591473935L1380.0506869462606,196.62058962669346L1383.1935924494421,204.1290115637534L1385.2271852021772,317.76465120511494L1391.5254790148335,196.83499704969768L1392.9614436078482,352.3918918466068L1394.6359071281893,295.1718307913579L1397.2855760818045,326.0615346050886L1398.6659756167155,296.6573404938306L1398.8278102292832,330.8109369269782L1399.159654035531,320.2502763831635L1402.7622140253293,345.1833707236704L1407.5493150052728,317.99013630228586L1409.2247727314248,288.09363242187675L1409.7669463003542,290.24207368878695L1412.4486507745462,343.2623579493702L1412.8321932829656,241.14401605711492L1414.7366497475837,345.1477908990998L1418.017528923869,320.48625005275346L1420.1116577637624,353.94205546587773L1426.227459576445,337.62283569342804L1426.7033527579747,342.3655401845787L1427.6459703341109,354.8307794849197L1428.3105416851051,332.3221365882697L1428.7363931741484,328.7483732479792L1431.0285899050546,206.1607594584014L1432.0641104908625,277.95799598239034L1432.9582329168843,287.2132198600997L1436.4186214757103,267.30653693008804L1437.454031594206,325.7492338395062L1442.8537842883472,350.0552645877401L1443.9280789007842,226.76525902155583L1444.1388505327152,336.1245450443446L1445.3318975059099,291.55554647112297L1447.593826193237,348.799863150501L1448.2009545418182,341.61722728641945L1449.2544812995363,366.58269340828457L1452.0237863524083,342.47530520802684L1456.4055827634022,343.59019307190545L1460.7585472058777,320.77414151549L1462.257588634234,310.18298855295757L1467.8112222944549,356.3054292247411L1468.3533958633843,336.8698355944075L1472.69454030344,335.736045248367L1473.2911742573497,356.2675730341784L1476.2214301842905,341.2564408856982L1478.1996788135468,339.91431342596564L1483.8560470742373,328.3056280666242L1485.7661373717842,306.280432799792L1488.2113313302714,336.4705142554579L1489.8822598966178,245.07405468746165L1490.3404783081744,-127.1064959045075L1490.9113733783104,247.39603764527675L1491.372243005363,356.4392833870419L1492.435601353879,326.04696074011554L1493.3044267653768,342.0965672122037L1500.7973140936003,300.28917838085795L1504.5987152455978,232.24893825214025L1505.4222490590391,329.56476901930455L1509.8196213610722,331.3254916903808L1510.5543394553977,280.8361678292912L1512.1841741815565,324.88047524708367L1514.646048704206,132.95034468129631L1515.0450566363522,332.40966942402616L1520.865910725106,343.0678006939479L1523.065093979028,302.95657346443807L1524.1237022331138,343.51192578211385L1525.2014213322327,315.3949766188643L1525.4974737292848,319.4270451105821L1527.2636251188621,353.46164299071603L1532.5773237766962,348.03326248504686L1536.3634804395915,347.10914113491043L1539.6829127078809,346.0407154697333L1544.2456545764762,347.22151869654357L1550.230110754795,284.6541106423188L1553.4276975775813,323.02312708284256L1556.0296446522689,299.0663056053337L1556.6668201098046,283.09589810025744L1558.3639294291738,289.66895452773775L1559.0192215259322,289.97631196126434L1561.6347560800366,204.02605963008173L1563.399913263803,324.25342766301037L1567.6464976845016,347.3160951401516L1571.4715388413383,295.32474111453735L1572.5428508363423,352.2226979827303L1577.0831678405339,338.28141302755733L1580.375314682677,343.0355761880266L1592.199625327471,341.5918702981535L1593.7288243320945,328.1861172512213L1594.3302083804344,325.0845093567064L1598.0373809150121,284.6928376789432L1600.117701340864,293.3520570733654L1601.727099614241,300.20624950332456L1602.4508814446458,360.8398030054795L1603.1149004590784,287.77542783225863L1608.4672626762288,330.7018602561155L1609.92012876803,282.7689850500228L1610.4499299979784,272.70497569910776L1612.2153081163694,346.30631071197945L1615.2710549101203,314.26246692879687L1617.0808408880691,304.87970252273374L1620.7173143427535,275.95128491201507L1630.5445969151947,305.34126374197245L1630.7450950870789,315.93341561616387L1638.1961153039283,332.0335535713078L1639.0415216452116,320.44747178989024L1641.8426412840352,340.14047727080225L1645.64249589366,329.1838475050474L1649.2049562490815,312.4672818054865L1652.1502357304994,254.56479119861075L1655.9116477154325,311.7777638230489L1657.5104411268255,346.6999331318491L1657.895309242993,334.1773044357168L1660.485436315261,22.188586689325998L1660.536251278934,350.33511353096605L1660.806675259525,315.6631459796162L1662.5797860897792,316.4433087918247L1663.5838234915723,338.5567028355192L1664.805812900598,335.3775128021583L1666.8862437937623,335.2398166719385L1667.6033975854273,245.86273386189072L1668.043499357761,346.0290871134982L1668.778327919399,338.1060271920512L1670.9528769626709,326.43643383463257L1671.363815364549,345.7146828704801L1680.0919481792787,201.78707598587852L1681.7232189804974,332.8219381948631L1683.627454510491,194.0250585530397L1684.502355624167,346.94132397620496L1689.5778867566112,265.58232576080286L1694.3042307147714,340.5277988632846L1694.854026528252,352.1817169915934L1696.1997393270904,351.86908325545807L1697.5114281937306,341.8506140309439L1698.9502649368656,102.52521162834101L1699.9784946800596,191.16452133888745L1703.2977060137243,334.9078706437298L1705.5544427373718,248.45084993746065L1709.6503497440485,360.6248769168062L1712.2719600003313,336.93651935092305L1712.416893114112,332.9350457304009L1713.437169210818,319.61376475144954L1713.5843116708454,347.1529907954269L1718.1497047549367,353.01491176764495L1718.1810774716391,324.8708062944873L1718.5080607161444,288.0046652514305L1721.7166942701638,354.76049708511994L1726.5849887246718,306.76356026561655L1726.978694225826,338.93958055177524L1729.003560060887,332.35967261483916L1729.6332237411839,341.4339526101195L1730.3338074359988,326.47644152722995L1733.768015241802,350.50579615741117L1733.7711083265472,355.3661833275632L1738.6571880183408,332.1471861757945L1740.5443011149225,329.4978547447139L1741.8965314851887,263.0841245410992L1742.7296759548028,239.19738055843433L1747.6758498645054,348.52117960421054L1750.0877931619807,340.55320707778947L1751.1140344935525,327.92212282894144L1752.5000678613926,281.0066807688199L1754.4904678950056,284.54905202957156L1756.338254628397,256.3494621363825L1760.2048314946708,251.6486863217888L1765.5276989394283,305.81013750681717L1766.599342336369,275.84750055196093L1767.1079338423497,329.76772417626995" style="fill: none;" fill="none"></path></g></g></g></g></g></g><g transform="translate(61, 377)" clip-path="url(#clip_1)"><clipPath id="clip_1"><rect width="1766" height="22"></rect></clipPath><g><g><line x1="2.013495509420705" y1="0" x2="2.013495509420705" y2="5" style="visibility: inherit;" fill="rgb(0, 0, 0)" stroke="rgb(204, 204, 204)" stroke-width="1px"></line><line x1="222.94812017508613" y1="0" x2="222.94812017508613" y2="5" style="visibility: inherit;" fill="rgb(0, 0, 0)" stroke="rgb(204, 204, 204)" stroke-width="1px"></line><line x1="443.8827448407515" y1="0" x2="443.8827448407515" y2="5" style="visibility: inherit;" fill="rgb(0, 0, 0)" stroke="rgb(204, 204, 204)" stroke-width="1px"></line><line x1="664.8173695064169" y1="0" x2="664.8173695064169" y2="5" style="visibility: inherit;" fill="rgb(0, 0, 0)" stroke="rgb(204, 204, 204)" stroke-width="1px"></line><line x1="885.7519941720822" y1="0" x2="885.7519941720822" y2="5" style="visibility: inherit;" fill="rgb(0, 0, 0)" stroke="rgb(204, 204, 204)" stroke-width="1px"></line><line x1="1106.6866188377478" y1="0" x2="1106.6866188377478" y2="5" style="visibility: inherit;" fill="rgb(0, 0, 0)" stroke="rgb(204, 204, 204)" stroke-width="1px"></line><line x1="1327.621243503413" y1="0" x2="1327.621243503413" y2="5" style="visibility: inherit;" fill="rgb(0, 0, 0)" stroke="rgb(204, 204, 204)" stroke-width="1px"></line><line x1="1548.5558681690786" y1="0" x2="1548.5558681690786" y2="5" style="visibility: inherit;" fill="rgb(0, 0, 0)" stroke="rgb(204, 204, 204)" stroke-width="1px"></line></g><g transform="translate(0, 8)"><text x="2.013495509420705" y="0" dx="0em" dy="0.95em" style="text-anchor: middle; visibility: inherit; font-family: Roboto, sans-serif; font-size: 12px; font-weight: 200;" fill="rgb(255, 255, 255)" stroke="none" stroke-width="1px">0</text><text x="222.94812017508613" y="0" dx="0em" dy="0.95em" style="text-anchor: middle; visibility: inherit; font-family: Roboto, sans-serif; font-size: 12px; font-weight: 200;" fill="rgb(255, 255, 255)" stroke="none" stroke-width="1px">2M</text><text x="443.8827448407515" y="0" dx="0em" dy="0.95em" style="text-anchor: middle; visibility: inherit; font-family: Roboto, sans-serif; font-size: 12px; font-weight: 200;" fill="rgb(255, 255, 255)" stroke="none" stroke-width="1px">4M</text><text x="664.8173695064169" y="0" dx="0em" dy="0.95em" style="text-anchor: middle; visibility: inherit; font-family: Roboto, sans-serif; font-size: 12px; font-weight: 200;" fill="rgb(255, 255, 255)" stroke="none" stroke-width="1px">6M</text><text x="885.7519941720822" y="0" dx="0em" dy="0.95em" style="text-anchor: middle; visibility: inherit; font-family: Roboto, sans-serif; font-size: 12px; font-weight: 200;" fill="rgb(255, 255, 255)" stroke="none" stroke-width="1px">8M</text><text x="1106.6866188377478" y="0" dx="0em" dy="0.95em" style="text-anchor: middle; visibility: inherit; font-family: Roboto, sans-serif; font-size: 12px; font-weight: 200;" fill="rgb(255, 255, 255)" stroke="none" stroke-width="1px">10M</text><text x="1327.621243503413" y="0" dx="0em" dy="0.95em" style="text-anchor: middle; visibility: inherit; font-family: Roboto, sans-serif; font-size: 12px; font-weight: 200;" fill="rgb(255, 255, 255)" stroke="none" stroke-width="1px">12M</text><text x="1548.5558681690786" y="0" dx="0em" dy="0.95em" style="text-anchor: middle; visibility: inherit; font-family: Roboto, sans-serif; font-size: 12px; font-weight: 200;" fill="rgb(255, 255, 255)" stroke="none" stroke-width="1px">14M</text></g><line x1="0" y1="0" x2="1766.686875" y2="0" fill="rgb(0, 0, 0)" stroke="rgb(204, 204, 204)" stroke-width="1px"></line></g></g></g></g></svg>