<svg viewBox="0 0 1828.6363525390625 400" xmlns="http://www.w3.org/2000/svg"><g><g><g><g><g><line x1="72.34375" y1="352.7395237762478" x2="67.34375" y2="352.7395237762478" style="visibility: inherit;" fill="rgb(0, 0, 0)" stroke="rgb(204, 204, 204)" stroke-width="1px"></line><line x1="72.34375" y1="303.82327073695035" x2="67.34375" y2="303.82327073695035" style="visibility: inherit;" fill="rgb(0, 0, 0)" stroke="rgb(204, 204, 204)" stroke-width="1px"></line><line x1="72.34375" y1="254.907017697653" x2="67.34375" y2="254.907017697653" style="visibility: inherit;" fill="rgb(0, 0, 0)" stroke="rgb(204, 204, 204)" stroke-width="1px"></line><line x1="72.34375" y1="205.99076465835563" x2="67.34375" y2="205.99076465835563" style="visibility: inherit;" fill="rgb(0, 0, 0)" stroke="rgb(204, 204, 204)" stroke-width="1px"></line><line x1="72.34375" y1="157.07451161905826" x2="67.34375" y2="157.07451161905826" style="visibility: inherit;" fill="rgb(0, 0, 0)" stroke="rgb(204, 204, 204)" stroke-width="1px"></line><line x1="72.34375" y1="108.15825857976084" x2="67.34375" y2="108.15825857976084" style="visibility: inherit;" fill="rgb(0, 0, 0)" stroke="rgb(204, 204, 204)" stroke-width="1px"></line><line x1="72.34375" y1="59.24200554046348" x2="67.34375" y2="59.24200554046348" style="visibility: inherit;" fill="rgb(0, 0, 0)" stroke="rgb(204, 204, 204)" stroke-width="1px"></line><line x1="72.34375" y1="10.325752501166109" x2="67.34375" y2="10.325752501166109" style="visibility: inherit;" fill="rgb(0, 0, 0)" stroke="rgb(204, 204, 204)" stroke-width="1px"></line></g><g transform="translate(62.34375, 0)"><text x="0" y="352.7395237762478" dx="0em" dy="0.3em" style="text-anchor: end; visibility: inherit; font-family: Roboto, sans-serif; font-size: 12px; font-weight: 200;" fill="rgb(255, 255, 255)" stroke="none" stroke-width="1px">1e+3</text><text x="0" y="303.82327073695035" dx="0em" dy="0.3em" style="text-anchor: end; visibility: inherit; font-family: Roboto, sans-serif; font-size: 12px; font-weight: 200;" fill="rgb(255, 255, 255)" stroke="none" stroke-width="1px">1.5e+3</text><text x="0" y="254.907017697653" dx="0em" dy="0.3em" style="text-anchor: end; visibility: inherit; font-family: Roboto, sans-serif; font-size: 12px; font-weight: 200;" fill="rgb(255, 255, 255)" stroke="none" stroke-width="1px">2e+3</text><text x="0" y="205.99076465835563" dx="0em" dy="0.3em" style="text-anchor: end; visibility: inherit; font-family: Roboto, sans-serif; font-size: 12px; font-weight: 200;" fill="rgb(255, 255, 255)" stroke="none" stroke-width="1px">2.5e+3</text><text x="0" y="157.07451161905826" dx="0em" dy="0.3em" style="text-anchor: end; visibility: inherit; font-family: Roboto, sans-serif; font-size: 12px; font-weight: 200;" fill="rgb(255, 255, 255)" stroke="none" stroke-width="1px">3e+3</text><text x="0" y="108.15825857976084" dx="0em" dy="0.3em" style="text-anchor: end; visibility: inherit; font-family: Roboto, sans-serif; font-size: 12px; font-weight: 200;" fill="rgb(255, 255, 255)" stroke="none" stroke-width="1px">3.5e+3</text><text x="0" y="59.24200554046348" dx="0em" dy="0.3em" style="text-anchor: end; visibility: inherit; font-family: Roboto, sans-serif; font-size: 12px; font-weight: 200;" fill="rgb(255, 255, 255)" stroke="none" stroke-width="1px">4e+3</text><text x="0" y="10.325752501166109" dx="0em" dy="0.3em" style="text-anchor: end; visibility: inherit; font-family: Roboto, sans-serif; font-size: 12px; font-weight: 200;" fill="rgb(255, 255, 255)" stroke="none" stroke-width="1px">4.5e+3</text></g><line x1="72.34375" y1="0" x2="72.34375" y2="377" fill="rgb(0, 0, 0)" stroke="rgb(204, 204, 204)" stroke-width="1px"></line></g></g><g transform="translate(72, 0)" clip-path="url(#clip_0)"><clipPath id="clip_0"><rect width="1756" height="376"></rect></clipPath><g><g><g><line x1="227.66523420275493" y1="0" x2="227.66523420275493" y2="377" fill="rgb(0, 0, 0)" stroke="rgb(189, 189, 189)" stroke-width="1px" opacity="0.25"></line><line x1="455.547016104519" y1="0" x2="455.547016104519" y2="377" fill="rgb(0, 0, 0)" stroke="rgb(189, 189, 189)" stroke-width="1px" opacity="0.25"></line><line x1="683.428798006283" y1="0" x2="683.428798006283" y2="377" fill="rgb(0, 0, 0)" stroke="rgb(189, 189, 189)" stroke-width="1px" opacity="0.25"></line><line x1="911.3105799080471" y1="0" x2="911.3105799080471" y2="377" fill="rgb(0, 0, 0)" stroke="rgb(189, 189, 189)" stroke-width="1px" opacity="0.25"></line><line x1="1139.1923618098112" y1="0" x2="1139.1923618098112" y2="377" fill="rgb(0, 0, 0)" stroke="rgb(189, 189, 189)" stroke-width="1px" opacity="0.25"></line><line x1="1367.0741437115753" y1="0" x2="1367.0741437115753" y2="377" fill="rgb(0, 0, 0)" stroke="rgb(189, 189, 189)" stroke-width="1px" opacity="0.25"></line><line x1="1594.9559256133396" y1="0" x2="1594.9559256133396" y2="377" fill="rgb(0, 0, 0)" stroke="rgb(189, 189, 189)" stroke-width="1px" opacity="0.25"></line></g><g><line x1="0" y1="352.7395237762478" x2="1756.29625" y2="352.7395237762478" fill="rgb(0, 0, 0)" stroke="rgb(189, 189, 189)" stroke-width="1px" opacity="0.25"></line><line x1="0" y1="303.82327073695035" x2="1756.29625" y2="303.82327073695035" fill="rgb(0, 0, 0)" stroke="rgb(189, 189, 189)" stroke-width="1px" opacity="0.25"></line><line x1="0" y1="254.907017697653" x2="1756.29625" y2="254.907017697653" fill="rgb(0, 0, 0)" stroke="rgb(189, 189, 189)" stroke-width="1px" opacity="0.25"></line><line x1="0" y1="205.99076465835563" x2="1756.29625" y2="205.99076465835563" fill="rgb(0, 0, 0)" stroke="rgb(189, 189, 189)" stroke-width="1px" opacity="0.25"></line><line x1="0" y1="157.07451161905826" x2="1756.29625" y2="157.07451161905826" fill="rgb(0, 0, 0)" stroke="rgb(189, 189, 189)" stroke-width="1px" opacity="0.25"></line><line x1="0" y1="108.15825857976084" x2="1756.29625" y2="108.15825857976084" fill="rgb(0, 0, 0)" stroke="rgb(189, 189, 189)" stroke-width="1px" opacity="0.25"></line><line x1="0" y1="59.24200554046348" x2="1756.29625" y2="59.24200554046348" fill="rgb(0, 0, 0)" stroke="rgb(189, 189, 189)" stroke-width="1px" opacity="0.25"></line><line x1="0" y1="10.325752501166109" x2="1756.29625" y2="10.325752501166109" fill="rgb(0, 0, 0)" stroke="rgb(189, 189, 189)" stroke-width="1px" opacity="0.25"></line></g></g></g><g><g><line x1="0" y1="450.5720298548425" x2="1756.29625" y2="450.5720298548425" fill="rgb(0, 0, 0)" stroke="rgb(153, 153, 153)" stroke-width="1.5px"></line></g></g><g><g><line x1="-0.2165476990091425" y1="0" x2="-0.2165476990091425" y2="377" fill="rgb(0, 0, 0)" stroke="rgb(153, 153, 153)" stroke-width="1.5px"></line></g></g><g><g><g><g><g><path stroke="rgb(255, 112, 67)" stroke-width="2px" d="M1.3723580253009076,364.57725701175775L1.7606685816615135,365.96074699670766L4.197522416428027,369.34976914341115L5.785744495392372,367.9942236192946L6.190804362722758,367.0996576738842L7.431962487850717,366.81200134050135L7.847618858039534,365.99829044477553L8.263730991792155,365.3751866786651L9.036592055111987,364.66719981985347L9.509788575231001,362.9566491894751L10.69021620548214,362.471240411215L11.164096370946858,361.2126954274101L13.766962083828806,361.3346043395567L15.001169814608762,361.2086786738864L15.528830080602296,359.3857221226064L15.943233100990653,359.5491211873523L16.80177771430555,359.6998715974768L19.769937923576027,359.8914802414643L20.197102323750883,359.82945955444086L20.593730565150903,360.16811328460057L21.501839466029434,358.7140744891983L22.686141086572903,359.1880971007086L23.951226798800548,359.3517541718999L25.18418117978004,359.0992296008168L25.646097551694915,358.71431915391827L26.00706229422731,359.42269099500373L26.382611470801415,359.9285123588067L27.20207435852016,360.1256040186474L27.661484030834117,359.7615439866592L28.118387003547152,359.44394503329585L28.5311948514622,359.5552267555226L29.406146953074025,359.9182398606339L29.901106183364657,359.28138603735783L32.460218594121464,359.0456253123172L33.337905277116114,358.3568056974731L33.74125603108223,358.5786104334948L34.53439857299132,358.9626009379842L35.67733965011962,359.2670594051437L37.36423454064743,359.59464341941606L37.746506229787634,359.9191519128615L41.48319774852181,359.5148141690806L41.83994667808903,360.02367728393926L43.22729096630696,359.65475048340204L44.48838874735133,359.6524767097255L44.96568713954457,359.26692474203077L45.73889002553726,359.5264832671584L48.73815609803733,359.15188312213337L50.926276967858065,358.9925804273655L52.737025606849485,359.2543938166343L53.16191118920533,359.2587264308128L54.23523438196263,358.72740162924134L55.04102436276727,359.06981719463244L55.44255206247818,359.2344314770372L57.873936734479045,359.1183820436401L58.3461077865795,358.8261127618811L61.2912519358779,358.72728596302153L62.02355004201923,359.05860155920294L62.41858311094594,359.2553762751008L63.66783103933141,359.2087281695676L67.0059573215194,359.2640886885652L67.839662820607,359.2677037613197L68.25839559485149,359.30954142127155L69.00949394799972,359.6080734068995L69.9067784642379,359.2002984804145L72.44674880531497,359.42234702418625L72.9018287237728,359.2461648481091L73.3488188389731,359.1234717471372L74.53688050891795,358.9813342206368L74.89784525145033,359.3591739890968L75.34221472615879,359.2514681716113L75.70317946869118,359.6173424003724L76.45473358540319,359.88970941588644L76.90867409495151,359.71695943417393L78.17683621123483,359.9835117590657L78.55238538780893,360.241699278786L78.94502569802567,360.39709811717074L80.55364319647023,360.0988104570698L80.92383715116965,360.37701965371895L81.29756327348854,360.62962781764975L82.42466656677466,360.8648867184568L84.23564308754797,360.72869595762455L84.79383951231634,359.9896202898949L85.67961599856851,359.99176882288026L86.1697897114392,359.6345168155503L86.5307544539716,359.9648772910291L86.91906501033219,360.14331020975055L87.67722769871936,360.34977348417715L88.45658339282339,360.57866576552055L89.46325116437444,360.29930499205426L90.35586410408365,359.81049204131074L91.10855762970519,360.0495048704781L91.54153301531852,359.9945237839728L92.92340814077083,359.1096391256958L93.29895731734494,359.3671098610637L93.82092053879093,358.87927000706696L94.20923109515154,359.0763528314018L95.10651561138972,358.8810002570483L97.05729760535978,359.0949020289114L100.29287708569198,359.2805442677142L100.7094449830084,359.3259777923173L101.09912283006042,359.5029157551111L102.00609232202943,359.5676439117471L102.464134703652,359.4026617595938L103.26753192574665,359.4693024743478L103.68785987246446,359.48978046127456L104.08209535515451,359.6383315267135L104.58127039841033,359.27233644126875L106.61329224762835,359.03243311492537L107.02268186881489,359.11531791742925L107.419082228433,359.2597767337075L109.1382223910999,359.5714040792829L109.49519920244902,359.89280762565636L109.88350975880962,360.05814516368787L110.71938013482529,360.2194340508408L114.0922583887533,359.5546960944725L114.51646032576343,359.5554284557843L116.00737688385573,359.29696413343527L117.12456731962914,359.0059334219698L118.1216640563403,358.84664813558106L119.1564752279562,358.89725849215887L120.24643379079234,358.1517750669003L121.0424248549752,356.43815707429707L122.0503459763267,356.3211729348599L123.20433931987723,356.01732112847463L123.90974737575416,354.7826666556862L125.13267495832996,353.8869342710018L128.3470614329453,353.0354453851938L128.97578726921225,352.2270655493429L129.49752260887635,351.9339174130072L130.2625217507206,350.5212238371427L135.92675132167082,349.22116609924086L137.55040901772088,347.7176274307641L138.28487200079027,346.5425434798271L140.59240292432753,344.7150758856687L143.66880698000136,343.4673666881825L145.1712315680797,342.0055513765976L145.91401223618848,340.92141194683916L148.25732059948433,339.76591964954844L149.57561670778603,338.8510048813346L153.46031744386542,338.0544507543971L154.28798407573262,336.6734881488402L154.88959197995328,336.35241057646215L155.79006684113807,334.6793419272715L159.63648343785798,333.5527245819573L160.38997454971616,332.6083083658795L162.03323007900977,331.3462679611985L164.29415917814813,330.66497238011993L165.12740891367193,329.42394927935277L166.0432657951351,327.8378344330409L167.05449120232421,325.8570020489275L170.11995693246672,324.80908407466865L171.75159049088336,323.48667006710235L172.62198495685715,322.2362953622228L173.18815724399207,322.37921730368333L176.17580134561516,321.98706537454285L179.40237949556223,321.27640836306017L180.13558912883116,320.69150411147336L180.73810856017943,320.70493152772065L181.4960433667847,320.02285606440313L182.27209477505116,319.27407303228176L183.04210731609723,318.5679425372166L188.13720213674782,318.4241308350175L190.4302625671343,316.9056389769295L191.0229830818608,317.04022010796467L197.37609927950007,316.5530557291995L200.53112254993,316.13514593547785L201.2481525766839,315.73227153547174L202.02409004405942,315.07684400444384L202.74658923357893,314.67214225728156L203.4883444336692,314.19116211053375L205.79496383007884,313.47999699142355L209.8885182192712,312.89098979997453L211.3859294081477,312.4436523493904L214.46427045896766,312.1973949829032L214.98555003506794,312.7443783930126L217.4641062359225,312.1498177462503L218.23161207736763,311.61011306501854L219.06144358616288,310.80619593729733L219.938104801139,309.8121521801165L222.37154040917696,309.56051975717435L224.88222794127964,308.7076208347375L225.51539747229367,308.83022403769405L227.90975135473553,307.84873578349806L228.57972379352674,307.8283881995479L231.5114229176929,307.3875474998622L232.4341162526132,306.2647748507496L235.9416726396451,305.2896712806825L236.6528916809605,305.13958025501165L237.49901673716175,304.40045177273026L239.0074801924605,304.1266942021237L239.81930904048554,303.55882788307355L240.61336310952223,303.08072348968614L242.35563327305215,302.0114502842861L243.29496197805122,300.9305009296534L244.0358056510139,300.7400697656744L244.94345878832857,299.82354199480204L248.35279812736087,299.1792766123228L248.97115534255133,299.560902890544L249.81955921657158,298.92844897636724L250.62865348321384,298.48038612259853L251.4813871110902,297.8524602212227L253.17705545022122,296.7936988804575L254.90246236189043,295.8682496539279L256.7042096704967,295.2045737516981L257.47012033946856,295.02184563773454L260.3152243865121,295.0655021057058L261.11281062316823,294.748613164839L263.01995325590417,293.71521690304564L264.59176784657154,293.1340219403025L267.7442844174006,293.1226284201593L268.41676355579267,293.389313301453L271.0352391707349,293.2021222479498L271.93332127320974,292.48522322513554L272.67895046359234,292.44733418924994L273.5475218753109,291.8749747207273L275.2608510525393,291.2826505851136L276.1541476375942,290.62718329137545L277.8288508527903,289.7593341948972L278.6782801948291,289.3251467217704L279.47882889465,289.11170051691374L280.3380571533106,288.6472775013015L282.2094223462879,288.29130532116454L285.04677841274673,286.8287091752874L288.47093006760264,286.2584519872708L292.0445721713861,286.0044037314641L292.7443971236064,286.2953243077172L295.86181990002257,285.8192372380151L298.927399571056,284.002989352706L299.96938901880185,282.85018229894047L300.88137190997276,282.2859053627196L301.91025815525916,281.2254985085953L303.0309807586521,279.7897541469426L304.1101149368479,278.56293091859294L306.99635164552467,277.1380112635467L307.8501107414196,276.94017024671774L308.7296204786695,276.6358429599309L309.6805711545456,276.0279313995057L312.10899336338167,275.92359548708765L318.8051855836741,276.56104057764384L321.4606919881753,276.94099169001146L322.3906775401164,276.418028711761L324.47488431739,275.7637378278143L325.2434156268537,275.96245771106175L326.28973482845566,274.956866294323L327.2033128920998,274.5451252092426L328.18742036724257,273.8363337864161L329.85551501076344,273.0414415408586L330.66381169116903,273.12345962783866L331.58513773539784,272.71537400695524L333.88480673745954,271.523912572564L334.72774144871414,271.4867958656788L337.6507810651681,270.64717642043314L339.66947183014486,270.1414863668597L342.94880461260215,268.77408428753637L343.8279725271792,268.636827098915L349.2285428764691,266.92219114018025L350.13687965912953,266.6962847556938L351.00670442064853,266.64020564308964L354.7330273183062,266.506574077655L357.37258199807434,266.49366018074426L359.24052896432306,265.9322876597426L362.33653085324045,265.50221575972205L365.5580956039857,265.46230040265465L368.79891636530164,265.7397398496478L369.88032936131646,264.79072220227005L370.93166196212024,263.9906038887657L372.62687453768746,263.68820263704015L374.432723718368,263.62382134781643L375.20797754039785,264.03828875394987L376.18786920257537,263.56208620978197L378.0359904537987,263.060120779869L379.8544870733748,262.4209244034014L380.61720739739997,262.91244903056736L381.53101334282604,262.74384883224644L382.4491490421083,262.55900465002014L384.3368077824915,262.33663986427626L385.2353456485302,262.2444480466229L386.2777908598398,261.5335547060773L388.32553655200905,261.0019286764247L390.9689652220695,260.33571072399064L392.8749684458959,260.3504563092528L395.8154410186653,259.8485734599202L396.6933555834418,259.89468608861733L398.71637610227475,259.88098116073877L400.43084468841266,260.3739671476521L402.3562178637007,259.5557450850048L404.44315922235705,259.15435903255997L405.51386177462246,258.3842522345632L408.07912699349066,258.8816282699727L409.7881264168629,259.1923965860456L410.7079712295094,259.0711300489449L414.16334268848584,259.7351520228454L417.84420317065405,259.6893391480993L420.71460209548866,259.37175502671977L421.6483476968312,259.1880670801455L422.6510275371989,258.711868496449L423.4241164823007,259.2318818386143L424.7151807176651,257.51327771268063L425.57475079899854,257.6865797539052L429.19841295390944,258.54086679856323L431.02203691357835,258.5954969510848L432.3483088842466,256.73897353603394L433.4135422737464,256.04141194645376L434.41041112867566,255.65199268085772L435.26063805695117,255.90176757308404L438.051620180793,255.82497104257226L439.71675236114913,256.0398885282182L445.8885886012857,256.18187147413596L448.6620238279211,256.68564963960023L453.36778262419244,255.4110449479518L454.1093099425008,256.13410200961783L455.1127873691052,255.71550747183267L457.934191710831,255.8894447379529L459.6239351236326,255.64043039706263L460.58274772098423,255.42385408093364L461.3143621817798,256.18768369602077L464.06706016626225,257.0870973105985L468.8505266501621,256.49075346791614L470.53343360950663,256.2669714556884L472.57833077940217,256.3847478909157L473.6441338733567,255.6927895792476L475.66168522942394,255.02451021643475L478.5930425309172,253.93462218296665L479.5905950311922,253.58571873650314L481.4413369229074,252.4110647660079L485.2019560287412,252.71184995327678L486.15188123659874,252.59123164074498L488.2743721532318,251.5247572193586L491.14351772826586,251.5689800424653L492.8519474471835,251.30081242297894L495.7813677535306,251.08895810003636L496.7545369031421,250.90094177707638L498.5844276118133,250.87733256651478L500.3681722596493,251.30083705289564L501.32356663027247,251.18498901736984L503.14080990004805,251.539630273584L504.08560776781286,251.4660179043713L506.05815247195443,251.77388246746904L506.91008851359425,252.09320508022208L507.84793598701094,252.0378947751188L512.7604975003583,252.88271128720137L516.4665389194266,253.2052770924902L517.3966384122587,253.16100257880154L518.4941170738975,252.39883544515465L528.3903392165455,252.73694438408407L529.3828783176186,252.43373955125952L531.5087874609802,251.8310967372434L535.8204247154524,252.17663503617018L536.677602038076,252.46629176775653L537.614651925256,252.4074405397964L540.5035092744247,252.31843583330763L541.818045333325,250.63915882489408L544.7537323886745,249.76505862178982L547.5264839699641,250.9958926135444L548.5610672597982,250.54743189743812L550.588987236942,250.08249843570644L551.4580144122244,250.36312086615933L552.8393198332219,248.43725742963437L553.7917517406804,248.3924790617512L554.7674275898928,248.24873905550393L561.3211936964966,247.31685312741362L564.6044004692462,246.49369597445119L566.4617509326365,246.45648984202438L568.5927874160909,245.2824868607674L572.13236119348,246.0115570011046L577.2583339955783,244.9933269687407L578.3026022611432,244.6219918619827L579.2903558447964,244.5008602841573L580.232988835633,244.57597468970891L583.1930592416459,244.41856936508847L591.6104425606424,243.63000853249383L592.6097041742815,243.4797900792432L594.733790263388,243.10744431006788L596.7677491077521,243.2456755751196L599.4258761527453,244.2483799013286L600.3362638714428,244.4675326985341L601.2713767634767,244.57658692980095L605.5676319976707,244.52097759988047L606.6238640567854,244.10824517105996L608.5011541760921,244.28712715417169L609.5046316026965,244.10615611480938L610.5523180949898,243.73892819347282L612.3910961931552,243.04627566026264L613.4837893373741,242.5064697010752L616.5423046731687,242.29066419609148L618.4407877981923,242.40803058131698L623.1588522106864,241.6108818590435L624.0454262831753,241.9845676396908L627.0679362974292,241.92405929565206L630.1345414364813,242.04484203223694L633.5441086572955,241.24911254975976L635.6031344976689,240.92145993150746L638.5060065764245,240.9526876486443L639.3374332576931,241.5763624580579L643.5023146446207,241.06992545414758L644.4750280306683,241.08448106426192L657.4616689585771,240.67009811128315L658.4628675673624,240.57130125763905L659.5964654914327,239.90491663369855L661.4588293540249,240.08957341877144L663.6695105202539,239.95150412177026L665.7205604982607,239.3914786140872L668.8407178560598,238.5745210730855L670.8728536461688,238.03030642530865L672.0487236407818,237.23471777174677L675.3462869657913,236.47462156738513L676.3224185785675,236.56740673959825L678.3522755508575,236.3941179205243L681.2150404359984,237.38488953261518L682.1487860373409,237.6414777427311L684.3225503549018,236.93002125201815L685.2846672380911,237.07436470563616L688.1478878867957,237.54265822297452L692.3046794704658,237.60820307533373L693.3307171934786,237.46302701948542L695.7741795999202,236.41853808897494L697.9210538672168,236.2169216072307L701.8922357395278,235.53985682431878L702.8462628194595,235.7452748681587L704.895717624993,235.2479144576113L705.8813063317182,235.32413462852062L706.7919219321976,235.72174110037952L707.9779326661054,234.92738886061537L710.1619516638518,233.55008077327025L714.5820606465095,232.56433411141577L716.7577619592165,232.27934850245694L717.9059443173286,231.7162995292693L721.3110678433957,232.01189391675658L725.8443201307674,231.12738211241214L729.3431030691962,229.55409667400644L732.6716583165443,227.88899811366326L733.7799613628235,227.5859931992282L737.9063307286098,227.61586280083432L740.155865738653,227.36333334588065L741.2737398197721,227.02975029798952L743.1681210727215,227.42886664411168L745.036409861643,227.84348154192622L746.1976954222145,227.3143886941222L749.541632689841,227.36534601199136L754.7569351504447,226.50140229491998L756.7068056172872,226.54709519425154L757.8502024579793,226.1202588645548L759.6933103100008,226.61779259792098L760.6634030555566,226.93316598973635L764.7560459176212,225.80587013033468L768.772120500967,225.38799383345585L770.8959787082915,225.34832822403905L772.9900983430778,224.9787434531332L773.8258547782024,225.90417588654196L774.7868322524822,226.2729560529943L776.8697856799553,225.19410548062822L777.8896705948566,225.3246517699297L781.0048145534538,225.5406451660535L781.9710333087172,225.89516808908536L782.8980563974936,226.41088814165096L784.9837444063495,226.81844944355L789.8033301526808,227.76968720910938L791.9339108725713,228.17942087911416L793.8719314867549,228.79033954911597L795.0492827129503,228.17188916665052L796.196097780371,227.69691743067256L801.2227141255602,227.60520003878267L804.8856858878491,228.03387452114075L806.7956770428588,228.07435169023563L807.8707093489803,227.91051063522676L814.6861976820983,227.83800337644593L815.6897890495936,227.98610882289225L816.809258303186,227.63226683646525L818.0434660339661,226.79434591454537L818.9999998134987,227.16487550453976L822.9089699593505,227.15228888548214L825.1594164965214,227.16539232449L826.3671899406008,226.45030828669587L833.1724235935332,226.25437868611382L834.525243791793,224.93330434103777L837.596748389156,224.73053854983831L839.7497754645639,224.2500525951344L840.8755114671585,223.94550350422185L842.0505838755349,223.43375792969607L843.9330013349344,224.37047475465465L847.0386881995827,224.78556559822334L848.4160056893969,223.3901725158129L849.5679480969103,222.98933162254437L851.7043398022394,223.74512718892544L852.8736012251774,223.26283089115668L854.0442299388067,222.7843113103467L855.3061253060877,221.9240122515289L856.4539658415268,221.57010909587345L857.5198828763724,221.57549980300058L860.5267829885662,221.32444864897911L861.5156759811289,221.66544293779637L863.5028051193123,222.1483292565747L864.4003175173323,222.86419300789453L865.7458454985714,221.6422619974668L869.0811232584855,220.10821275277976L870.2029852707878,219.90216398124238L871.0353234791842,220.94276353361258L875.470928423011,220.03125313241483L883.5128765063243,219.25537840312154L885.6096167816024,218.9842050532501L887.9462026323321,219.24872911272794L889.1274278488198,218.80549719949028L890.1904963613916,218.87792256553985L893.3891589930558,218.55951120519072L895.2682721666177,218.94797526920075L897.4075123942205,218.29747739306617L898.3589188336604,218.8594596529999L900.5159338402515,219.02277122909496L906.1947478452435,217.92269056874554L908.4059987159272,218.079300624599L909.4576731394039,218.2151678418657L912.7488557745202,217.7965244403205L913.9342968039731,217.36473061013552L916.4240192121408,216.8065601633776L917.4034551107547,217.27899941052988L918.4199217989274,217.58153923164593L919.590322630775,217.21861762130425L920.6176137035881,217.47736052070212L922.78909920333,217.87181101589616L923.9450295420266,217.56374224699994L925.0051355914337,217.6746994446133L928.0823372333442,217.87540235504153L931.2828229192635,217.74923540579286L935.0285157683828,217.4612291620161L936.3528507439049,216.4393512745576L938.8854149270701,215.67075896034032L941.3996346267922,215.01146066977853L942.508849200199,214.96214115851893L943.4000948492169,215.84910819833945L944.703350759913,214.94948380215413L952.8103590919593,214.40049050666846L955.2470989858349,213.57288711206724L957.2902870423661,214.18826447168942L959.675525653532,213.17119402937158L961.1551620634201,211.5678920198485L968.6930356451667,210.98282854529293L969.6943481948431,211.47781852061388L972.0254648828071,210.93369075709887L973.3197194631182,210.17151362354707L974.6590946362458,209.23086869186025L979.390718014763,208.92539317250686L981.5374783411687,208.92148673702954L984.0020198124362,209.4126994329645L986.5122515809752,208.6222435116091L988.0135367601439,207.0179638731563L989.3594065640558,206.11299937610713L992.8164871363965,206.66038205460686L993.9572633365966,206.64307613723304L995.0970140687783,206.63002970876812L997.301542426896,206.91074611981227L998.2335789148742,207.78459173990424L1001.294031245815,207.68414430303358L1006.0845620649537,207.08675307513866L1007.3978447740536,206.31933903559857L1008.4171599845002,206.82933006721956L1011.3270963984947,205.9320543295976L1016.1593295837217,205.94301192889552L1017.40413381736,205.49197507266126L1018.4200308010782,206.034166450943L1021.9903686190241,206.40115311768537L1028.0552143625575,206.31859165622274L1030.4102586376214,206.1378911370164L1035.9447095337787,205.98428478330527L1039.7278889360207,205.65765013286602L1041.2001191879972,204.23594214751014L1046.3501335180858,205.59570543357955L1049.0439240619467,204.8678984597583L1050.2172873569589,204.74556240426088L1051.2163210888164,205.3750777437412L1052.5699388733128,204.46971354504305L1054.1778727264116,202.49063554819452L1055.6807530780538,201.0011737161103L1056.9608789878869,200.49831257699535L1060.5783883346865,201.0836329828596L1061.6633334983208,201.4165766326372L1062.8270118176022,201.40435782875196L1064.390964486794,199.67442972347413L1066.6706938329392,199.30963414622497L1069.1127889486895,198.8601712826493L1070.3356025903743,198.64667108814578L1073.7406121755505,198.3924376542229L1074.7687008346002,199.02378841545374L1082.4096909226573,199.0887757341526L1087.1987405102138,198.48915390961645L1092.8888346634099,198.65875387514512L1094.1933439239067,198.09708269206516L1095.2652998259725,198.54650037898878L1100.0839740451763,198.90474971139156L1103.9506721204855,198.21488902139265L1110.2585537844172,198.41345415897763L1113.7010499227163,199.15004356189553L1117.2124803000404,199.5647049528247L1119.6344078780924,198.83033884101587L1121.0264237428394,197.88955741200968L1124.6532762426968,196.54690953222342L1129.7182906681364,196.46772510102184L1134.964812932861,195.29439397496446L1140.7228158570636,196.5903562473754L1146.1090296540935,196.91533172824384L1148.5892949683125,196.52940975194983L1152.1725081069358,196.45448868420374L1153.4813471212888,195.91929421211984L1155.7384022301346,196.10507137136864L1164.8809053791424,194.80985469466643L1176.6067903486796,194.78889152564992L1178.0678543933427,193.633485084116L1180.6116987247121,192.41509397994977L1182.1566232651153,190.94713864079398L1185.8922893158308,189.83921804800406L1187.269948628318,189.14087451236756L1190.0078342969766,188.23735220206538L1194.8691224093961,187.94672467029162L1197.3523501867796,188.05715471652329L1202.387739980572,187.247703473828L1203.3990793286519,188.1743437552707L1204.7655724338258,187.5562579788412L1205.9310738073625,187.81342004792208L1207.2907304590792,187.23190273214723L1212.4574941001379,187.92014654096258L1213.751634739558,187.61825341556852L1216.386973606361,186.65909144382994L1218.0008323857894,185.01080303189164L1223.2478104140775,185.52432322576388L1229.0684808283033,185.84756053197742L1230.4949068421174,185.0196889699685L1235.7067910759927,184.7347155230581L1239.5199369325549,184.1404199185011L1245.0868609826332,182.6364252451728L1253.3462082858805,183.1524298491023L1269.5911029314207,182.82653552948486L1271.1857057002783,181.3370789588018L1276.2763568261819,181.20206759895493L1289.5331516065348,182.1909201328666L1290.6039680996914,182.96237330347915L1295.8370453392836,183.60295466019338L1298.368811936212,183.03325129921134L1299.6838037586763,182.73909051171853L1300.9755516393864,182.55060237814118L1302.1400275449043,182.9137474157311L1305.7473961524092,182.89982174727368L1308.1833384600484,182.71985893796108L1309.6635445743912,181.72365709155503L1312.3654249215094,181.549607754694L1314.8562867385865,182.30649365229084L1316.2179943263407,181.82728941284344L1318.7753976237332,182.2009873136684L1320.10748057984,181.851075772663L1321.5190942778304,181.16574801397437L1322.902450634865,180.61543941924563L1324.3350294567904,179.86481840865525L1325.2720793439705,181.25804934294257L1326.8107371353713,180.04063247633084L1327.9684905283232,180.48136993698657L1330.8927834945775,179.61211790716192L1340.5022164147022,179.7718409053836L1344.7319301685807,179.7679238407437L1345.8606286343402,180.33934124285904L1348.6859069663583,180.0012263383544L1356.0847726611448,180.17860362648898L1357.3925862074789,179.97284261916755L1362.5603753165562,179.32507990970691L1365.3088574880735,179.635335973193L1366.7804040947042,178.73800189115948L1370.8341931129546,179.1089158395275L1371.7028784655643,180.81076212859094L1376.4395152432833,181.5198114587684L1377.655834254184,181.68051352818284L1378.9505445980587,181.50145726284333L1381.4792347909315,181.77209896242888L1390.7776090787602,181.00225853012992L1392.0117028686493,181.09700220034284L1393.434368833062,180.37979681290616L1396.1411486384911,180.02521972453107L1398.7720438105468,180.1590707125618L1400.2815327338642,179.08886006329422L1409.020571188015,178.49008373295865L1415.7463880399546,178.28678682121668L1424.407490924695,177.0427035162325L1428.7643627128748,175.75306245072937L1430.171874538791,175.2073056335625L1434.0847186749354,176.10669003426935L1443.5455726732598,175.48146455180517L1447.8778332289944,173.95498706843478L1449.395639837351,172.9716820391075L1450.900912947703,172.06282940610964L1456.4986010383382,172.43419439760814L1463.2843507989178,171.51065508724028L1466.0344281429084,171.25715168697482L1467.192865181206,171.87160184509025L1468.704860804124,170.95540114296745L1471.3163860247184,171.00063066169037L1473.7747746878747,171.11148174904272L1475.0438483312855,171.25337889063803L1476.4535250341298,170.78978935642334L1478.0734226807785,169.43149855011035L1482.5763666911575,168.4819206750324L1485.3827308352777,167.07195473958888L1488.0048525587301,168.21426871877225L1489.3205280265402,168.21453169083077L1490.5630534423594,168.52785364877644L1494.3998990042394,168.71751006830397L1501.4164930098857,169.08925524448753L1507.8482284222812,170.3731916885996L1508.9916252629732,171.06989041068493L1510.0725824954243,172.02071638145355L1515.5697747202405,171.08979370192958L1516.9877691081242,170.59229958515894L1518.3159780739386,170.490215673628L1528.1455447953804,169.10074023700625L1529.6872789908366,168.11277473576104L1532.2089048484706,169.0894799121202L1533.3530992753995,169.80793951261734L1536.24697002377,169.64132011776462L1543.9613380455994,169.90262642173374L1546.9231175649766,168.88101338373008L1549.6980340231944,168.68401624798827L1550.9360018033758,169.0075149555012L1556.252369834253,170.08176765914854L1561.7322430436445,169.3344162907311L1563.2568861054585,168.41417346207655L1564.4556582191526,168.9113410048925L1568.542376154888,169.1305039968918L1569.7486683673849,169.5820384970838L1576.3845858563643,169.73495795250957L1577.79084433248,169.3154335828391L1580.7031735051846,168.2762147507622L1583.3847723737138,168.50025365965533L1584.7702936076762,168.1954293391818L1586.0914382382518,168.17258928800683L1587.6233735170863,167.24427667537321L1590.6015605247605,166.67498758193227L1593.658138865409,165.72379745595856L1599.1468994642948,164.91098684837203L1601.8566417328889,164.78752035103085L1604.7387765694914,164.5295576281735L1609.2294149636475,164.09282898785395L1610.4418599842559,164.6177238611578L1616.4150972514649,163.60201992247758L1620.9624782093144,162.75729218483963L1623.6305181118205,162.45775471564784L1625.234577974627,161.33458808665043L1627.8469007814579,161.02828499895907L1631.8807501437918,160.9863858709892L1633.1874242812166,161.17033955680552L1634.6857469972206,160.52686422610918L1635.891355564372,161.15242814533295L1642.7232513857869,161.4876363842844L1643.9224792630448,162.121377957227L1645.4956611444038,161.1379911619681L1647.8624413312355,162.8724933396839L1650.920614844357,162.36911685157904L1652.1717997678886,162.76217062711783L1655.045047214997,163.6208727697402L1657.6417601197677,163.6269110567001L1662.2609238389166,163.34911424284905L1664.9082264992692,163.42515717059504L1666.2692504416775,163.32553733854232L1667.6038400973853,163.34139563645084L1669.0742472951065,162.77385490429413L1676.6727374308389,163.37013216073646L1678.0264691562263,163.30291923940848L1682.2313437958776,163.49337179584415L1683.8645725267675,162.22426731498766L1685.3500199220941,161.61449969883222L1686.6181820383774,161.95024972889686L1693.8620881214708,161.12290431400595L1705.5780602334953,161.2043384353751L1707.1428104889235,160.2745122265729L1713.0913225827965,159.62156041095128L1715.9853072720578,160.02456233401256L1720.394477929184,159.26508044562732L1721.9845230624037,158.26642364152215L1723.4744141524775,157.71820307797833L1724.8976498213449,157.46661789326131L1726.8704224072685,159.25302421252107L1728.3731888180196,158.62832877747098L1732.5168771992303,158.8985765941799L1739.7933703771355,159.2377721686409L1741.318811025186,158.51750591024233L1744.2390021193662,158.2205849152054L1748.2489238946005,159.49687930927968L1758.2078135272714,158.2861816166032" style="fill: none;" fill="none"></path></g></g></g></g><g opacity="0.2"><g><g><g><path stroke="rgb(255, 112, 67)" stroke-width="2px" d="M1.3723580253009076,364.57725701175775L1.7606685816615135,367.3165671819584L4.197522416428027,375.9258277168747L5.785744495392372,364.08809448136475L6.190804362722758,363.6967644570504L7.431962487850717,365.45774956646505L7.847618858039534,361.4466168172427L8.263730991792155,361.34878431116414L9.036592055111987,359.4899666956708L9.509788575231001,349.02188854526116L10.69021620548214,358.12031161057047L11.164096370946858,348.9240560391826L13.766962083828806,362.62060689018585L15.001169814608762,359.7834642139066L15.528830080602296,337.3798203219084L15.943233100990653,361.6422818293999L16.80177771430555,361.7401143354785L19.769937923576027,362.62060689018585L20.197102323750883,358.90297165919924L20.593730565150903,365.45774956646505L21.501839466029434,335.0318401760221L22.686141086572903,367.2187346758798L23.951226798800548,362.22927686587144L25.18418117978004,354.50050888566244L25.646097551694915,351.46770119722606L26.00706229422731,373.18651754667405L26.382611470801415,370.0558773521591L27.20207435852016,364.18592698744334L27.661484030834117,352.05469623369765L28.118387003547152,352.5438587640906L28.5311948514622,362.03361185371426L29.406146953074025,368.1970597366657L29.901106183364657,344.42376075956724L32.460218594121464,353.4243513187979L33.337905277116114,341.58661808328793L33.74125603108223,364.08809448136475L34.53439857299132,368.6862222670587L35.67733965011962,367.1209021698012L37.36423454064743,368.1970597366657L37.746506229787634,368.58838976098014L41.48319774852181,348.53272601486816L41.83994667808903,374.0670101013814L43.22729096630696,349.315386063497L44.48838874735133,359.5877992017494L44.96568713954457,348.1413959905538L45.73889002553726,367.1209021698012L48.73815609803733,348.0435634844752L50.926276967858065,354.20701136742673L52.737025606849485,367.2187346758798L53.16191118920533,359.3921341895922L54.23523438196263,342.1736131197595L55.04102436276727,369.86021234000185L55.44255206247818,364.47942450567916L57.873936734479045,355.38100144036986L58.3461077865795,349.315386063497L61.2912519358779,355.47883394644845L62.02355004201923,370.0558773521591L62.41858311094594,365.84907959077947L63.66783103933141,357.6311490801775L67.0059573215194,361.1531192990069L67.839662820607,359.3921341895922L68.25839559485149,360.76178927469255L69.00949394799972,370.0558773521591L69.9067784642379,344.8150907838816L72.44674880531497,367.3165671819584L72.9018287237728,352.93518878840496L73.3488188389731,354.6961738978197L74.53688050891795,353.8156813431123L74.89784525145033,373.18651754667405L75.34221472615879,355.28316893429127L75.70317946869118,373.18651754667405L76.45473358540319,370.0558773521591L76.90867409495151,353.2286863066407L78.17683621123483,370.0558773521591L78.55238538780893,370.0558773521591L78.94502569802567,366.33824212117247L80.55364319647023,348.63055852094675L80.92383715116965,371.1320349190236L81.29756327348854,370.4472073764734L82.42466656677466,370.0558773521591L84.23564308754797,355.38100144036986L84.79383951231634,330.82504241464255L85.67961599856851,360.07696173214237L86.1697897114392,345.40208582035314L86.5307544539716,373.18651754667405L86.91906501033219,367.3165671819584L87.67722769871936,368.6862222670587L88.45658339282339,369.86021234000185L89.46325116437444,348.9240560391826L90.35586410408365,339.82563297387327L91.10855762970519,369.86021234000185L91.54153301531852,357.7289815862561L92.92340814077083,322.50927939796196L93.29895731734494,370.0558773521591L93.82092053879093,338.55381039485155L94.20923109515154,367.3165671819584L95.10651561138972,350.6850411485973L97.05729760535978,368.09922723058713L100.29287708569198,367.1209021698012L100.7094449830084,361.25095180508555L101.09912283006042,367.0230696637226L102.00609232202943,362.3271093719501L102.464134703652,352.34819375193337L103.26753192574665,362.3271093719501L103.68785987246446,360.3704592503782L104.08209535515451,366.04474460293665L104.58127039841033,343.4454356987813L106.61329224762835,348.63055852094675L107.02268186881489,362.71843939626444L107.419082228433,365.5555820725437L109.1382223910999,373.18651754667405L109.49519920244902,373.9691775953028L109.88350975880962,367.3165671819584L110.71938013482529,367.3165671819584L114.0922583887533,330.23804737817096L114.51646032576343,359.5877992017494L116.00737688385573,347.84789847231804L117.12456731962914,346.0869133629034L118.1216640563403,351.76119871546183L119.1564752279562,361.1531192990069L120.24643379079234,324.8572595438483L121.0424248549752,279.75647424161605L122.0503459763267,351.07637117291165L123.20433931987723,342.3692781319167L123.90974737575416,299.22514295125643L125.13267495832996,313.5086888387313L128.3470614329453,314.58484640559584L128.97578726921225,315.6610039724604L129.49752260887635,338.65164290093014L130.2625217507206,286.4090846549605L135.92675132167082,290.1267198859471L137.55040901772088,279.2673117112231L138.28487200079027,292.9638625622263L140.59240292432753,261.26613059276167L143.66880698000136,286.4090846549605L145.1712315680797,275.0605139498435L145.91401223618848,291.20287745281166L148.25732059948433,286.70258217319633L149.57561670778603,296.77933029929153L153.46031744386542,301.3774580849855L154.28798407573262,273.00603132219305L154.88959197995328,321.53095433717607L155.79006684113807,257.3528303496179L159.63648343785798,281.4196268449522L160.38997454971616,288.8548973069254L162.03323007900977,272.8103663100358L164.29415917814813,299.02947793909925L165.12740891367193,271.7342087431713L166.0432657951351,254.02652514294564L167.05449120232421,233.57953137251934L170.11995693246672,275.94100650455084L171.75159049088336,261.7552931231547L172.62198495685715,263.8097757508051L173.18815724399207,329.06405730522783L176.17580134561516,303.6276057247932L179.40237949556223,287.97440475221805L180.13558912883116,293.25736008046215L180.73810856017943,321.33528932501883L181.4960433667847,287.97440475221805L182.27209477505116,284.06110450907426L183.04210731609723,285.33292708809597L188.13720213674782,311.64987122323794L190.4302625671343,245.3194321019507L191.0229830818608,323.3897719526693L197.37609927950007,293.5508575986979L200.53112254993,296.3880002749772L201.2481525766839,296.681497793213L202.02409004405942,284.06110450907426L202.74658923357893,295.5075077202698L203.4883444336692,291.39854246496884L205.79496383007884,279.75647424161605L209.8885182192712,284.94159706378156L211.3859294081477,291.20287745281166L214.46427045896766,300.49696553027815L214.98555003506794,338.7494754070087L217.4641062359225,283.865439496917L218.23161207736763,285.9199221245675L219.06144358616288,272.51686879180005L219.938104801139,262.4401206657048L222.37154040917696,297.56199034792036L224.88222794127964,268.01657351218466L225.51539747229367,314.6826789116744L227.90975135473553,260.97263307452585L228.57972379352674,306.85607842538684L231.5114229176929,286.3112521488819L232.4341162526132,252.55903755176672L235.9416726396451,258.6246529286396L236.6528916809605,297.9533203722347L237.49901673716175,268.99489857297067L239.0074801924605,291.0072124406545L239.81930904048554,276.33233652886526L240.61336310952223,280.14780426593046L242.35563327305215,250.70021993627344L243.29496197805122,249.0370673329373L244.0358056510139,291.5942074771261L244.94345878832857,255.7875102523604L248.35279812736087,268.2122385243419L248.97115534255133,317.91115161226804L249.81955921657158,268.50573604257767L250.62865348321384,276.91933156533685L251.4813871110902,267.6252434878703L253.17705545022122,245.8085946323437L254.90246236189043,251.28721497274498L256.7042096704967,263.22278071433357L257.47012033946856,286.21341964280333L260.3152243865121,297.17066032360594L261.11281062316823,279.4629767233803L263.01995325590417,243.85194451077183L264.59176784657154,265.0815983298268L267.7442844174006,292.57253253791197L268.41676355579267,306.26908338891525L271.0352391707349,284.15893701515284L271.93332127320974,257.8419928800108L272.67895046359234,290.61588241634007L273.5475218753109,264.20110577511946L275.2608510525393,262.635785677862L276.1541476375942,258.9181504468754L277.8288508527903,247.76524475391557L278.6782801948291,268.3100710304205L279.47882889465,278.77814918083016L280.3380571533106,266.1577558966914L282.2094223462879,271.0493812006211L285.04677841274673,215.9696802783723L288.47093006760264,258.6246529286396L292.0445721713861,273.69085886474323L292.7443971236064,300.39913302419956L295.86181990002257,262.73361818394056L298.927399571056,195.91401653226035L299.96938901880185,226.92692095917488L300.88137190997276,254.907017697653L301.91025815525916,229.76406363545414L303.0309807586521,210.09972991365657L304.1101149368479,219.00248796680873L306.99635164552467,207.9474147799275L307.8501107414196,267.33174596963454L308.7296204786695,261.8531256292332L309.6805711545456,246.49342217489385L312.10899336338167,270.853716188464L318.8051855836741,307.540905967937L321.4606919881753,295.4096752141913L322.3906775401164,250.99371745450918L324.47488431739,243.94977701685036L325.2434156268537,285.6264246063318L326.28973482845566,226.04642840446755L327.2033128920998,254.51568767333865L328.18742036724257,239.35164923115644L329.85551501076344,234.36219142114808L330.66381169116903,277.114996577494L331.58513773539784,252.85253507000252L333.88480673745954,213.5238676264074L334.72774144871414,269.6797261155208L337.6507810651681,229.76406363545414L339.66947183014486,245.5150971141079L342.94880461260215,202.17529692129042L343.8279725271792,261.95095813531185L349.2285428764691,183.3914557542002L350.13687965912953,255.68967774628175L351.00670442064853,263.90760825688375L354.7330273183062,259.99430801373995L357.37258199807434,265.8642583784556L359.24052896432306,238.56898918252767L362.33653085324045,244.53677205332195L365.5580956039857,263.51627823256933L368.79891636530164,279.2673117112231L369.88032936131646,218.51332543641578L370.93166196212024,224.970270837603L372.62687453768746,248.93923482685872L374.432723718368,260.4834705441329L375.20797754039785,284.25676952123143L376.18786920257537,240.32997429194236L378.0359904537987,238.56898918252767L379.8544870733748,231.23155122663303L380.61720739739997,286.8982471853535L381.53101334282604,254.51568767333865L382.4491490421083,253.53736261255267L384.3368077824915,251.48287998490218L385.2353456485302,257.74416037393223L386.2777908598398,226.82908845309632L388.32553655200905,235.04701896369824L390.9689652220695,227.8074135138822L392.8749684458959,261.0704655806045L395.8154410186653,235.34051648193406L396.6933555834418,262.14662314746903L398.71637610227475,259.2116479651112L400.43084468841266,284.4524345333886L402.3562178637007,219.58948300328032L404.44315922235705,239.54731424331362L405.51386177462246,220.7634730762234L408.07912699349066,283.1806119543669L409.7881264168629,274.37568640729336L410.7079712295094,253.14603258823826L414.16334268848584,292.1812025135976L417.84420317065405,257.45066285569646L420.71460209548866,243.85194451077183L421.6483476968312,250.21105740588044L422.6510275371989,235.43834898801262L423.4241164823007,284.6480995455458L424.7151807176651,173.51037264026218L425.57475079899854,266.1577558966914L429.19841295390944,300.30130051812097L431.02203691357835,261.26613059276167L432.3483088842466,165.97726967221035L433.4135422737464,221.93746314916658L434.41041112867566,236.6123390609558L435.26063805695117,268.1144060182633L438.051620180793,252.06987502137372L439.71675236114913,266.54908592100577L445.8885886012857,263.1249482082549L448.6620238279211,281.3217943388736L453.36778262419244,193.0768738559811L454.1093099425008,291.49637497104743L455.1127873691052,235.24268397585544L457.934191710831,264.3967707872767L459.6239351236326,243.46061448645742L460.58274772098423,244.83026957155772L461.3143621817798,293.5508575986979L464.06706016626225,301.08396056674974L468.8505266501621,227.31825098348926L470.53343360950663,245.3194321019507L472.57833077940217,262.14662314746903L473.6441338733567,221.83963064308793L475.66168522942394,222.32879317348093L478.5930425309172,200.60997682403288L479.5905950311922,236.51450655487716L481.4413369229074,194.9356914714744L485.2019560287412,267.4295784757131L486.15188123659874,246.68908718705103L488.2743721532318,199.33815424501117L491.14351772826586,253.73302762470985L492.8519474471835,238.1776591582133L495.7813677535306,240.72130431625675L496.7545369031421,241.6996293770427L498.5844276118133,249.72189487548746L500.3681722596493,272.0277062614071L501.32356663027247,245.5150971141079L503.14080990004805,268.897066066892L504.08560776781286,247.86307725999418L506.05815247195443,266.84258343924154L506.91008851359425,267.72307599394895L507.84793598701094,249.33056485117308L512.7604975003583,294.2356851412481L516.4665389194266,268.99489857297067L517.3966384122587,250.99371745450918L518.4941170738975,215.0891877236649L528.3903392165455,269.28839609120644L529.3828783176186,237.5906641217417L531.5087874609802,222.32879317348093L535.8204247154524,269.0927310790492L536.677602038076,266.6469184270844L537.614651925256,249.52622986333026L540.5035092744247,247.96090976607277L541.818045333325,168.42308232417523L544.7537323886745,206.96908971914158L547.5264839699641,311.2585411989236L548.5610672597982,228.590073562511L550.588987236942,227.31825098348926L551.4580144122244,264.1032732690409L552.8393198332219,154.13953643670038L553.7917517406804,246.19992465665808L554.7674275898928,241.21046684664972L561.3211936964966,201.68613439089748L564.6044004692462,206.1864296705128L566.4617509326365,244.63460455940051L568.5927874160909,187.793918527737L572.13236119348,281.71312436318794L577.2583339955783,195.1313564836316L578.3026022611432,226.43775842878193L579.2903558447964,238.56898918252767L580.232988835633,248.25440728430854L583.1930592416459,236.71017156703437L591.6104425606424,205.01243959756965L592.6097041742815,236.12317653056277L594.733790263388,224.8724383315244L596.7677491077521,250.01539239372326L599.4258761527453,293.35519258654074L600.3362638714428,255.2005152158888L601.2713767634767,249.91755988764464L605.5676319976707,241.7974618831213L606.6238640567854,223.89411327073847L608.5011541760921,253.04820008215972L609.5046316026965,235.24268397585544L610.5523180949898,225.75293088623178L612.3910961931552,209.12140485287065L613.4837893373741,216.06751278445086L616.5423046731687,231.72071375702606L618.4407877981923,248.15657477822998L623.1588522106864,202.5666269456048L624.0454262831753,260.2878055319757L627.0679362974292,238.9603192068421L630.1345414364813,247.96090976607277L633.5441086572955,202.273129427369L635.6031344976689,224.8724383315244L638.5060065764245,242.48228942567144L639.3374332576931,272.1255387674857L643.5023146446207,216.26317779660806L644.4750280306683,241.7974618831213L657.4616689585771,220.37214305190906L658.4628675673624,235.73184650624842L659.5964654914327,207.26258723737735L661.4588293540249,249.1348998390159L663.6695105202539,233.18820134820496L665.7205604982607,211.9585475291499L668.8407178560598,198.55549419638243L670.8728536461688,211.37155249267832L672.0487236407818,198.26199667814663L675.3462869657913,199.24032173893255L676.3224185785675,241.11263434057116L678.3522755508575,227.90524601996086L681.2150404359984,285.9199221245675L682.1487860373409,250.21105740588044L684.3225503549018,202.07746441521184L685.2846672380911,244.14544202900757L688.1478878867957,260.4834705441329L692.3046794704658,240.81913682233537L693.3307171934786,230.3510586719257L695.7741795999202,185.25027336969353L697.9210538672168,226.33992592270334L701.8922357395278,202.37096193344763L702.8462628194595,245.8085946323437L704.895717624993,210.88238996228537L705.8813063317182,239.05815171292065L706.7919219321976,255.2005152158888L707.9779326661054,196.01184903833894L710.1619516638518,166.07510217828894L714.5820606465095,184.27194830890758L716.7577619592165,218.31766042425858L717.9059443173286,204.1319470428623L721.3110678433957,246.49342217489385L725.8443201307674,187.793918527737L729.3431030691962,152.4763838333643L732.6716583165443,146.31293595041282L733.7799613628235,212.74120757777865L737.9063307286098,229.07923609290395L740.155865738653,214.99135521758632L741.2737398197721,210.68672495012817L743.1681210727215,246.9825847052868L745.036409861643,248.15657477822998L746.1976954222145,201.39263687266163L749.541632689841,229.86189614153275L754.7569351504447,184.174115802829L756.7068056172872,228.78573857466822L757.8502024579793,205.20810460972683L759.6933103100008,250.99371745450918L760.6634030555566,242.38445691959288L764.7560459176212,170.57539745790433L768.772120500967,204.9146070914911L770.8959787082915,223.40495074034547L772.9900983430778,206.87125721306296L773.8258547782024,271.2450462127783L774.7868322524822,244.34110704116478L776.8697856799553,172.33638256731902L777.8896705948566,231.72071375702606L781.0048145534538,236.12317653056277L781.9710333087172,243.26494947430024L782.8980563974936,251.6785449970594L784.9837444063495,246.78691969312965L789.8033301526808,274.37568640729336L791.9339108725713,248.25440728430854L793.8719314867549,258.7224854347182L795.0492827129503,197.87066665383227L796.196097780371,204.4254445610981L801.2227141255602,223.11145322210967L804.8856858878491,249.0370673329373L806.7956770428588,230.05756115368993L807.8707093489803,219.88298052151606L814.6861976820983,224.28544329505286L815.6897890495936,235.24268397585544L816.809258303186,210.29539492581378L818.0434660339661,185.73943590008648L818.9999998134987,245.3194321019507L822.9089699593505,226.5355909348605L825.1594164965214,227.8074135138822L826.3671899406008,191.413721252645L833.1724235935332,216.65450782092245L834.525243791793,160.20515181357328L837.596748389156,214.79569020542914L839.7497754645639,200.7078093301115L840.8755114671585,209.02357234679204L842.0505838755349,198.35982918422522L843.9330013349344,270.2667211519924L847.0386881995827,245.12376708979352L848.4160056893969,155.02002899140774L849.5679480969103,203.34928699423355L851.7043398022394,260.77696806236867L852.8736012251774,199.63165176324696L854.0442299388067,199.33815424501117L855.3061253060877,179.7716530292922L856.4539658415268,204.2297795489409L857.5198828763724,221.83963064308793L860.5267829885662,209.02357234679204L861.5156759811289,238.3733241703705L863.5028051193123,245.8085946323437L864.4003175173323,257.93982538608947L865.7458454985714,161.7704719108308L869.0811232584855,144.94328086531252L870.2029852707878,209.80623239542084L871.0353234791842,271.9298737553285L875.470928423011,175.36919025575548L883.5128765063243,181.23914062047112L885.6096167816024,205.69726714011983L887.9462026323321,232.209876287419L889.1274278488198,197.08800660520347L890.1904963613916,222.42662567955952L893.3891589930558,202.95795696991917L895.2682721666177,237.9819941460561L897.4075123942205,186.42426344263666L898.3589188336604,246.39558966881523L900.5159338402515,227.02475346525347L906.1947478452435,164.0206195506385L908.4059987159272,225.75293088623178L909.4576731394039,224.8724383315244L912.7488557745202,197.28367161736068L913.9342968039731,196.20751405049614L916.4240192121408,189.4570711310731L917.4034551107547,240.42780679802098L918.4199217989274,232.4055412995762L919.590322630775,199.43598675108976L920.6176137035881,230.1553936597685L922.78909920333,237.19933409742734L923.9450295420266,202.46879443952616L925.0051355914337,223.11145322210967L928.0823372333442,227.70958100780368L931.2828229192635,211.56721750483553L935.0285157683828,203.34928699423355L936.3528507439049,166.36859969652474L938.8854149270701,178.0106679198775L941.3996346267922,182.70662821165007L942.508849200199,212.54554256562145L943.4000948492169,259.3094804711898L944.703350759913,170.8688949761401L952.8103590919593,187.5004210095012L955.2470989858349,173.0212101098692L957.2902870423661,244.34110704116478L959.675525653532,163.33579200808833L961.1551620634201,133.00771512372395L968.6930356451667,182.31529818733566L969.6943481948431,235.73184650624842L972.0254648828071,184.27194830890758L973.3197194631182,172.82554509771202L974.6590946362458,163.14012699593113L979.390718014763,193.95736641068842L981.5374783411687,208.7300748285563L984.0020198124362,233.48169886644075L986.5122515809752,169.89056991535415L988.0135367601439,128.40958733803L989.3594065640558,161.7704719108308L992.8164871363965,233.48169886644075L993.9572633365966,205.79509964619842L995.0970140687783,205.99076465835563L997.301542426896,220.66564057014486L998.2335789148742,250.6023874301948L1001.294031245815,202.76229195776202L1006.0845620649537,177.81500290772033L1007.3978447740536,168.71657984241102L1008.4171599845002,231.81854626310462L1011.3270963984947,161.966136922988L1016.1593295837217,206.47992718874858L1017.40413381736,183.3914557542002L1018.4200308010782,232.60120631173342L1021.9903686190241,224.38327580113142L1028.0552143625575,202.273129427369L1030.4102586376214,197.28367161736068L1035.9447095337787,198.4576616903038L1039.7278889360207,189.65273614323027L1041.2001191879972,134.57303522098144L1046.3501335180858,272.2233712735643L1049.0439240619467,169.20574237280402L1050.2172873569589,198.7511592085396L1051.2163210888164,236.22100903664142L1052.5699388733128,160.10731930749466L1054.1778727264116,105.51678091563882L1055.6807530780538,128.0182573137156L1056.9608789878869,175.85835278614843L1060.5783883346865,229.76406363545414L1061.6633334983208,217.73066538778698L1062.8270118176022,200.8056418361901L1064.390964486794,114.9087014991839L1066.6706938329392,181.43480563262833L1069.1127889486895,176.83667784693438L1070.3356025903743,188.18524855205135L1073.7406121755505,185.93510091224368L1074.7687008346002,229.95972864761134L1082.4096909226573,202.273129427369L1087.1987405102138,169.1079098667254L1092.8888346634099,206.96908971914158L1094.1933439239067,170.57539745790433L1095.2652998259725,220.5678080640662L1100.0839740451763,216.45884280876524L1103.9506721204855,164.41194957495287L1110.2585537844172,208.1430797920847L1113.7010499227163,235.24268397585544L1117.2124803000404,219.88298052151606L1119.6344078780924,162.84662947769533L1121.0264237428394,151.79155629081413L1124.6532762426968,130.75756748391626L1129.7182906681364,192.58771132558815L1134.964812932861,137.80150792157508L1140.7228158570636,260.09214051981854L1146.1090296540935,212.83904008385724L1148.5892949683125,177.61933789556312L1152.1725081069358,192.78337633774532L1153.4813471212888,169.69490490319697L1155.7384022301346,205.20810460972683L1164.8809053791424,131.34456252038783L1176.6067903486796,193.76170139853127L1178.0678543933427,137.0188478729463L1180.6116987247121,132.71421760548816L1182.1566232651153,119.01766675448486L1185.8922893158308,135.55136028176742L1187.269948628318,154.92219648532918L1190.0078342969766,143.96495580452657L1194.8691224093961,173.70603765241935L1197.3523501867796,193.46820388029548L1202.387739980572,147.58475852943457L1203.3990793286519,233.57953137251934L1204.7655724338258,157.27017663121546L1205.9310738073625,200.41431181187573L1207.2907304590792,158.73766422239433L1212.4574941001379,221.64396563093075L1213.751634739558,172.82554509771202L1216.386973606361,139.66032553706836L1218.0008323857894,104.24495833661709L1223.2478104140775,210.68672495012817L1229.0684808283033,201.68613439089748L1230.4949068421174,144.4541183349195L1235.7067910759927,170.7710624700615L1239.5199369325549,155.02002899140774L1245.0868609826332,108.94091862838964L1253.3462082858805,208.43657731032044L1269.5911029314207,166.85776222691774L1271.1857057002783,108.35392359191805L1276.2763568261819,174.5865302071267L1289.5331516065348,230.6445561901615L1290.6039680996914,220.7634730762234L1295.8370453392836,214.99135521758632L1298.368811936212,155.11786149748633L1299.6838037586763,168.32524981809664L1300.9755516393864,173.31470762810497L1302.1400275449043,200.7078093301115L1305.7473961524092,182.21746568125707L1308.1833384600484,173.90170266457656L1309.6635445743912,132.90988261764534L1312.3654249215094,173.0212101098692L1314.8562867385865,219.39381799112311L1316.2179943263407,158.34633419808L1318.7753976237332,200.5121443179543L1320.10748057984,164.7054470931886L1321.5190942778304,147.58475852943457L1322.902450634865,153.65037390630744L1324.3350294567904,143.08446324981918L1325.2720793439705,249.52622986333026L1326.8107371353713,120.3873218395852L1327.9684905283232,202.07746441521184L1330.8927834945775,137.0188478729463L1340.5022164147022,187.59825351557978L1344.7319301685807,179.57598801713505L1345.8606286343402,208.33874480424188L1348.6859069663583,163.43362451416692L1356.0847726611448,188.87007609460153L1357.3925862074789,169.89056991535415L1362.5603753165562,147.58475852943457L1365.3088574880735,194.8378589653958L1366.7804040947042,134.76870023313862L1370.8341931129546,197.28367161736068L1371.7028784655643,264.20110577511946L1376.4395152432833,216.26317779660806L1377.655834254184,189.5549036371517L1378.9505445980587,172.7277125916334L1381.4792347909315,195.03352397755302L1390.7776090787602,143.2801282619764L1392.0117028686493,185.73943590008648L1393.434368833062,145.23677838354828L1396.1411486384911,162.65096446553815L1398.7720438105468,186.71776096087245L1400.2815327338642,126.64860222861527L1409.020571188015,149.15007862669205L1415.7463880399546,168.32524981809664L1424.407490924695,116.08269157212705L1428.7643627128748,112.56072135329764L1430.171874538791,148.4652510841419L1434.0847186749354,220.17647803975186L1443.5455726732598,144.8454483592339L1447.8778332289944,99.15766802053015L1449.395639837351,124.789784613122L1450.900912947703,127.52909478332262L1456.4986010383382,190.63106120401625L1463.2843507989178,126.25727220430088L1466.0344281429084,158.83549672847295L1467.192865181206,201.97963190913322L1468.704860804124,126.06160719214373L1471.3163860247184,173.21687512202638L1473.7747746878747,176.5431803286986L1475.0438483312855,178.2063329320347L1476.4535250341298,148.0739210598275L1478.0734226807785,102.87530325151675L1482.5763666911575,121.95264193684272L1485.3827308352777,97.98367794758701L1488.0048525587301,224.1876107889742L1489.3205280265402,168.22741731201808L1490.5630534423594,183.8806182845932L1494.3998990042394,178.0106679198775L1501.4164930098857,187.304755997344L1507.8482284222812,233.28603385428354L1508.9916252629732,205.20810460972683L1510.0725824954243,218.61115794249432L1515.5697747202405,125.47461215567213L1516.9877691081242,146.21510344433423L1518.3159780739386,165.4881071418174L1528.1455447953804,101.01648563602343L1529.6872789908366,119.70249429703506L1532.2089048484706,216.94800533915821L1533.3530992753995,205.01243959756965L1536.24697002377,161.476974392595L1543.9613380455994,182.70662821165007L1546.9231175649766,118.82200174232771L1549.6980340231944,159.03116174063013L1550.9360018033758,184.85894334537915L1556.252369834253,222.72012319779532L1561.7322430436445,132.71421760548816L1563.2568861054585,123.32229702194306L1564.4556582191526,193.27253886813827L1568.542376154888,179.86948553537079L1569.7486683673849,191.7072187708808L1576.3845858563643,177.22800787124876L1577.79084433248,148.7587486023777L1580.7031735051846,117.35451415114878L1583.3847723737138,179.47815551105643L1584.7702936076762,153.25904388199305L1586.0914382382518,167.05342723907495L1587.6233735170863,121.75697692468553L1590.6015605247605,138.77983298236103L1593.658138865409,119.11549926056347L1599.1468994642948,125.08328213135775L1601.8566417328889,158.73766422239433L1604.7387765694914,151.88938879689272L1609.2294149636475,142.69313322550482L1610.4418599842559,190.33756368578042L1616.4150972514649,113.83254393231937L1620.9624782093144,121.36564690037113L1623.6305181118205,147.78042354159177L1625.234577974627,106.29944096426756L1627.8469007814579,146.01943843217705L1631.8807501437918,158.93332923455154L1633.1874242812166,170.18406743358995L1634.6857469972206,128.99658237450154L1635.891355564372,191.80505127695935L1642.7232513857869,177.91283541379892L1643.9224792630448,193.17470636205974L1645.4956611444038,112.952051377612L1647.8624413312355,247.86307725999418L1650.920614844357,137.7036754154965L1652.1717997678886,182.02180066909992L1655.045047214997,205.69726714011983L1657.6417601197677,163.92278704455987L1662.2609238389166,149.73707366316364L1664.9082264992692,167.15125974515348L1666.2692504416775,158.4441667041586L1667.6038400973853,164.11845205671708L1669.0742472951065,134.96436524529582L1676.6727374308389,192.58771132558815L1678.0264691562263,160.00948680141607L1682.2313437958776,172.82554509771202L1683.8645725267675,100.0381605752375L1685.3500199220941,131.7358925447022L1686.6181820383774,178.4019979441919L1693.8620881214708,120.58298685174239L1705.5780602334953,165.1946096235816L1707.1428104889235,114.71303648702671L1713.0913225827965,127.62692728940121L1715.9853072720578,179.7716530292922L1720.394477929184,122.05047444292133L1721.9845230624037,109.33224865270398L1723.4744141524775,130.85539998999488L1724.8976498213449,145.1389458774697L1726.8704224072685,246.78691969312965L1728.3731888180196,128.0182573137156L1732.5168771992303,172.14071755516184L1739.7933703771355,175.85835278614843L1741.318811025186,123.22446451586447L1744.2390021193662,143.67145828629077L1748.2489238946005,222.03529565524514L1758.2078135272714,98.96200300837296" style="fill: none;" fill="none"></path></g></g></g></g></g></g><g transform="translate(72, 377)" clip-path="url(#clip_1)"><clipPath id="clip_1"><rect width="1756" height="22"></rect></clipPath><g><g><line x1="227.66523420275493" y1="0" x2="227.66523420275493" y2="5" style="visibility: inherit;" fill="rgb(0, 0, 0)" stroke="rgb(204, 204, 204)" stroke-width="1px"></line><line x1="455.547016104519" y1="0" x2="455.547016104519" y2="5" style="visibility: inherit;" fill="rgb(0, 0, 0)" stroke="rgb(204, 204, 204)" stroke-width="1px"></line><line x1="683.428798006283" y1="0" x2="683.428798006283" y2="5" style="visibility: inherit;" fill="rgb(0, 0, 0)" stroke="rgb(204, 204, 204)" stroke-width="1px"></line><line x1="911.3105799080471" y1="0" x2="911.3105799080471" y2="5" style="visibility: inherit;" fill="rgb(0, 0, 0)" stroke="rgb(204, 204, 204)" stroke-width="1px"></line><line x1="1139.1923618098112" y1="0" x2="1139.1923618098112" y2="5" style="visibility: inherit;" fill="rgb(0, 0, 0)" stroke="rgb(204, 204, 204)" stroke-width="1px"></line><line x1="1367.0741437115753" y1="0" x2="1367.0741437115753" y2="5" style="visibility: inherit;" fill="rgb(0, 0, 0)" stroke="rgb(204, 204, 204)" stroke-width="1px"></line><line x1="1594.9559256133396" y1="0" x2="1594.9559256133396" y2="5" style="visibility: inherit;" fill="rgb(0, 0, 0)" stroke="rgb(204, 204, 204)" stroke-width="1px"></line></g><g transform="translate(0, 8)"><text x="227.66523420275493" y="0" dx="0em" dy="0.95em" style="text-anchor: middle; visibility: inherit; font-family: Roboto, sans-serif; font-size: 12px; font-weight: 200;" fill="rgb(255, 255, 255)" stroke="none" stroke-width="1px">2M</text><text x="455.547016104519" y="0" dx="0em" dy="0.95em" style="text-anchor: middle; visibility: inherit; font-family: Roboto, sans-serif; font-size: 12px; font-weight: 200;" fill="rgb(255, 255, 255)" stroke="none" stroke-width="1px">4M</text><text x="683.428798006283" y="0" dx="0em" dy="0.95em" style="text-anchor: middle; visibility: inherit; font-family: Roboto, sans-serif; font-size: 12px; font-weight: 200;" fill="rgb(255, 255, 255)" stroke="none" stroke-width="1px">6M</text><text x="911.3105799080471" y="0" dx="0em" dy="0.95em" style="text-anchor: middle; visibility: inherit; font-family: Roboto, sans-serif; font-size: 12px; font-weight: 200;" fill="rgb(255, 255, 255)" stroke="none" stroke-width="1px">8M</text><text x="1139.1923618098112" y="0" dx="0em" dy="0.95em" style="text-anchor: middle; visibility: inherit; font-family: Roboto, sans-serif; font-size: 12px; font-weight: 200;" fill="rgb(255, 255, 255)" stroke="none" stroke-width="1px">10M</text><text x="1367.0741437115753" y="0" dx="0em" dy="0.95em" style="text-anchor: middle; visibility: inherit; font-family: Roboto, sans-serif; font-size: 12px; font-weight: 200;" fill="rgb(255, 255, 255)" stroke="none" stroke-width="1px">12M</text><text x="1594.9559256133396" y="0" dx="0em" dy="0.95em" style="text-anchor: middle; visibility: inherit; font-family: Roboto, sans-serif; font-size: 12px; font-weight: 200;" fill="rgb(255, 255, 255)" stroke="none" stroke-width="1px">14M</text></g><line x1="0" y1="0" x2="1756.29625" y2="0" fill="rgb(0, 0, 0)" stroke="rgb(204, 204, 204)" stroke-width="1px"></line></g></g></g></g></svg>