<svg viewBox="0 0 1828.6363525390625 400" xmlns="http://www.w3.org/2000/svg"><g><g><g><g><g><line x1="41.171875" y1="365.06088669500656" x2="36.171875" y2="365.06088669500656" style="visibility: inherit;" fill="rgb(0, 0, 0)" stroke="rgb(204, 204, 204)" stroke-width="1px"></line><line x1="41.171875" y1="319.0034042227284" x2="36.171875" y2="319.0034042227284" style="visibility: inherit;" fill="rgb(0, 0, 0)" stroke="rgb(204, 204, 204)" stroke-width="1px"></line><line x1="41.171875" y1="272.9459217504502" x2="36.171875" y2="272.9459217504502" style="visibility: inherit;" fill="rgb(0, 0, 0)" stroke="rgb(204, 204, 204)" stroke-width="1px"></line><line x1="41.171875" y1="226.8884392781721" x2="36.171875" y2="226.8884392781721" style="visibility: inherit;" fill="rgb(0, 0, 0)" stroke="rgb(204, 204, 204)" stroke-width="1px"></line><line x1="41.171875" y1="180.8309568058939" x2="36.171875" y2="180.8309568058939" style="visibility: inherit;" fill="rgb(0, 0, 0)" stroke="rgb(204, 204, 204)" stroke-width="1px"></line><line x1="41.171875" y1="134.77347433361572" x2="36.171875" y2="134.77347433361572" style="visibility: inherit;" fill="rgb(0, 0, 0)" stroke="rgb(204, 204, 204)" stroke-width="1px"></line><line x1="41.171875" y1="88.71599186133753" x2="36.171875" y2="88.71599186133753" style="visibility: inherit;" fill="rgb(0, 0, 0)" stroke="rgb(204, 204, 204)" stroke-width="1px"></line><line x1="41.171875" y1="42.65850938905937" x2="36.171875" y2="42.65850938905937" style="visibility: inherit;" fill="rgb(0, 0, 0)" stroke="rgb(204, 204, 204)" stroke-width="1px"></line></g><g transform="translate(31.171875, 0)"><text x="0" y="365.06088669500656" dx="0em" dy="0.3em" style="text-anchor: end; visibility: inherit; font-family: Roboto, sans-serif; font-size: 12px; font-weight: 200;" fill="rgb(255, 255, 255)" stroke="none" stroke-width="1px">-20</text><text x="0" y="319.0034042227284" dx="0em" dy="0.3em" style="text-anchor: end; visibility: inherit; font-family: Roboto, sans-serif; font-size: 12px; font-weight: 200;" fill="rgb(255, 255, 255)" stroke="none" stroke-width="1px">-15</text><text x="0" y="272.9459217504502" dx="0em" dy="0.3em" style="text-anchor: end; visibility: inherit; font-family: Roboto, sans-serif; font-size: 12px; font-weight: 200;" fill="rgb(255, 255, 255)" stroke="none" stroke-width="1px">-10</text><text x="0" y="226.8884392781721" dx="0em" dy="0.3em" style="text-anchor: end; visibility: inherit; font-family: Roboto, sans-serif; font-size: 12px; font-weight: 200;" fill="rgb(255, 255, 255)" stroke="none" stroke-width="1px">-5</text><text x="0" y="180.8309568058939" dx="0em" dy="0.3em" style="text-anchor: end; visibility: inherit; font-family: Roboto, sans-serif; font-size: 12px; font-weight: 200;" fill="rgb(255, 255, 255)" stroke="none" stroke-width="1px">0</text><text x="0" y="134.77347433361572" dx="0em" dy="0.3em" style="text-anchor: end; visibility: inherit; font-family: Roboto, sans-serif; font-size: 12px; font-weight: 200;" fill="rgb(255, 255, 255)" stroke="none" stroke-width="1px">5</text><text x="0" y="88.71599186133753" dx="0em" dy="0.3em" style="text-anchor: end; visibility: inherit; font-family: Roboto, sans-serif; font-size: 12px; font-weight: 200;" fill="rgb(255, 255, 255)" stroke="none" stroke-width="1px">10</text><text x="0" y="42.65850938905937" dx="0em" dy="0.3em" style="text-anchor: end; visibility: inherit; font-family: Roboto, sans-serif; font-size: 12px; font-weight: 200;" fill="rgb(255, 255, 255)" stroke="none" stroke-width="1px">15</text></g><line x1="41.171875" y1="0" x2="41.171875" y2="377" fill="rgb(0, 0, 0)" stroke="rgb(204, 204, 204)" stroke-width="1px"></line></g></g><g transform="translate(41, 0)" clip-path="url(#clip_0)"><clipPath id="clip_0"><rect width="1787" height="376"></rect></clipPath><g><g><g><line x1="1.285576004957303" y1="0" x2="1.285576004957303" y2="377" fill="rgb(0, 0, 0)" stroke="rgb(189, 189, 189)" stroke-width="1px" opacity="0.25"></line><line x1="259.36169461606585" y1="0" x2="259.36169461606585" y2="377" fill="rgb(0, 0, 0)" stroke="rgb(189, 189, 189)" stroke-width="1px" opacity="0.25"></line><line x1="517.4378132271744" y1="0" x2="517.4378132271744" y2="377" fill="rgb(0, 0, 0)" stroke="rgb(189, 189, 189)" stroke-width="1px" opacity="0.25"></line><line x1="775.5139318382828" y1="0" x2="775.5139318382828" y2="377" fill="rgb(0, 0, 0)" stroke="rgb(189, 189, 189)" stroke-width="1px" opacity="0.25"></line><line x1="1033.5900504493914" y1="0" x2="1033.5900504493914" y2="377" fill="rgb(0, 0, 0)" stroke="rgb(189, 189, 189)" stroke-width="1px" opacity="0.25"></line><line x1="1291.6661690605" y1="0" x2="1291.6661690605" y2="377" fill="rgb(0, 0, 0)" stroke="rgb(189, 189, 189)" stroke-width="1px" opacity="0.25"></line><line x1="1549.7422876716084" y1="0" x2="1549.7422876716084" y2="377" fill="rgb(0, 0, 0)" stroke="rgb(189, 189, 189)" stroke-width="1px" opacity="0.25"></line></g><g><line x1="0" y1="365.06088669500656" x2="1787.468125" y2="365.06088669500656" fill="rgb(0, 0, 0)" stroke="rgb(189, 189, 189)" stroke-width="1px" opacity="0.25"></line><line x1="0" y1="319.0034042227284" x2="1787.468125" y2="319.0034042227284" fill="rgb(0, 0, 0)" stroke="rgb(189, 189, 189)" stroke-width="1px" opacity="0.25"></line><line x1="0" y1="272.9459217504502" x2="1787.468125" y2="272.9459217504502" fill="rgb(0, 0, 0)" stroke="rgb(189, 189, 189)" stroke-width="1px" opacity="0.25"></line><line x1="0" y1="226.8884392781721" x2="1787.468125" y2="226.8884392781721" fill="rgb(0, 0, 0)" stroke="rgb(189, 189, 189)" stroke-width="1px" opacity="0.25"></line><line x1="0" y1="180.8309568058939" x2="1787.468125" y2="180.8309568058939" fill="rgb(0, 0, 0)" stroke="rgb(189, 189, 189)" stroke-width="1px" opacity="0.25"></line><line x1="0" y1="134.77347433361572" x2="1787.468125" y2="134.77347433361572" fill="rgb(0, 0, 0)" stroke="rgb(189, 189, 189)" stroke-width="1px" opacity="0.25"></line><line x1="0" y1="88.71599186133753" x2="1787.468125" y2="88.71599186133753" fill="rgb(0, 0, 0)" stroke="rgb(189, 189, 189)" stroke-width="1px" opacity="0.25"></line><line x1="0" y1="42.65850938905937" x2="1787.468125" y2="42.65850938905937" fill="rgb(0, 0, 0)" stroke="rgb(189, 189, 189)" stroke-width="1px" opacity="0.25"></line></g></g></g><g><g><line x1="0" y1="180.8309568058939" x2="1787.468125" y2="180.8309568058939" fill="rgb(0, 0, 0)" stroke="rgb(153, 153, 153)" stroke-width="1.5px"></line></g></g><g><g><line x1="1.285576004957303" y1="0" x2="1.285576004957303" y2="377" fill="rgb(0, 0, 0)" stroke="rgb(153, 153, 153)" stroke-width="1.5px"></line></g></g><g><g><g><g><g><path stroke="rgb(255, 112, 67)" stroke-width="2px" d="M2.0053502997636845,374.27238318946223L2.1812549822090164,374.272383189462L3.2851497719561715,374.2723831894621L4.00461437542022,374.2723831894624L4.188106495752718,372.35490340452253L4.750351127758879,372.69083889432204L4.938643463897543,372.930694923177L5.127142260931097,373.1105013343622L5.477248323438927,372.14213967589757L5.691606347557314,371.3679242232461L6.226340065319531,371.6594361070416L6.441007780780251,371.902181119822L7.620105951490683,372.1074133119853L8.179202054849787,372.2831713034583L8.418232155907397,371.7306517136521L8.605956724585116,371.91470026540645L8.994877435332057,372.0769196991134L10.339454013295933,372.22094842481124L10.532959487030542,371.77171413835197L10.712632080807595,371.9221791819521L11.124005413873702,370.45957842816836L11.660494049242475,370.67209199490185L12.233577878230303,370.865836908993L12.792106214128463,370.56366860447446L13.00135433109835,369.821526378603L13.16487135985035,370.03938281948024L13.334995137238792,370.2407469212842L13.70621182624901,370.42738645566834L13.914324408297007,369.7698066735205L14.121301455423117,369.96793301802086L14.308303410968726,370.1529014566403L14.704656713931668,370.32594644125686L14.928873245780999,369.73093126652094L16.088151170582098,369.542949950538L16.48574323891437,369.0026905629855L16.668461130891036,369.2066312168252L17.027754703221422,369.0491334263846L17.545507012379026,369.2440591310468L18.30967039958652,369.4285158520957L18.482839475174572,369.6032901933325L20.175560737144835,369.4419871472046L20.33716800261911,369.61089707581607L20.965634966660883,369.45413809927663L21.53691226281843,369.6177734858291L21.753128434990817,369.7736749145366L22.103389343169816,369.92234838547006L23.462056877209854,369.46325502970586L24.4532756335714,369.32142948318676L25.27354476896495,369.4790032328143L25.466017938225114,369.62977867734816L25.95223334568844,369.20122651970604L26.317256207851994,369.3572017736985L26.499148256249104,369.50677068233136L27.600565515257596,369.6502912927953L27.81445900236248,369.23882734258797L29.148609305134464,369.3874406606463L29.48034034799719,369.5303055227154L29.65929032864213,369.66772161938786L30.22519964153257,369.53541246805844L31.7373708509225,369.67028304715274L32.115039442897995,369.54014725140973L32.30472539007716,369.41471816564655L32.64497294485404,369.54966354557894L33.05144283166654,369.42592848167095L34.2020493988823,369.5585199778243L34.40820060242886,369.1861991204476L34.61068712509113,369.0749577181052L35.14887906284274,369.214139777764L35.31239609159474,369.34868260453527L35.5136954641114,369.4787882323309L35.6772124928634,369.60464733844015L36.01766650853518,369.7264400314591L36.22330155984451,369.605441464072L36.79777899987283,369.7257620021501L36.96790277726128,369.84230670424716L37.14576883820805,369.95522787244954L37.87447256671838,369.8311538772348L38.042170428591874,369.94314206739176L38.211468362400765,370.0517400082811L38.72204615546098,370.1570781782361L39.542418521301975,370.259280629986L39.79528150231714,369.90313687732584L40.19653825153369,369.78402120929644L40.41858694398669,369.66836761450435L40.582103972738686,369.78060084151133L40.758008655184014,369.8896209234921L41.10145635383168,369.7729211057413L41.45450448409168,369.8812118120666L41.910524985677505,369.9864681064615L42.314878648317396,369.42901629526887L42.65584881622639,369.54420624978206L42.85198666637083,369.4379811660055L43.47797609967394,368.8997574480836L43.64809987706238,369.0261290720032L43.88454921693387,369.14909524787777L44.060453899379205,369.2687677018021L44.4669237861917,369.3852535628377L45.35062803153986,369.4986555965976L46.81634553957979,369.6090724246836L47.00505079750823,369.71659873096525L47.18157486263823,369.82132545561416L47.59243204346712,369.9233399777329L47.79992524283045,370.02272628735415L48.163864185295836,369.9096585970555L48.35427274560711,369.7994745644184L48.53286141968599,369.6920869019592L48.758987714813045,369.1710113946355L49.67949361467515,368.6630351967818L49.864947113509096,368.58203604909426L50.0445164768387,368.5030546509126L50.82328697235958,368.63215022053413L50.98499746828131,368.7580579434587L51.160902150726635,368.88086970118934L51.53955143195285,369.00067414469027L53.067465284578056,368.3006191221714L53.25962876249589,368.43273629562424L53.93501396490116,368.35829678333454L54.44110123349754,368.28565152097565L54.892786056290696,368.2147507068466L55.361555518135916,368.3476719177527L55.85530674826269,367.87222302460185L56.21589070118613,367.40806856128586L56.6724789702329,367.1558798193383L57.19523795609157,367.1102539416934L57.51478780615584,366.46493080640164L58.068774002366446,366.6343689926701L59.52489107879404,366.00157148242806L59.80970388329327,365.3835128890879L60.046049992717315,365.37654608812875L60.392594604788314,364.7739501851667L62.95849060646739,364.38355173798857L63.69400754450906,363.80415372515495L64.0267192766225,363.4357444167825L65.07203078744493,362.680964187164L66.46564182794492,362.33765321392383L67.14624016794613,361.4116251018915L67.48271981139129,360.8997754436122L68.5442385024625,360.39951920695654L69.14142664092861,359.9105655843689L70.90119607851405,360.02004306612497L71.27612906363225,358.95371159713795L71.54865744488559,358.8878885327622L71.9565725579623,358.2382899634547L73.69899928037707,357.9929036031285L74.04033075485212,358.142242357468L74.784725511374,357.8994421484907L75.80892639569404,357.85622339649956L76.18638852677466,357.4259916351013L76.60127169505387,357.00526567531415L77.05935680558859,356.0130798906392L78.44801278461124,355.62287793936576L79.18714278831345,355.0480561491019L79.5814314823275,354.8718429848088L79.83790752900323,354.6994860651293L81.1913103102236,354.91617374706584L82.65295021558948,354.5507441659407L82.98509418024197,354.38556154341L83.25803548328508,354.8003406132906L83.6013799514853,354.6302423807074L83.95293124025734,354.46382848773726L84.30174692217213,354.10937228282853L86.6098248813587,354.145543482466L87.64858125876843,353.7982622826743L87.91708365257142,353.84083437613975L90.79504529687506,353.6914469197786L92.22427084174338,353.73616911919817L92.54908544462732,353.77993277057107L92.90058511817566,353.6321299116921L93.22787725179826,353.48748629315713L93.56389235822992,353.72666613097033L94.60879094726258,353.1997823747338L96.46317108993084,353.0643508289878L97.14149836008828,352.9317991850445L98.53598685939154,352.8020627475173L98.7721265079207,353.24435988220114L99.89491246955019,352.91869909010245L100.24259261654308,352.5999304618373L100.61850629091201,352.4773265809584L101.0156338222308,352.16799235660113L102.11798015526628,352.243612505296L103.25532160998544,351.56118966422576L103.54214740820983,351.4601677417947L104.62678971950858,351.17235590964395L104.93028723499525,351.4570443207962L106.25834694136802,351.16958597717274L106.67632702307056,350.8881543557017L108.26525007013544,350.23553357240075L108.58743229660955,349.9734773487637L108.97072694797076,349.71690006360745L109.65406089482926,349.2773995844243L110.02181936385008,349.22347185906153L110.38152585797025,349.17066868844427L111.17077424390675,348.93092615152335L111.59629014827274,347.9443274412665L111.93189233291463,347.7297945855393L112.34305920508584,347.8953432205888L113.88748992930215,347.11876263876724L114.16760574844267,347.10896585008015L114.55193270427833,346.9117755253704L114.91845240792982,347.2812561543372L115.30474074226692,346.8932411460919L116.07287850170103,346.70065114026806L116.85448783452662,346.13738205121206L117.67067936724614,345.96028945887065L118.0176369011069,345.7868543229339L119.30646903745077,345.8041444940303L119.66777560350633,345.4469050924264L120.53171121816888,344.9100012896804L121.2437432294169,344.75810176701964L122.67183323936335,344.7962457591088L122.97646628977189,344.45988177013186L124.16263574613227,344.8776679681698L124.56946693951083,344.5398433681715L124.90723696354905,344.5823680400608L125.30069981398354,344.4373650470924L126.0768379330946,344.4819431040941L126.48150128707682,344.3390495153713L127.24014184534602,344.19908526595174L127.62493333819519,344.4349169783011L127.98758190006752,344.47950000016203L128.3768123021568,344.3367958453571L129.22454073657056,344.3833427057431L130.5098630377013,344.05636027243474L132.06100374100154,343.1773210226084L133.67986361782528,343.0610686782486L133.99688432192718,342.9471907555224L135.40907684296715,342.09112898269314L136.79778443721352,341.06644861781024L137.26980565815327,340.2487225412087L137.6829339088259,339.8197001559189L138.14901937903758,338.65550870809415L138.65670671956937,337.88692500632226L139.14555450344253,337.69172188552534L140.45301973555013,337.31461848653333L140.83977260690074,337.68855677727794L141.23819051881256,338.05488678435484L141.66897117599822,337.8564342006252L142.7690464391899,337.84776268237766L145.80242152212116,338.21069833088677L147.00536592619127,338.380573885201L147.42664938221205,337.9900302672172L148.37079505453895,336.4936526397022L148.71893973854532,336.51244618922857L149.19292233798646,335.41742820969984L149.60677320179124,334.90126034069345L150.05257388908007,334.3955616772397L150.80822076437337,333.9001169996722L151.17437916145886,333.7856492781455L151.5917398604767,333.48805941566644L152.63348992086233,333.7527514531516L153.01533934595932,333.27050758357944L154.3394762953292,332.9833994109171L155.2539432140158,333.0727982930585L156.73948096796505,331.86311423281813L157.13774403420572,331.6044223072855L159.5842024081916,330.9804015055502L159.99567897170513,330.73952218867026L160.38970958960059,330.50351378782915L162.07773386621213,330.45749578328537L163.27345213896112,330.41240792145635L164.1196321166632,329.8126922367802L165.52212097564342,329.0399327138772L166.98148981116552,328.6530666722022L168.44958161949666,328.82938438167326L168.93946170784426,328.44682513956076L169.41571537712923,327.516725130435L170.18364667566843,327.53075237078036L171.00169635644193,327.5444965313793L171.35288633864792,328.11307528034644L171.79677726265902,328.11512053464577L172.63397619143345,327.1920985593169L173.45775516204012,326.8426597034347L173.80326746963667,327.0551897942083L174.2172215638889,326.7085570085235L174.63313703664255,326.36891122753855L175.4882464480486,325.48131927080817L175.89528410232202,325.72111096714383L176.36751178415665,324.84665594533254L177.2951405848924,325.09915094764284L178.49261377524795,324.7919327164055L179.35603323767327,324.30603861018204L180.68806731627265,323.8299284894833L181.08576261505237,323.91791727287585L182.0021909122404,324.188960333195L182.7788451835887,324.45454783364727L183.65103923404678,323.051573275997L184.59642367174303,322.6007827518763L185.0814519290607,321.7895040026413L186.24351707594283,322.1031555240057L187.01769381655242,322.225740372024L187.4343835176619,322.16111284606933L188.99966679226202,322.4672578799529L190.6670965946084,322.7672466854888L191.9673873106186,322.87648740713865L192.3903740690222,322.6141187893239L192.84458803777775,321.8029334343843L193.19479733073302,322.1161790096426L193.7796494307295,320.2069873967518L194.16903467848996,320.1828583034275L195.81055363852778,320.8978566791339L196.63665529420194,320.67522880495386L197.2374564983286,318.97992522959476L197.72000722490765,318.980395842611L198.17158881725337,318.9808570023658L198.55674161666857,319.1659280805942L199.82105652174442,319.1626708732897L200.57536140122096,319.5286865480246L203.37120322458253,319.7027562570045L204.62756938520513,320.2425086740521L206.75927812493288,318.3718621575835L207.0951900009171,319.1228152814127L207.5497652762387,318.5667194170553L208.82786144604836,318.39090782139135L209.5933152138489,318.0340706147564L210.0276573214714,317.6843950352058L210.35907867299179,318.07990279957676L211.60605086289695,318.65200916599696L213.77296118520326,318.28999022727606L214.5353180395805,317.9352349487343L215.4616564597232,318.1411489132007L215.94446526242083,317.23586285327394L216.85841602887024,316.3487373045463L218.18632088957185,314.92590586846967L218.63821217325992,314.45408836916425L219.47659825217994,313.99173409367035L221.18015871113187,314.46107478015693L221.61047483130406,314.73652366296585L222.57196321880159,313.8996028656411L223.87168616735084,313.44840330553933L224.64560483184187,313.19071559636785L225.9726322337402,313.12265457382847L226.41347785955168,313.97823477147847L227.24241835253056,313.7099570324489L228.0504546799019,314.3692895392747L228.48324833081273,314.4620785495239L229.30645953395847,314.5530075488231L229.7344529690631,314.2732466110648L230.6280157221422,314.73681141543L231.0139427499133,314.6378083177139L231.4387876563709,314.54078944522956L233.66417802715446,315.36780402837076L235.34301479394344,315.8094168117564L235.76434986518797,316.4265902303789L236.2615077000804,315.5561421944633L240.74449634125025,316.1783619338573L241.19411655509452,315.8661153655583L242.15715339930372,315.3757287780643L244.11032508017632,315.8171325472476L244.49862640823858,316.4340825198984L244.92311000813012,316.116739534209L246.23176239038332,315.9901375095913L246.82724722646662,315.4973110110109L248.15711346566968,315.56748898075585L249.41316993494993,316.55813309003554L249.88183616634768,316.23833310552845L250.8004839181558,315.5562015321498L251.1941532294852,316.17829411291814L251.8198845866697,314.75993187979833L252.2513362417637,314.84486147452316L252.69331740249714,314.74373221140024L255.6621734557756,313.1697857416788L257.14946612733144,312.7334774959061L257.99084588922733,312.4902572921667L258.95620541850406,311.6988639594559L260.5596323434349,312.21373763624655L262.8816980282502,311.05921164007987L263.35475155366436,310.66516828398557L263.8022039281123,311.20070908187006L264.2292166739662,310.9881801433473L265.5701285710458,311.33291004591166L269.3832032235249,310.56474337667373L269.83586873556885,310.5492782409561L270.7980797361985,309.7968094917291L271.7194630948639,309.79671140515467L272.9235946490796,310.5339129404915L273.3360002866201,311.25635547318353L273.7596064277084,311.0427314211058L275.7058100533785,310.8333840167045L276.1842831772835,310.44391048585913L277.0346956033308,310.61517971812145L277.48927087865246,310.41439317476426L277.9638728607783,310.40193792323595L278.7968393412075,309.8368010729762L279.2918293367036,309.09866802404315L280.6773367870792,308.9282315040874L281.5373496447388,308.94551212148156L283.6746328286286,308.96244684553545L284.0762508844112,309.1633451873422L285.44544792409056,309.1759212965214L286.8346200553504,309.188245691053L288.3791540100142,308.2788318729775L289.31189271789844,308.3091043971173L290.6268937726695,308.5230666339787L291.0035300601706,309.1013351767154L292.8902213328889,308.37797936449243L293.33086049780553,308.5905591548309L299.2138088519932,308.79888452522476L299.6673518228404,308.45017281272334L300.18087168365275,308.10843978362095L301.0245225153925,308.142119560877L302.02596108605104,308.1751253298957L302.9550867282747,307.8389012305566L304.36851801468407,306.9565548208121L305.28907552976983,306.46043053434187L305.8217446385832,305.7899528829735L307.315540828328,304.94861178377346L307.7577284499563,305.22978313897283L308.67725366056766,304.7682143693386L309.9740861565885,305.23726906929534L310.39707291499207,306.06549089503494L311.3817881531646,305.77148654853676L311.8176271022751,306.220463817113L313.11466605919077,306.2919096913242L314.99769265102486,306.3619259748531L315.4624877406435,305.8777251968814L316.5693762133665,305.9560263788772L317.54191025874064,305.4799497561019L319.3408556511312,304.64485969644255L319.7730299193574,304.93209111515426L320.701432948449,304.8450395400636L321.14790463364625,304.75972970852655L321.56041350163423,305.5974591412978L322.0976763653588,305.128567184676L323.0870369736664,304.1162615892637L325.0893463475225,303.4927383973651L326.0749390444983,302.8816902793947L326.59506565394713,301.9143416217811L328.1375866148858,302.9932321494616L330.19114990589804,302.02365913917356L331.77609858073635,300.8892231794308L333.28393411133356,299.5932231206985L333.7859953924796,299.0601907122763L335.65524071957987,299.0905999521422L336.67428008152774,298.0148491702747L337.1806770414664,297.32913610314773L338.0388317510721,297.76268627051627L338.88516657444535,298.18756286788437L339.4112289346222,297.49840118239615L340.926032520422,297.19153835270544L343.2885645406355,296.33804848927844L344.17185586419396,297.15992651070434L344.68981463424643,296.6755822827904L345.5247424931771,296.7536889971878L345.9641945079481,297.0144865368932L347.81816172882657,295.7960436736863L349.63744351936367,295.52323784676724L350.5995512895459,295.8086454046681L351.5481874863366,295.5355888331245L351.9267851523391,296.18925020900963L352.3621079492123,296.27708332397145L353.30568585407826,295.2576577605672L353.7676937216159,295.5483742124685L355.1788539381814,295.6490256245599L355.6165510353459,296.30041080888884L356.03649249554985,296.7545169175871L356.9813091657851,297.01529075663154L359.1645815140114,297.45509603670496L360.1297345823932,297.7018559197782L361.0076579226845,297.57518519896377L361.5409980294062,297.0825545863708L362.06050525617036,296.2312852828446L364.3375624658999,296.13402927464875L365.9968886781219,296.4072105096694L366.86211467337745,296.49068161070903L367.3491043091966,296.38823774991613L370.43652053136503,296.28784310389193L370.8911474219104,296.1894566749723L371.3982669949812,295.54030521315707L371.9573630983403,294.3514065866472L372.39067290148836,294.8444836219838L374.1614363817266,294.7749671207981L375.18088866546424,294.8910843900179L375.7280100369198,294.26790709648776L378.81078088895316,294.2099232271137L379.42360844020715,293.41612937510047L380.81500002608703,293.37518235444867L381.79032129354215,293.1508124234339L382.3002797039177,293.29941390760115L382.83258750616494,292.52383557337475L383.6853226172798,293.6061832454429L385.0921987702764,294.2983992802864L385.71612359463063,293.1343613134721L386.2379535064623,292.54632858315045L387.2057389512539,293.07550008874716L387.7354143770914,292.3044058316009L388.2657091856135,292.1014550323787L388.83734778833707,291.34984441181854L389.35731955211475,290.42902802982286L389.84017997003616,290.26358735807867L391.2023057240656,290.2856950156962L391.6502742507507,290.49159947144574L392.55044375246626,290.32490780900537L392.95701686972615,290.8985048430788L393.56654104666194,289.4340057799075L395.07742187545875,287.99879938387215L395.58562536822774,287.69772844053125L395.9626745775186,288.32386924794054L397.972003621801,287.27934596107923L401.6150061121154,286.9926654760749L402.5648294590517,287.08019405211155L403.6233028519233,287.1659719144273L404.15839787625157,286.697322516737L404.63996791357994,286.23804683822385L406.0889620891338,285.9721942768154L406.9402003587607,286.08013268868524L407.9092761841454,285.4489656730378L408.34026330222594,285.93584185373567L409.31739110251135,285.67603438395025L411.8898938528269,284.50024226544576L412.89159049960404,284.82185642518556L413.36799901456016,285.13703787481387L414.85890475177655,285.0774435637433L415.3959095393825,284.8348054726428L416.5237537929368,283.8600779426057L416.967438256053,284.0102592288908L417.42789766687895,284.34167210965416L417.9580892449536,284.11375047013144L418.42345210203314,284.44309307734125L419.40713503573124,284.58161338179156L419.9307714803932,284.90159810255426L420.4109995219047,284.84671303227606L421.8049718689708,285.16139527351254L423.25479188810425,284.9170795052481L424.9515907527486,284.67765030174826L425.551514498072,283.52183746736387L426.6987660757458,282.7576108221518L427.8377076024003,282.1929037543685L428.34018180533616,282.00795980497657L428.7439160852914,283.11635386288174L429.33429101422615,282.5444725633291L433.00676579728594,281.98402939656063L434.11060897180937,281.61902946925335L435.0361731635963,282.1824989021924L436.11668625699724,281.26082861568125L436.786961552254,279.43642420553033L440.2016182928213,278.569677255063L440.6552128788922,279.19413399576194L441.71120874102513,279.06916737170053L442.29750606728584,277.65706660369995L442.9042430221406,276.6416754913652L445.0476684176533,276.5677590920598L446.0201508478036,276.495321073191L447.1365881369153,277.1612642666006L448.2737231307396,276.70848992048053L448.95380531850356,274.9751405398764L449.5634843411105,274.566089678871L451.12954184406635,275.2706172229377L451.6463134639733,274.8556569987142L452.1626205468667,274.8174617114777L453.1612718954442,275.1484957175812L453.583484425492,275.84137410215664L454.9698693346708,275.783464224227L457.13997980084787,275.1740150155468L457.73489686947033,274.76098759899185L458.1966466608893,275.2773830452463L459.51484785953113,274.67805609806317L461.7038494975905,274.45918064251055L462.2677458167558,274.24468280848333L462.72794715146307,274.218707263773L464.34531018679894,274.1932512427696L467.0926853150853,273.9840722206925L468.1595203742,273.9633089678712L470.6666266360594,273.9429609897457L472.3804069093083,273.55455597206026L473.0473272150232,272.9896872652025L475.3802837120439,274.2784353997704L476.6005708312846,273.5148573155536L477.1321044051761,273.68771032923775L477.58466668677255,274.4098016262343L478.19785554459247,273.64359666714336L478.9262495817605,272.1557891873008L479.60705438265666,269.9608116544408L480.18695142117576,269.283587779491L481.8256831591326,269.9095300069758L482.31716331941556,270.7071847527194L482.8443095992906,270.5677283306504L483.55278016010186,268.5887458351273L484.585497556336,268.49165859972175L485.6917666463744,267.84381875595034L486.24570122736134,267.57739878490787L487.78817057307623,267.869001502958L488.25389473672175,268.15477207442393L491.71526325475764,268.0663644599583L493.8847027230264,267.4270310805236L496.46231538049045,268.0901035680352L497.0532580768861,267.63452685318276L497.53885410166487,268.1092179691912L499.72171352810125,268.5744151298905L501.47332776033863,268.1091523113983L504.3307981608245,268.390119500924L505.890248915144,269.2181606688156L507.48092687981546,269.10848525919096L508.57806007525494,268.0798479631642L509.20864326346936,267.6244768524875L510.8516074497714,266.0728270422646L513.1460589898953,265.841827714102L515.5227335814087,264.69429345225615L518.1311089122113,265.5962508472869L520.5710637680081,265.927476034074L521.6946239579934,265.8836147798816L523.3178195136098,265.2879380237245L523.9107235885069,264.8884058209817L524.9331695552205,264.68109521823135L529.0747234914678,263.1883148887732L534.3865493951691,263.75192965756116L535.0484114089592,261.72504057216025L536.2007728937815,261.212536055555L536.9006237122311,259.05220468148406L538.5928804371878,258.22469568988697L539.2169601072133,257.4137370267667L540.4572223180345,257.17168987710795L542.6593858381431,257.8556372943408L543.7842880239452,258.3416749468996L546.0653196059013,257.5283769689098L546.5234563316598,258.2051904439221L547.1424777097603,258.31577557563463L547.670449833215,258.6083796283262L548.2863742978923,258.15820904869355L550.6269182328001,258.8224256242944L551.2131639438371,258.9206659737547L552.4069724533083,258.28001915943963L553.13805048211,256.5468019364249L555.5149315345183,257.2432465733321L558.1516952383679,257.3730705819222L558.7978662241464,256.2106843498337L561.1588497876483,255.8084680841443L562.8862048647362,255.04583517341308L565.4080214653565,253.1930720210215L569.1495058025329,253.77236069977005L576.5084430942812,253.60314162891595L577.2307981502736,252.5161546308435L579.5368631157352,252.37205977286487L585.5421911653681,253.1519990507407L586.0272710379096,253.73210902259405L588.3978550330237,255.22176885266708L589.5447453041315,254.47087035720517L590.1404366011097,254.28768112343738L590.7255983924485,253.9239252979908L591.2531059788896,254.8570573256091L592.8872439619352,254.85037473812326L593.9907258298925,255.76497764147436L594.6612592012679,255.74013660602472L595.885211001393,255.34733169287068L597.0135714071844,256.25199530708085L597.6304249458888,253.82241956224794L598.788928642334,254.5733510788306L599.3923622228705,254.38811231265103L600.0318232295651,253.46965709741968L600.6584836607766,252.56957106152566L601.307441868636,251.3190262286036L601.7319254685276,252.67271641690488L602.4289374496725,251.42010877106688L602.9533997379141,251.29793501316013L604.2781044547448,249.33590207376432L608.6311775778058,249.07118227364592L610.5472379128222,248.62752663506961L611.0585383190145,249.11389537393777L612.3383894064307,247.0113133388814L615.6900755740569,247.16154589550374L616.2825151119405,247.3087737911662L618.6235235838619,246.16344556430354L619.8685860104893,246.6990959208318L620.5351966248618,246.8555728160636L622.371563054451,247.1931503689287L622.7650775201092,248.81358774711788L624.9107739854658,249.66469550749974L625.4617664987005,249.20916974272828L626.0482702858561,247.10468286599203L627.1937669459234,247.43727816270356L631.4059305082227,247.21053101497714L631.964974996358,247.35677915948605L632.6094426797537,245.47357053041566L633.8356139344988,245.10186744262217L635.0274094502449,245.47451905354052L635.7112079341169,243.62895581228764L639.6699923631638,242.55722450627027L642.7167874042628,242.24384844186037L646.6402670202839,241.75250977578008L648.6139299449742,240.16561710654403L649.2515328036147,239.900073262986L651.0240512014595,240.9294511827793L655.3098180727868,240.09594028986288L657.2723321091531,239.64755988364388L657.9598985043568,237.7343061952793L658.6417872249511,236.9646983154196L661.1775399359764,237.13163315427428L664.2514845847533,236.92676908454052L665.4972696245128,236.72600230381306L666.0220416040967,233.95002952346297L666.7069756228906,232.33495685323155L667.8899965506039,230.5679556035605L669.0036466176346,228.83629443943792L669.5785369794527,226.7708063907374L670.217120527344,226.40469889050956L670.9509341630029,225.67745339820448L672.990767804505,225.88590320875392L674.2620507647833,225.16903366102616L675.4498719083028,222.25574070644953L676.0458728966233,222.1641646805718L676.6087369113142,220.23211954971953L678.3468279549362,220.54947609857962L681.5253450469744,221.59740573778527L684.4389211956463,222.80860681044953L684.9568799656988,219.75829262166187L685.4465535931516,217.32167494717308L687.9367816768539,216.2234000225961L688.579133136077,216.0682408507413L689.1808117990068,213.70542435042967L693.6336055342991,213.416394685445L694.3320111264845,212.02776538964412L695.4743076426811,213.06189918444173L695.9926277192995,210.0222895273011L697.3035511713965,208.1488523241333L700.7981598935096,209.07633435722158L702.139846018945,208.8798865612866L703.3968831774761,209.97697790812583L703.957682583218,207.92021699432777L706.3659973068732,208.85227169715276L708.8483798765697,207.37069502164536L709.5390431851968,207.0241300202799L710.0820869539782,208.71102651098408L711.9333701832231,207.04804476821502L712.4798205567703,208.55023291879576L715.4858911863525,206.5220070562789L716.1229262775322,205.2712657871214L717.442211395872,204.59822939041757L718.6569756861746,205.41249378845512L719.2846168066368,206.0262428796594L719.883095325696,206.25925697132232L720.5770620086413,205.19800076065505L721.9261807262927,205.63180969833002L723.310810717865,204.76733245393396L725.7972192750119,204.47283476176963L727.0247325255738,203.44730704069L728.3303396096273,202.2580598933428L730.3645988069676,200.7241377174546L730.9138364025957,198.4839740349163L733.6197128910095,198.31514356369286L735.6796764697633,197.22853975241344L736.8882985484429,195.61097806407543L737.6149376680044,195.68383752165192L738.7983199022837,194.09716990807007L740.6256536677215,192.72646565181617L741.2175770533679,190.83048554351024L741.8963172453151,189.89357497685324L742.4424579275201,191.7388523678854L745.5373067419043,190.23108452648873L746.0805569715808,191.70115174327864L746.7932083655135,191.66797776552545L747.8653597926715,194.39891694213608L749.250712397376,192.65371785090375L749.8174991690697,190.39073283015165L751.1190802656729,191.67337706598528L752.2953912143023,190.53537873553253L754.3878723840012,189.78860032990292L755.5871004919633,189.7936773904936L756.2036443393253,189.98288288173904L756.8082134547836,188.326004550722L757.4743079169189,187.25495371174014L760.9164239565064,184.91571411273588L761.5296644295502,183.17594923155232L763.4344726457949,181.47097966248774L764.1743252626293,181.6424091698853L764.847232934296,181.07349022027745L765.4217103743242,179.41056986027266L768.7031998376882,178.51782777995422L774.0105352169256,177.27448061951378L774.7193670843029,178.08253001039026L777.414043069169,178.69018844473834L778.7250181364897,176.8907041974054L780.7223724488684,178.4433489556052L781.4426628959121,178.1226411988021L782.117583561304,177.99257755958087L782.7623093208182,179.33895487157682L783.6559753043447,176.42111556936874L784.3367284900171,176.14085249076976L786.2138193311231,174.39235501190893L789.5100707484717,175.81073676869252L790.2010953636646,175.72691122728747L791.5239419324415,176.93437189126038L793.3404365008978,174.98577408706493L797.8518135151148,174.9184478022846L798.4735188848489,173.74708831511467L799.0166142688541,171.86223620696572L800.9781992311935,173.33122031848896L803.4956285377974,172.56006530087924L804.1323539376347,171.98856334031169L804.7747053968577,171.4284914217715L806.789454039631,171.800770703831L807.4893564733043,172.16560439848763L808.8327975163462,172.52314141755915L810.0763114862621,171.76814799096317L811.3080055699454,170.65979453587033L813.8687400492523,170.67898785345494L815.0591935691816,169.03972776008123L815.6703178180527,168.17017267145306L816.3510193885013,168.79184827712433L819.0775419664039,169.585320316424L820.4090598927661,170.36292291180706L822.751461975728,171.67766329482922L823.7144988199373,169.2815099219039L824.913985004018,167.85442935943382L825.5608786029285,167.19281019933112L828.3177509323798,165.9917335863422L830.1889060227578,164.99890845563505L830.7416018383753,164.21016977644805L832.2460307642069,164.3583555994576L832.8738783455641,163.76665792597166L834.3567837231035,164.47640381997195L835.0038321676853,164.06657512809167L835.7661374068388,164.2176328433328L836.9185505068848,163.4445196851974L837.6226337736797,164.16070834009156L838.2948188322141,163.94142350392656L841.8646309352904,163.72652436511106L842.3878544581626,162.2263136111321L843.0785177667897,162.96686638506986L843.651137058764,161.85030868010384L844.3029341039282,161.86146178356844L846.4711864220512,162.05662176659317L848.0247014256427,162.24787854946365L852.1108206116124,162.43531019620266L854.7368999641516,161.88207344568713L855.4324667190322,162.62951101671092L856.0319259273422,161.88816031035077L856.6545603711033,161.89855638107173L859.0912118525819,162.8298942308857L859.8209478855667,163.3741454418544L860.407709748841,162.43367210982L861.1762604300648,162.9858477624523L861.797398032338,162.60583020432577L863.0658421553117,164.99686208499904L865.0212332908043,164.945084117095L866.8864526304542,163.60473213733835L867.6222792598381,163.21233689263917L868.6730619843752,161.90663986152938L869.9455837100228,161.1797465881441L871.2045306318315,159.73047142925L874.3190964616779,160.705170968868L876.8319320133704,159.8180771385515L878.550977039439,162.08063412535427L881.1376223610545,160.98180109484434L882.34438629168,162.11570397413712L882.890681819556,160.64770967413375L883.3997111559046,159.20907526241726L885.4379963406951,158.53613328852848L886.9675102652558,156.0343507880234L888.1738612740916,154.50375362406473L892.0833531644837,155.58298751574418L892.7606481301667,155.53525711021658L893.1525109086658,152.72503227015693L895.1350516518364,153.83984058784827L896.8891434148122,156.40619222515974L898.7734603872395,154.86815823855915L899.4299028025385,154.4662645478011L900.7947641634253,152.59856924675086L901.4646265368924,153.53167688593985L902.0710538004048,153.15651282377104L902.8605602624598,153.34154184901107L904.6225491546653,152.60172061786037L905.8147059769775,155.74552444779025L907.4862649972216,153.48378408476842L908.0421093414864,152.1884282055868L909.3275348730646,151.84012911900032L911.2028707965641,151.68302594913837L913.7309844544785,150.42368523561908L914.5372142490195,152.13721028871365L915.148648189233,151.9741654955513L915.8239817764144,153.10399113824627L916.4631330917667,154.21122026702523L917.5741507823875,153.63823540540454L918.2606332578932,153.99785991156025L919.0112218412618,155.08721166296667L919.7105048922504,156.15477637840038L923.3124732797056,153.88485099087958L924.5370444625153,153.50262344985725L925.6624628005546,152.39112072552788L926.1636982381211,150.19646845536153L926.8265409411619,150.62492830079358L927.2617088923639,153.43980808307145L927.8264310551086,155.82993040094286L929.3181110206809,157.61956047093668L930.7337101464865,159.00493807186658L931.3995465325033,159.6256883873197L933.2260028391378,158.39172436548708L933.8686639897031,158.10358928988703L935.6998172816965,157.08429718427416L940.2022132469859,157.92769025012385L948.7939801573394,156.17499639479277L949.4124337679791,155.3785060814205L951.9650646571616,154.0452557767259L952.6118550256247,153.4755902094773L953.2620003836298,153.28577781907453L954.4426470110519,155.49475079945768L955.0253828868757,154.1591756019451L956.0679071756172,152.66608197670146L958.0019812237126,152.676689683761L958.7089033278121,152.68708523667368L959.9691406302138,152.8815028107974L960.6940764473925,152.88780210111193L961.3432411161468,153.07820533779727L963.8798712859754,154.92286989886512L964.5564952537501,154.5198819827469L965.7353353483419,152.6511143687774L966.3397496181291,151.55664183596306L968.2129693174559,151.03674855018266L968.8040152442992,150.1587932665118L969.5202797038925,151.3249263395568L972.3549877907169,151.73081702328892L972.9610021324395,151.57590009777826L973.5569515055362,151.23985157908027L974.1890315352387,150.72629409916777L980.5853449045674,150.407237700743L981.1513574479052,149.91033249875903L982.1560993928821,147.7652960164605L984.5870731997512,147.68968951199827L986.9737095294431,146.51021554836808L987.5481869694713,148.85469976320226L990.9414750074177,150.41537456699362L992.1499938556499,149.9183066282258L992.8362182550367,149.98386984265613L994.0958877899775,149.31120206722392L994.6959663809722,148.65198764751702L995.3456988171873,147.8217275850837L997.8225069427219,147.008072724156L998.4404960163481,146.579150823237L999.0889380719703,147.6326468104167L999.5417068144618,145.34893411564005L1000.7684458366678,144.76896505612467L1001.2880046786556,143.46367565330422L1002.2885657905109,146.4217804550927L1002.8992255023685,148.03111364225342L1003.6136834291316,149.2398003030684L1004.3186441547297,150.42431323035527L1006.1107247223651,151.21667603671315L1006.8118659214078,150.8878120006346L1009.4213251719085,151.11821503834614L1009.9741758331971,150.05440049843003L1012.5357361560835,149.56455204241746L1013.0284034665123,147.97912097005042L1014.2741885062718,148.08346789767836L1014.869673342355,149.65956733384968L1015.3874772667363,148.25646588704103L1016.4759391045906,149.82910536306804L1017.2471221622243,150.63337232592554L1021.3424804732401,149.39502471042923L1021.9320811738191,148.54990390907597L1022.586923517183,149.56398483167024L1024.637544740443,149.63663448182996L1027.104236282128,148.97091141601086L1031.0215736865262,148.31850281163003L1031.4815685603387,146.57376279521304L1033.6830610825386,145.2323774408119L1034.156475914519,143.549359932381L1036.5387249501944,144.11076194230736L1037.1376163910434,146.50323521837544L1037.8705009526752,147.00555972225197L1038.561215876526,147.12937787474428L1042.429105896598,150.56685841494883L1044.7992769699226,152.46174989914664L1045.9931887098412,151.92375445595607L1046.651747349313,152.68612843560868L1050.4010255852716,150.6698059774009L1051.5877111938692,149.61495962129484L1052.5885819970667,148.21275033142055L1053.8313217386267,147.02281515803864L1056.770086116475,146.04090861877498L1059.9422545359953,144.8944102799431L1061.0962160927531,145.0604514213175L1061.8047898840118,144.85471187892875L1062.492769201005,144.83731705785902L1064.1278878733015,144.0833504114727L1066.2272338677553,144.63407261107125L1067.559216331131,144.62109057537427L1068.1877865256204,144.05567838918404L1069.5399505414712,144.23849416835054L1070.2661251240193,145.3388032838267L1070.9021795259482,145.31172663464054L1074.1614228278877,145.83788130952993L1074.7232029228805,145.24813330874676L1075.2100377130287,143.74903061631682L1076.4414221053696,144.3064392115688L1077.6033840218042,144.4842397742098L1081.2443219031697,144.6584843255813L1082.9920649936278,144.82924398590933L1084.851864734787,144.81235852271485L1086.3825141942693,143.13774139615515L1087.4345872993995,142.41776626369293L1089.133399157769,142.26488042477004L1093.373847862668,142.6677420934441L1095.3122059743325,143.98369618001672L1095.9482087610377,144.16795160323144L1099.695990155508,143.42737226673609L1100.9145223571422,142.88583444726657L1101.5470153086346,142.7235872446915L1105.3373792626758,142.19612512572937L1106.5353686052686,143.70574148158846L1108.766539881109,143.15863627789207L1109.3996522152859,142.80670310851306L1109.9901819898917,144.48833783473637" style="fill: none;" fill="none"></path></g></g></g></g><g opacity="0.2"><g><g><g><path stroke="rgb(255, 112, 67)" stroke-width="2px" d="M2.0053502997636845,374.27238318946223L2.1812549822090164,374.27238318946223L3.2851497719561715,374.27238318946223L4.00461437542022,374.27238318946223L4.188106495752718,365.06088669500656L4.750351127758879,374.27238318946223L4.938643463897543,374.27238318946223L5.127142260931097,374.27238318946223L5.477248323438927,365.06088669500656L5.691606347557314,365.06088669500656L6.226340065319531,374.27238318946223L6.441007780780251,374.27238318946223L7.620105951490683,374.27238318946223L8.179202054849787,374.27238318946223L8.418232155907397,365.06088669500656L8.605956724585116,374.27238318946223L8.994877435332057,374.27238318946223L10.339454013295933,374.27238318946223L10.532959487030542,365.06088669500656L10.712632080807595,374.27238318946223L11.124005413873702,346.63789370609527L11.660494049242475,374.27238318946223L12.233577878230303,374.27238318946223L12.792106214128463,365.06088669500656L13.00135433109835,355.84939020055094L13.16487135985035,374.27238318946223L13.334995137238792,374.27238318946223L13.70621182624901,374.27238318946223L13.914324408297007,355.84939020055094L14.121301455423117,374.27238318946223L14.308303410968726,374.27238318946223L14.704656713931668,374.27238318946223L14.928873245780999,355.84939020055094L16.088151170582098,365.06088669500656L16.48574323891437,355.84939020055094L16.668461130891036,374.27238318946223L17.027754703221422,365.06088669500656L17.545507012379026,374.27238318946223L18.30967039958652,374.27238318946223L18.482839475174572,374.27238318946223L20.175560737144835,365.06088669500656L20.33716800261911,374.27238318946223L20.965634966660883,365.06088669500656L21.53691226281843,374.27238318946223L21.753128434990817,374.27238318946223L22.103389343169816,374.27238318946223L23.462056877209854,355.84939020055094L24.4532756335714,365.06088669500656L25.27354476896495,374.27238318946223L25.466017938225114,374.27238318946223L25.95223334568844,355.84939020055094L26.317256207851994,374.27238318946223L26.499148256249104,374.27238318946223L27.600565515257596,374.27238318946223L27.81445900236248,355.84939020055094L29.148609305134464,374.27238318946223L29.48034034799719,374.27238318946223L29.65929032864213,374.27238318946223L30.22519964153257,365.06088669500656L31.7373708509225,374.27238318946223L32.115039442897995,365.06088669500656L32.30472539007716,365.06088669500656L32.64497294485404,374.27238318946223L33.05144283166654,365.06088669500656L34.2020493988823,374.27238318946223L34.40820060242886,355.84939020055094L34.61068712509113,365.06088669500656L35.14887906284274,374.27238318946223L35.31239609159474,374.27238318946223L35.5136954641114,374.27238318946223L35.6772124928634,374.27238318946223L36.01766650853518,374.27238318946223L36.22330155984451,365.06088669500656L36.79777899987283,374.27238318946223L36.96790277726128,374.27238318946223L37.14576883820805,374.27238318946223L37.87447256671838,365.06088669500656L38.042170428591874,374.27238318946223L38.211468362400765,374.27238318946223L38.72204615546098,374.27238318946223L39.542418521301975,374.27238318946223L39.79528150231714,355.84939020055094L40.19653825153369,365.06088669500656L40.41858694398669,365.06088669500656L40.582103972738686,374.27238318946223L40.758008655184014,374.27238318946223L41.10145635383168,365.06088669500656L41.45450448409168,374.27238318946223L41.910524985677505,374.27238318946223L42.314878648317396,346.63789370609527L42.65584881622639,374.27238318946223L42.85198666637083,365.06088669500656L43.47797609967394,346.63789370609527L43.64809987706238,374.27238318946223L43.88454921693387,374.27238318946223L44.060453899379205,374.27238318946223L44.4669237861917,374.27238318946223L45.35062803153986,374.27238318946223L46.81634553957979,374.27238318946223L47.00505079750823,374.27238318946223L47.18157486263823,374.27238318946223L47.59243204346712,374.27238318946223L47.79992524283045,374.27238318946223L48.163864185295836,365.06088669500656L48.35427274560711,365.06088669500656L48.53286141968599,365.06088669500656L48.758987714813045,346.63789370609527L49.67949361467515,346.63789370609527L49.864947113509096,365.06088669500656L50.0445164768387,365.06088669500656L50.82328697235958,374.27238318946223L50.98499746828131,374.27238318946223L51.160902150726635,374.27238318946223L51.53955143195285,374.27238318946223L53.067465284578056,337.42639721163965L53.25962876249589,374.27238318946223L53.93501396490116,365.06088669500656L54.44110123349754,365.06088669500656L54.892786056290696,365.06088669500656L55.361555518135916,374.27238318946223L55.85530674826269,346.63789370609527L56.21589070118613,346.63789370609527L56.6724789702329,355.84939020055094L57.19523795609157,365.06088669500656L57.51478780615584,337.42639721163965L58.068774002366446,374.27238318946223L59.52489107879404,337.42639721163965L59.80970388329327,337.42639721163965L60.046049992717315,365.06088669500656L60.392594604788314,337.42639721163965L62.95849060646739,346.63789370609527L63.69400754450906,337.42639721163965L64.0267192766225,346.63789370609527L65.07203078744493,328.21490071718404L66.46564182794492,346.63789370609527L67.14624016794613,319.0034042227284L67.48271981139129,337.42639721163965L68.5442385024625,337.42639721163965L69.14142664092861,337.42639721163965L70.90119607851405,365.06088669500656L71.27612906363225,309.7919077282728L71.54865744488559,355.84939020055094L71.9565725579623,328.21490071718404L73.69899928037707,346.63789370609527L74.04033075485212,365.06088669500656L74.784725511374,346.63789370609527L75.80892639569404,355.84939020055094L76.18638852677466,337.42639721163965L76.60127169505387,337.42639721163965L77.05935680558859,309.7919077282728L78.44801278461124,337.42639721163965L79.18714278831345,328.21490071718404L79.5814314823275,346.63789370609527L79.83790752900323,346.63789370609527L81.1913103102236,365.06088669500656L82.65295021558948,337.42639721163965L82.98509418024197,346.63789370609527L83.25803548328508,374.27238318946223L83.6013799514853,346.63789370609527L83.95293124025734,346.63789370609527L84.30174692217213,337.42639721163965L86.6098248813587,355.84939020055094L87.64858125876843,337.42639721163965L87.91708365257142,355.84939020055094L90.79504529687506,346.63789370609527L92.22427084174338,355.84939020055094L92.54908544462732,355.84939020055094L92.90058511817566,346.63789370609527L93.22787725179826,346.63789370609527L93.56389235822992,365.06088669500656L94.60879094726258,328.21490071718404L96.46317108993084,346.63789370609527L97.14149836008828,346.63789370609527L98.53598685939154,346.63789370609527L98.7721265079207,374.27238318946223L99.89491246955019,337.42639721163965L100.24259261654308,337.42639721163965L100.61850629091201,346.63789370609527L101.0156338222308,337.42639721163965L102.11798015526628,355.84939020055094L103.25532160998544,319.0034042227284L103.54214740820983,346.63789370609527L104.62678971950858,337.42639721163965L104.93028723499525,365.06088669500656L106.25834694136802,337.42639721163965L106.67632702307056,337.42639721163965L108.26525007013544,319.0034042227284L108.58743229660955,337.42639721163965L108.97072694797076,337.42639721163965L109.65406089482926,328.21490071718404L110.02181936385008,346.63789370609527L110.38152585797025,346.63789370609527L111.17077424390675,337.42639721163965L111.59629014827274,300.58041123381713L111.93189233291463,337.42639721163965L112.34305920508584,355.84939020055094L113.88748992930215,309.7919077282728L114.16760574844267,346.63789370609527L114.55193270427833,337.42639721163965L114.91845240792982,365.06088669500656L115.30474074226692,328.21490071718404L116.07287850170103,337.42639721163965L116.85448783452662,319.0034042227284L117.67067936724614,337.42639721163965L118.0176369011069,337.42639721163965L119.30646903745077,346.63789370609527L119.66777560350633,328.21490071718404L120.53171121816888,319.0034042227284L121.2437432294169,337.42639721163965L122.67183323936335,346.63789370609527L122.97646628977189,328.21490071718404L124.16263574613227,365.06088669500656L124.56946693951083,328.21490071718404L124.90723696354905,346.63789370609527L125.30069981398354,337.42639721163965L126.0768379330946,346.63789370609527L126.48150128707682,337.42639721163965L127.24014184534602,337.42639721163965L127.62493333819519,355.84939020055094L127.98758190006752,346.63789370609527L128.3768123021568,337.42639721163965L129.22454073657056,346.63789370609527L130.5098630377013,328.21490071718404L132.06100374100154,300.58041123381713L133.67986361782528,337.42639721163965L133.99688432192718,337.42639721163965L135.40907684296715,300.58041123381713L136.79778443721352,291.36891473936146L137.26980565815327,300.58041123381713L137.6829339088259,319.0034042227284L138.14901937903758,282.15741824490584L138.65670671956937,300.58041123381713L139.14555450344253,328.21490071718404L140.45301973555013,319.0034042227284L140.83977260690074,355.84939020055094L141.23819051881256,355.84939020055094L141.66897117599822,328.21490071718404L142.7690464391899,337.42639721163965L145.80242152212116,355.84939020055094L147.00536592619127,346.63789370609527L147.42664938221205,319.0034042227284L148.37079505453895,263.7344252559946L148.71893973854532,337.42639721163965L149.19292233798646,282.15741824490584L149.60677320179124,309.7919077282728L150.05257388908007,309.7919077282728L150.80822076437337,309.7919077282728L151.17437916145886,328.21490071718404L151.5917398604767,319.0034042227284L152.63348992086233,346.63789370609527L153.01533934595932,309.7919077282728L154.3394762953292,319.0034042227284L155.2539432140158,337.42639721163965L156.73948096796505,272.9459217504502L157.13774403420572,319.0034042227284L159.5842024081916,300.58041123381713L159.99567897170513,319.0034042227284L160.38970958960059,319.0034042227284L162.07773386621213,328.21490071718404L163.27345213896112,328.21490071718404L164.1196321166632,300.58041123381713L165.52212097564342,291.36891473936146L166.98148981116552,309.7919077282728L168.44958161949666,337.42639721163965L168.93946170784426,309.7919077282728L169.41571537712923,282.15741824490584L170.18364667566843,328.21490071718404L171.00169635644193,328.21490071718404L171.35288633864792,355.84939020055094L171.79677726265902,328.21490071718404L172.63397619143345,282.15741824490584L173.45775516204012,309.7919077282728L173.80326746963667,337.42639721163965L174.2172215638889,309.7919077282728L174.63313703664255,309.7919077282728L175.4882464480486,282.15741824490584L175.89528410232202,337.42639721163965L176.36751178415665,282.15741824490584L177.2951405848924,337.42639721163965L178.49261377524795,309.7919077282728L179.35603323767327,300.58041123381713L180.68806731627265,300.58041123381713L181.08576261505237,328.21490071718404L182.0021909122404,337.42639721163965L182.7788451835887,337.42639721163965L183.65103923404678,254.52292876153894L184.59642367174303,300.58041123381713L185.0814519290607,282.15741824490584L186.24351707594283,337.42639721163965L187.01769381655242,328.21490071718404L187.4343835176619,319.0034042227284L188.99966679226202,337.42639721163965L190.6670965946084,337.42639721163965L191.9673873106186,328.21490071718404L192.3903740690222,309.7919077282728L192.84458803777775,282.15741824490584L193.19479733073302,337.42639721163965L193.7796494307295,226.8884392781721L194.16903467848996,319.0034042227284L195.81055363852778,355.84939020055094L196.63665529420194,309.7919077282728L197.2374564983286,236.0999357726277L197.72000722490765,319.0034042227284L198.17158881725337,319.0034042227284L198.55674161666857,328.21490071718404L199.82105652174442,319.0034042227284L200.57536140122096,337.42639721163965L203.37120322458253,328.21490071718404L204.62756938520513,346.63789370609527L206.75927812493288,226.8884392781721L207.0951900009171,355.84939020055094L207.5497652762387,291.36891473936146L208.82786144604836,309.7919077282728L209.5933152138489,300.58041123381713L210.0276573214714,300.58041123381713L210.35907867299179,337.42639721163965L211.60605086289695,346.63789370609527L213.77296118520326,300.58041123381713L214.5353180395805,300.58041123381713L215.4616564597232,328.21490071718404L215.94446526242083,272.9459217504502L216.85841602887024,272.9459217504502L218.18632088957185,245.31143226708332L218.63821217325992,291.36891473936146L219.47659825217994,291.36891473936146L221.18015871113187,337.42639721163965L221.61047483130406,328.21490071718404L222.57196321880159,272.9459217504502L223.87168616735084,291.36891473936146L224.64560483184187,300.58041123381713L225.9726322337402,309.7919077282728L226.41347785955168,355.84939020055094L227.24241835253056,300.58041123381713L228.0504546799019,346.63789370609527L228.48324833081273,319.0034042227284L229.30645953395847,319.0034042227284L229.7344529690631,300.58041123381713L230.6280157221422,337.42639721163965L231.0139427499133,309.7919077282728L231.4387876563709,309.7919077282728L233.66417802715446,355.84939020055094L235.34301479394344,337.42639721163965L235.76434986518797,346.63789370609527L236.2615077000804,272.9459217504502L240.74449634125025,346.63789370609527L241.19411655509452,300.58041123381713L242.15715339930372,291.36891473936146L244.11032508017632,337.42639721163965L244.49862640823858,346.63789370609527L244.92311000813012,300.58041123381713L246.23176239038332,309.7919077282728L246.82724722646662,291.36891473936146L248.15711346566968,319.0034042227284L249.41316993494993,365.06088669500656L249.88183616634768,300.58041123381713L250.8004839181558,282.15741824490584L251.1941532294852,346.63789370609527L251.8198845866697,245.31143226708332L252.2513362417637,319.0034042227284L252.69331740249714,309.7919077282728L255.6621734557756,236.0999357726277L257.14946612733144,291.36891473936146L257.99084588922733,300.58041123381713L258.95620541850406,272.9459217504502L260.5596323434349,337.42639721163965L262.8816980282502,254.52292876153894L263.35475155366436,291.36891473936146L263.8022039281123,337.42639721163965L264.2292166739662,300.58041123381713L265.5701285710458,328.21490071718404L269.3832032235249,272.9459217504502L269.83586873556885,309.7919077282728L270.7980797361985,272.9459217504502L271.7194630948639,309.7919077282728L272.9235946490796,346.63789370609527L273.3360002866201,346.63789370609527L273.7596064277084,300.58041123381713L275.7058100533785,300.58041123381713L276.1842831772835,291.36891473936146L277.0346956033308,319.0034042227284L277.48927087865246,300.58041123381713L277.9638728607783,309.7919077282728L278.7968393412075,282.15741824490584L279.2918293367036,272.9459217504502L280.6773367870792,300.58041123381713L281.5373496447388,309.7919077282728L283.6746328286286,309.7919077282728L284.0762508844112,319.0034042227284L285.44544792409056,309.7919077282728L286.8346200553504,309.7919077282728L288.3791540100142,263.7344252559946L289.31189271789844,309.7919077282728L290.6268937726695,319.0034042227284L291.0035300601706,337.42639721163965L292.8902213328889,272.9459217504502L293.33086049780553,319.0034042227284L299.2138088519932,319.0034042227284L299.6673518228404,291.36891473936146L300.18087168365275,291.36891473936146L301.0245225153925,309.7919077282728L302.02596108605104,309.7919077282728L302.9550867282747,291.36891473936146L304.36851801468407,263.7344252559946L305.28907552976983,282.15741824490584L305.8217446385832,272.9459217504502L307.315540828328,263.7344252559946L307.7577284499563,319.0034042227284L308.67725366056766,282.15741824490584L309.9740861565885,328.21490071718404L310.39707291499207,346.63789370609527L311.3817881531646,291.36891473936146L311.8176271022751,328.21490071718404L313.11466605919077,309.7919077282728L314.99769265102486,309.7919077282728L315.4624877406435,282.15741824490584L316.5693762133665,309.7919077282728L317.54191025874064,282.15741824490584L319.3408556511312,263.7344252559946L319.7730299193574,319.0034042227284L320.701432948449,300.58041123381713L321.14790463364625,300.58041123381713L321.56041350163423,346.63789370609527L322.0976763653588,282.15741824490584L323.0870369736664,254.52292876153894L325.0893463475225,272.9459217504502L326.0749390444983,272.9459217504502L326.59506565394713,254.52292876153894L328.1375866148858,355.84939020055094L330.19114990589804,254.52292876153894L331.77609858073635,245.31143226708332L333.28393411133356,236.0999357726277L333.7859953924796,272.9459217504502L335.65524071957987,300.58041123381713L336.67428008152774,245.31143226708332L337.1806770414664,263.7344252559946L338.0388317510721,319.0034042227284L338.88516657444535,319.0034042227284L339.4112289346222,263.7344252559946L340.926032520422,282.15741824490584L343.2885645406355,254.52292876153894L344.17185586419396,337.42639721163965L344.68981463424643,272.9459217504502L345.5247424931771,300.58041123381713L345.9641945079481,309.7919077282728L347.81816172882657,236.0999357726277L349.63744351936367,282.15741824490584L350.5995512895459,309.7919077282728L351.5481874863366,282.15741824490584L351.9267851523391,328.21490071718404L352.3621079492123,300.58041123381713L353.30568585407826,245.31143226708332L353.7676937216159,309.7919077282728L355.1788539381814,300.58041123381713L355.6165510353459,328.21490071718404L356.03649249554985,319.0034042227284L356.9813091657851,309.7919077282728L359.1645815140114,319.0034042227284L360.1297345823932,309.7919077282728L361.0076579226845,291.36891473936146L361.5409980294062,272.9459217504502L362.06050525617036,254.52292876153894L364.3375624658999,291.36891473936146L365.9968886781219,309.7919077282728L366.86211467337745,300.58041123381713L367.3491043091966,291.36891473936146L370.43652053136503,291.36891473936146L370.8911474219104,291.36891473936146L371.3982669949812,263.7344252559946L371.9573630983403,236.0999357726277L372.39067290148836,319.0034042227284L374.1614363817266,291.36891473936146L375.18088866546424,300.58041123381713L375.7280100369198,263.7344252559946L378.81078088895316,291.36891473936146L379.42360844020715,254.52292876153894L380.81500002608703,291.36891473936146L381.79032129354215,282.15741824490584L382.3002797039177,300.58041123381713L382.83258750616494,254.52292876153894L383.6853226172798,346.63789370609527L385.0921987702764,328.21490071718404L385.71612359463063,236.0999357726277L386.2379535064623,263.7344252559946L387.2057389512539,319.0034042227284L387.7354143770914,254.52292876153894L388.2657091856135,282.15741824490584L388.83734778833707,254.52292876153894L389.35731955211475,245.31143226708332L389.84017997003616,282.15741824490584L391.2023057240656,291.36891473936146L391.6502742507507,300.58041123381713L392.55044375246626,282.15741824490584L392.95701686972615,319.0034042227284L393.56654104666194,217.67694278371644L395.07742187545875,217.67694278371644L395.58562536822774,272.9459217504502L395.9626745775186,319.0034042227284L397.972003621801,236.0999357726277L401.6150061121154,272.9459217504502L402.5648294590517,291.36891473936146L403.6233028519233,291.36891473936146L404.15839787625157,263.7344252559946L404.63996791357994,263.7344252559946L406.0889620891338,272.9459217504502L406.9402003587607,291.36891473936146L407.9092761841454,254.52292876153894L408.34026330222594,309.7919077282728L409.31739110251135,272.9459217504502L411.8898938528269,226.8884392781721L412.89159049960404,300.58041123381713L413.36799901456016,300.58041123381713L414.85890475177655,282.15741824490584L415.3959095393825,272.9459217504502L416.5237537929368,236.0999357726277L416.967438256053,291.36891473936146L417.42789766687895,300.58041123381713L417.9580892449536,272.9459217504502L418.42345210203314,300.58041123381713L419.40713503573124,291.36891473936146L419.9307714803932,300.58041123381713L420.4109995219047,282.15741824490584L421.8049718689708,300.58041123381713L423.25479188810425,272.9459217504502L424.9515907527486,272.9459217504502L425.551514498072,226.8884392781721L426.6987660757458,245.31143226708332L427.8377076024003,254.52292876153894L428.34018180533616,272.9459217504502L428.7439160852914,337.42639721163965L429.33429101422615,254.52292876153894L433.00676579728594,254.52292876153894L434.11060897180937,263.7344252559946L435.0361731635963,309.7919077282728L436.11668625699724,236.0999357726277L436.786961552254,190.04245330034954L440.2016182928213,236.0999357726277L440.6552128788922,309.7919077282728L441.71120874102513,272.9459217504502L442.29750606728584,208.46544628926077L442.9042430221406,226.8884392781721L445.0476684176533,272.9459217504502L446.0201508478036,272.9459217504502L447.1365881369153,309.7919077282728L448.2737231307396,254.52292876153894L448.95380531850356,190.04245330034954L449.5634843411105,254.52292876153894L451.12954184406635,309.7919077282728L451.6463134639733,254.52292876153894L452.1626205468667,272.9459217504502L453.1612718954442,291.36891473936146L453.583484425492,309.7919077282728L454.9698693346708,272.9459217504502L457.13997980084787,245.31143226708332L457.73489686947033,254.52292876153894L458.1966466608893,300.58041123381713L459.51484785953113,245.31143226708332L461.7038494975905,263.7344252559946L462.2677458167558,263.7344252559946L462.72794715146307,272.9459217504502L464.34531018679894,272.9459217504502L467.0926853150853,263.7344252559946L468.1595203742,272.9459217504502L470.6666266360594,272.9459217504502L472.3804069093083,254.52292876153894L473.0473272150232,245.31143226708332L475.3802837120439,337.42639721163965L476.6005708312846,236.0999357726277L477.1321044051761,282.15741824490584L477.58466668677255,309.7919077282728L478.19785554459247,236.0999357726277L478.9262495817605,199.25394979480515L479.60705438265666,162.4079638169826L480.18695142117576,236.0999357726277L481.8256831591326,300.58041123381713L482.31716331941556,309.7919077282728L482.8443095992906,263.7344252559946L483.55278016010186,171.61946031143822L484.585497556336,263.7344252559946L485.6917666463744,236.0999357726277L486.24570122736134,254.52292876153894L487.78817057307623,282.15741824490584L488.25389473672175,282.15741824490584L491.71526325475764,263.7344252559946L493.8847027230264,236.0999357726277L496.46231538049045,300.58041123381713L497.0532580768861,245.31143226708332L497.53885410166487,291.36891473936146L499.72171352810125,291.36891473936146L501.47332776033863,245.31143226708332L504.3307981608245,282.15741824490584L505.890248915144,309.7919077282728L507.48092687981546,263.7344252559946L508.57806007525494,217.67694278371644L509.20864326346936,245.31143226708332L510.8516074497714,190.04245330034954L513.1460589898953,254.52292876153894L515.5227335814087,208.46544628926077L518.1311089122113,309.7919077282728L520.5710637680081,282.15741824490584L521.6946239579934,263.7344252559946L523.3178195136098,236.0999357726277L523.9107235885069,245.31143226708332L524.9331695552205,254.52292876153894L529.0747234914678,190.04245330034954L534.3865493951691,291.36891473936146L535.0484114089592,162.4079638169826L536.2007728937815,236.0999357726277L536.9006237122311,153.19646732252696L538.5928804371878,217.67694278371644L539.2169601072133,217.67694278371644L540.4572223180345,245.31143226708332L542.6593858381431,291.36891473936146L543.7842880239452,282.15741824490584L546.0653196059013,217.67694278371644L546.5234563316598,291.36891473936146L547.1424777097603,263.7344252559946L547.670449833215,272.9459217504502L548.2863742978923,236.0999357726277L550.6269182328001,291.36891473936146L551.2131639438371,263.7344252559946L552.4069724533083,226.8884392781721L553.13805048211,171.61946031143822L555.5149315345183,291.36891473936146L558.1516952383679,263.7344252559946L558.7978662241464,199.25394979480515L561.1588497876483,236.0999357726277L562.8862048647362,217.67694278371644L565.4080214653565,162.4079638169826L569.1495058025329,282.15741824490584L576.5084430942812,245.31143226708332L577.2307981502736,199.25394979480515L579.5368631157352,245.31143226708332L585.5421911653681,291.36891473936146L586.0272710379096,282.15741824490584L588.3978550330237,328.21490071718404L589.5447453041315,217.67694278371644L590.1404366011097,245.31143226708332L590.7255983924485,236.0999357726277L591.2531059788896,300.58041123381713L592.8872439619352,254.52292876153894L593.9907258298925,300.58041123381713L594.6612592012679,254.52292876153894L595.885211001393,236.0999357726277L597.0135714071844,300.58041123381713L597.6304249458888,134.77347433361572L598.788928642334,291.36891473936146L599.3923622228705,245.31143226708332L600.0318232295651,208.46544628926077L600.6584836607766,208.46544628926077L601.307441868636,190.04245330034954L601.7319254685276,319.0034042227284L602.4289374496725,190.04245330034954L602.9533997379141,245.31143226708332L604.2781044547448,153.19646732252696L608.6311775778058,236.0999357726277L610.5472379128222,226.8884392781721L611.0585383190145,272.9459217504502L612.3383894064307,143.98497082807134L615.6900755740569,254.52292876153894L616.2825151119405,254.52292876153894L618.6235235838619,190.04245330034954L619.8685860104893,272.9459217504502L620.5351966248618,254.52292876153894L622.371563054451,263.7344252559946L622.7650775201092,328.21490071718404L624.9107739854658,291.36891473936146L625.4617664987005,226.8884392781721L626.0482702858561,143.98497082807134L627.1937669459234,263.7344252559946L631.4059305082227,236.0999357726277L631.964974996358,254.52292876153894L632.6094426797537,153.19646732252696L633.8356139344988,226.8884392781721L635.0274094502449,263.7344252559946L635.7112079341169,153.19646732252696L639.6699923631638,190.04245330034954L642.7167874042628,226.8884392781721L646.6402670202839,217.67694278371644L648.6139299449742,162.4079638169826L649.2515328036147,226.8884392781721L651.0240512014595,291.36891473936146L655.3098180727868,199.25394979480515L657.2723321091531,217.67694278371644L657.9598985043568,143.98497082807134L658.6417872249511,199.25394979480515L661.1775399359764,245.31143226708332L664.2514845847533,226.8884392781721L665.4972696245128,226.8884392781721L666.0220416040967,97.92748835579319L666.7069756228906,153.19646732252696L667.8899965506039,143.98497082807134L669.0036466176346,143.98497082807134L669.5785369794527,125.56197783916006L670.217120527344,208.46544628926077L670.9509341630029,190.04245330034954L672.990767804505,236.0999357726277L674.2620507647833,190.04245330034954L675.4498719083028,79.50449536688191L676.0458728966233,217.67694278371644L676.6087369113142,125.56197783916006L678.3468279549362,236.0999357726277L681.5253450469744,272.9459217504502L684.4389211956463,282.15741824490584L684.9568799656988,70.29299887242625L685.4465535931516,97.92748835579319L687.9367816768539,162.4079638169826L688.579133136077,208.46544628926077L689.1808117990068,97.92748835579319L693.6336055342991,199.25394979480515L694.3320111264845,143.98497082807134L695.4743076426811,263.7344252559946L695.9926277192995,61.08150237797064L697.3035511713965,116.35048134470445L700.7981598935096,254.52292876153894L702.139846018945,199.25394979480515L703.3968831774761,263.7344252559946L703.957682583218,107.1389848502488L706.3659973068732,254.52292876153894L708.8483798765697,134.77347433361572L709.5390431851968,190.04245330034954L710.0820869539782,291.36891473936146L711.9333701832231,125.56197783916006L712.4798205567703,282.15741824490584L715.4858911863525,107.1389848502488L716.1229262775322,143.98497082807134L717.442211395872,171.61946031143822L718.6569756861746,245.31143226708332L719.2846168066368,236.0999357726277L719.883095325696,217.67694278371644L720.5770620086413,153.19646732252696L721.9261807262927,226.8884392781721L723.310810717865,162.4079638169826L725.7972192750119,190.04245330034954L727.0247325255738,153.19646732252696L728.3303396096273,143.98497082807134L730.3645988069676,125.56197783916006L730.9138364025957,88.71599186133753L733.6197128910095,190.04245330034954L735.6796764697633,143.98497082807134L736.8882985484429,116.35048134470445L737.6149376680044,199.25394979480515L738.7983199022837,116.35048134470445L740.6256536677215,125.56197783916006L741.2175770533679,97.92748835579319L741.8963172453151,143.98497082807134L742.4424579275201,282.15741824490584L745.5373067419043,116.35048134470445L746.0805569715808,263.7344252559946L746.7932083655135,190.04245330034954L747.8653597926715,328.21490071718404L749.250712397376,107.1389848502488L749.8174991690697,79.50449536688191L751.1190802656729,254.52292876153894L752.2953912143023,134.77347433361572L754.3878723840012,153.19646732252696L755.5871004919633,190.04245330034954L756.2036443393253,199.25394979480515L756.8082134547836,107.1389848502488L757.4743079169189,134.77347433361572L760.9164239565064,70.29299887242625L761.5296644295502,97.92748835579319L763.4344726457949,97.92748835579319L764.1743252626293,190.04245330034954L764.847232934296,153.19646732252696L765.4217103743242,97.92748835579319L768.7031998376882,134.77347433361572L774.0105352169256,116.35048134470445L774.7193670843029,217.67694278371644L777.414043069169,208.46544628926077L778.7250181364897,88.71599186133753L780.7223724488684,254.52292876153894L781.4426628959121,162.4079638169826L782.117583561304,171.61946031143822L782.7623093208182,245.31143226708332L783.6559753043447,33.44701289460371L784.3367284900171,162.4079638169826L786.2138193311231,88.71599186133753L789.5100707484717,245.31143226708332L790.2010953636646,171.61946031143822L791.5239419324415,236.0999357726277L793.3404365008978,79.50449536688191L797.8518135151148,171.61946031143822L798.4735188848489,116.35048134470445L799.0166142688541,79.50449536688191L800.9781992311935,245.31143226708332L803.4956285377974,134.77347433361572L804.1323539376347,143.98497082807134L804.7747053968577,143.98497082807134L806.789454039631,190.04245330034954L807.4893564733043,190.04245330034954L808.8327975163462,190.04245330034954L810.0763114862621,134.77347433361572L811.3080055699454,116.35048134470445L813.8687400492523,171.61946031143822L815.0591935691816,88.71599186133753L815.6703178180527,125.56197783916006L816.3510193885013,199.25394979480515L819.0775419664039,208.46544628926077L820.4090598927661,208.46544628926077L822.751461975728,236.0999357726277L823.7144988199373,51.87000588351498L824.913985004018,97.92748835579319L825.5608786029285,134.77347433361572L828.3177509323798,107.1389848502488L830.1889060227578,116.35048134470445L830.7416018383753,125.56197783916006L832.2460307642069,171.61946031143822L832.8738783455641,134.77347433361572L834.3567837231035,199.25394979480515L835.0038321676853,143.98497082807134L835.7661374068388,171.61946031143822L836.9185505068848,125.56197783916006L837.6226337736797,199.25394979480515L838.2948188322141,153.19646732252696L841.8646309352904,153.19646732252696L842.3878544581626,88.71599186133753L843.0785177667897,199.25394979480515L843.651137058764,107.1389848502488L844.3029341039282,162.4079638169826L846.4711864220512,171.61946031143822L848.0247014256427,171.61946031143822L852.1108206116124,171.61946031143822L854.7368999641516,134.77347433361572L855.4324667190322,199.25394979480515L856.0319259273422,125.56197783916006L856.6545603711033,162.4079638169826L859.0912118525819,208.46544628926077L859.8209478855667,190.04245330034954L860.407709748841,116.35048134470445L861.1762604300648,190.04245330034954L861.797398032338,143.98497082807134L863.0658421553117,282.15741824490584L865.0212332908043,162.4079638169826L866.8864526304542,97.92748835579319L867.6222792598381,143.98497082807134L868.6730619843752,97.92748835579319L869.9455837100228,125.56197783916006L871.2045306318315,88.71599186133753L874.3190964616779,208.46544628926077L876.8319320133704,116.35048134470445L878.550977039439,272.9459217504502L881.1376223610545,107.1389848502488L882.34438629168,217.67694278371644L882.890681819556,88.71599186133753L883.3997111559046,88.71599186133753L885.4379963406951,125.56197783916006L886.9675102652558,33.44701289460371L888.1738612740916,79.50449536688191L892.0833531644837,208.46544628926077L892.7606481301667,153.19646732252696L893.1525109086658,15.024019905692438L895.1350516518364,208.46544628926077L896.8891434148122,282.15741824490584L898.7734603872395,79.50449536688191L899.4299028025385,134.77347433361572L900.7947641634253,61.08150237797064L901.4646265368924,199.25394979480515L902.0710538004048,134.77347433361572L902.8605602624598,162.4079638169826L904.6225491546653,116.35048134470445L905.8147059769775,309.7919077282728L907.4862649972216,42.65850938905937L908.0421093414864,88.71599186133753L909.3275348730646,134.77347433361572L911.2028707965641,143.98497082807134L913.7309844544785,88.71599186133753L914.5372142490195,236.0999357726277L915.148648189233,143.98497082807134L915.8239817764144,208.46544628926077L916.4631330917667,208.46544628926077L917.5741507823875,125.56197783916006L918.2606332578932,171.61946031143822L919.0112218412618,208.46544628926077L919.7105048922504,208.46544628926077L923.3124732797056,42.65850938905937L924.5370444625153,134.77347433361572L925.6624628005546,97.92748835579319L926.1636982381211,42.65850938905937L926.8265409411619,171.61946031143822L927.2617088923639,291.36891473936146L927.8264310551086,272.9459217504502L929.3181110206809,245.31143226708332L930.7337101464865,226.8884392781721L931.3995465325033,190.04245330034954L933.2260028391378,97.92748835579319L933.8686639897031,143.98497082807134L935.6998172816965,107.1389848502488L940.2022132469859,199.25394979480515L948.7939801573394,70.29299887242625L949.4124337679791,116.35048134470445L951.9650646571616,88.71599186133753L952.6118550256247,125.56197783916006L953.2620003836298,143.98497082807134L954.4426470110519,263.7344252559946L955.0253828868757,88.71599186133753L956.0679071756172,79.50449536688191L958.0019812237126,153.19646732252696L958.7089033278121,153.19646732252696L959.9691406302138,162.4079638169826L960.6940764473925,153.19646732252696L961.3432411161468,162.4079638169826L963.8798712859754,245.31143226708332L964.5564952537501,134.77347433361572L965.7353353483419,61.08150237797064L966.3397496181291,97.92748835579319L968.2129693174559,125.56197783916006L968.8040152442992,107.1389848502488L969.5202797038925,208.46544628926077L972.3549877907169,171.61946031143822L972.9610021324395,143.98497082807134L973.5569515055362,134.77347433361572L974.1890315352387,125.56197783916006L980.5853449045674,134.77347433361572L981.1513574479052,125.56197783916006L982.1560993928821,42.65850938905937L984.5870731997512,143.98497082807134L986.9737095294431,88.71599186133753L987.5481869694713,263.7344252559946L990.9414750074177,226.8884392781721L992.1499938556499,125.56197783916006L992.8362182550367,153.19646732252696L994.0958877899775,116.35048134470445L994.6959663809722,116.35048134470445L995.3456988171873,107.1389848502488L997.8225069427219,107.1389848502488L998.4404960163481,125.56197783916006L999.0889380719703,199.25394979480515L999.5417068144618,33.44701289460371L1000.7684458366678,116.35048134470445L1001.2880046786556,79.50449536688191L1002.2885657905109,291.36891473936146L1002.8992255023685,226.8884392781721L1003.6136834291316,208.46544628926077L1004.3186441547297,208.46544628926077L1006.1107247223651,190.04245330034954L1006.8118659214078,134.77347433361572L1009.4213251719085,162.4079638169826L1009.9741758331971,97.92748835579319L1012.5357361560835,125.56197783916006L1013.0284034665123,70.29299887242625L1014.2741885062718,153.19646732252696L1014.869673342355,226.8884392781721L1015.3874772667363,79.50449536688191L1016.4759391045906,226.8884392781721L1017.2471221622243,190.04245330034954L1021.3424804732401,88.71599186133753L1021.9320811738191,107.1389848502488L1022.586923517183,199.25394979480515L1024.637544740443,153.19646732252696L1027.104236282128,116.35048134470445L1031.0215736865262,116.35048134470445L1031.4815685603387,61.08150237797064L1033.6830610825386,79.50449536688191L1034.156475914519,61.08150237797064L1036.5387249501944,171.61946031143822L1037.1376163910434,263.7344252559946L1037.8705009526752,171.61946031143822L1038.561215876526,153.19646732252696L1042.429105896598,319.0034042227284L1044.7992769699226,245.31143226708332L1045.9931887098412,125.56197783916006L1046.651747349313,190.04245330034954L1050.4010255852716,51.87000588351498L1051.5877111938692,97.92748835579319L1052.5885819970667,79.50449536688191L1053.8313217386267,88.71599186133753L1056.770086116475,97.92748835579319L1059.9422545359953,88.71599186133753L1061.0962160927531,153.19646732252696L1061.8047898840118,134.77347433361572L1062.492769201005,143.98497082807134L1064.1278878733015,107.1389848502488L1066.2272338677553,171.61946031143822L1067.559216331131,143.98497082807134L1068.1877865256204,116.35048134470445L1069.5399505414712,153.19646732252696L1070.2661251240193,199.25394979480515L1070.9021795259482,143.98497082807134L1074.1614228278877,171.61946031143822L1074.7232029228805,116.35048134470445L1075.2100377130287,70.29299887242625L1076.4414221053696,171.61946031143822L1077.6033840218042,153.19646732252696L1081.2443219031697,153.19646732252696L1082.9920649936278,153.19646732252696L1084.851864734787,143.98497082807134L1086.3825141942693,61.08150237797064L1087.4345872993995,107.1389848502488L1089.133399157769,134.77347433361572L1093.373847862668,162.4079638169826L1095.3122059743325,208.46544628926077L1095.9482087610377,153.19646732252696L1099.695990155508,107.1389848502488L1100.9145223571422,116.35048134470445L1101.5470153086346,134.77347433361572L1105.3373792626758,116.35048134470445L1106.5353686052686,217.67694278371644L1108.766539881109,116.35048134470445L1109.3996522152859,125.56197783916006L1109.9901819898917,226.8884392781721" style="fill: none;" fill="none"></path></g></g></g></g></g></g><g transform="translate(41, 377)" clip-path="url(#clip_1)"><clipPath id="clip_1"><rect width="1787" height="22"></rect></clipPath><g><g><line x1="1.285576004957303" y1="0" x2="1.285576004957303" y2="5" style="visibility: inherit;" fill="rgb(0, 0, 0)" stroke="rgb(204, 204, 204)" stroke-width="1px"></line><line x1="259.36169461606585" y1="0" x2="259.36169461606585" y2="5" style="visibility: inherit;" fill="rgb(0, 0, 0)" stroke="rgb(204, 204, 204)" stroke-width="1px"></line><line x1="517.4378132271744" y1="0" x2="517.4378132271744" y2="5" style="visibility: inherit;" fill="rgb(0, 0, 0)" stroke="rgb(204, 204, 204)" stroke-width="1px"></line><line x1="775.5139318382828" y1="0" x2="775.5139318382828" y2="5" style="visibility: inherit;" fill="rgb(0, 0, 0)" stroke="rgb(204, 204, 204)" stroke-width="1px"></line><line x1="1033.5900504493914" y1="0" x2="1033.5900504493914" y2="5" style="visibility: inherit;" fill="rgb(0, 0, 0)" stroke="rgb(204, 204, 204)" stroke-width="1px"></line><line x1="1291.6661690605" y1="0" x2="1291.6661690605" y2="5" style="visibility: inherit;" fill="rgb(0, 0, 0)" stroke="rgb(204, 204, 204)" stroke-width="1px"></line><line x1="1549.7422876716084" y1="0" x2="1549.7422876716084" y2="5" style="visibility: inherit;" fill="rgb(0, 0, 0)" stroke="rgb(204, 204, 204)" stroke-width="1px"></line></g><g transform="translate(0, 8)"><text x="1.285576004957303" y="0" dx="0em" dy="0.95em" style="text-anchor: middle; visibility: hidden; font-family: Roboto, sans-serif; font-size: 12px; font-weight: 200;" fill="rgb(255, 255, 255)" stroke="none" stroke-width="1px">0</text><text x="259.36169461606585" y="0" dx="0em" dy="0.95em" style="text-anchor: middle; visibility: inherit; font-family: Roboto, sans-serif; font-size: 12px; font-weight: 200;" fill="rgb(255, 255, 255)" stroke="none" stroke-width="1px">5M</text><text x="517.4378132271744" y="0" dx="0em" dy="0.95em" style="text-anchor: middle; visibility: inherit; font-family: Roboto, sans-serif; font-size: 12px; font-weight: 200;" fill="rgb(255, 255, 255)" stroke="none" stroke-width="1px">10M</text><text x="775.5139318382828" y="0" dx="0em" dy="0.95em" style="text-anchor: middle; visibility: inherit; font-family: Roboto, sans-serif; font-size: 12px; font-weight: 200;" fill="rgb(255, 255, 255)" stroke="none" stroke-width="1px">15M</text><text x="1033.5900504493914" y="0" dx="0em" dy="0.95em" style="text-anchor: middle; visibility: inherit; font-family: Roboto, sans-serif; font-size: 12px; font-weight: 200;" fill="rgb(255, 255, 255)" stroke="none" stroke-width="1px">20M</text><text x="1291.6661690605" y="0" dx="0em" dy="0.95em" style="text-anchor: middle; visibility: inherit; font-family: Roboto, sans-serif; font-size: 12px; font-weight: 200;" fill="rgb(255, 255, 255)" stroke="none" stroke-width="1px">25M</text><text x="1549.7422876716084" y="0" dx="0em" dy="0.95em" style="text-anchor: middle; visibility: inherit; font-family: Roboto, sans-serif; font-size: 12px; font-weight: 200;" fill="rgb(255, 255, 255)" stroke="none" stroke-width="1px">30M</text></g><line x1="0" y1="0" x2="1787.468125" y2="0" fill="rgb(0, 0, 0)" stroke="rgb(204, 204, 204)" stroke-width="1px"></line></g></g></g></g></svg>